solid OpenSCAD_Model
  facet normal -0.207877 0.978155 0
    outer loop
      vertex 35.8498 12.3846 3
      vertex 35.2875 12.2651 14
      vertex 35.8498 12.3846 14
    endloop
  endfacet
  facet normal -0.207877 0.978155 0
    outer loop
      vertex 35.2875 12.2651 14
      vertex 35.8498 12.3846 3
      vertex 35.2875 12.2651 3
    endloop
  endfacet
  facet normal -0.951023 -0.309121 0
    outer loop
      vertex 37.6899 15.5718 3
      vertex 37.5122 16.1185 14
      vertex 37.5122 16.1185 3
    endloop
  endfacet
  facet normal -0.951023 -0.309121 0
    outer loop
      vertex 37.5122 16.1185 14
      vertex 37.6899 15.5718 3
      vertex 37.6899 15.5718 14
    endloop
  endfacet
  facet normal -0.994522 -0.104531 0
    outer loop
      vertex 37.75 15 3
      vertex 37.6899 15.5718 14
      vertex 37.6899 15.5718 3
    endloop
  endfacet
  facet normal -0.994522 -0.104531 0
    outer loop
      vertex 37.6899 15.5718 14
      vertex 37.75 15 3
      vertex 37.75 15 14
    endloop
  endfacet
  facet normal -0.587882 0.808947 0
    outer loop
      vertex 36.8401 12.9564 3
      vertex 36.375 12.6184 14
      vertex 36.8401 12.9564 14
    endloop
  endfacet
  facet normal -0.587882 0.808947 0
    outer loop
      vertex 36.375 12.6184 14
      vertex 36.8401 12.9564 3
      vertex 36.375 12.6184 3
    endloop
  endfacet
  facet normal -0.994522 0.104531 0
    outer loop
      vertex 37.6899 14.4282 3
      vertex 37.75 15 14
      vertex 37.75 15 3
    endloop
  endfacet
  facet normal -0.994522 0.104531 0
    outer loop
      vertex 37.75 15 14
      vertex 37.6899 14.4282 3
      vertex 37.6899 14.4282 14
    endloop
  endfacet
  facet normal 0.743104 0.669176 0
    outer loop
      vertex 33.1599 12.9564 14
      vertex 32.7752 13.3836 3
      vertex 32.7752 13.3836 14
    endloop
  endfacet
  facet normal 0.743104 0.669176 0
    outer loop
      vertex 32.7752 13.3836 3
      vertex 33.1599 12.9564 14
      vertex 33.1599 12.9564 3
    endloop
  endfacet
  facet normal 0.994522 0.104531 0
    outer loop
      vertex 32.3101 14.4282 14
      vertex 32.25 15 3
      vertex 32.25 15 14
    endloop
  endfacet
  facet normal 0.994522 0.104531 0
    outer loop
      vertex 32.25 15 3
      vertex 32.3101 14.4282 14
      vertex 32.3101 14.4282 3
    endloop
  endfacet
  facet normal 0.866073 0.499918 0
    outer loop
      vertex 32.7752 13.3836 14
      vertex 32.4878 13.8815 3
      vertex 32.4878 13.8815 14
    endloop
  endfacet
  facet normal 0.866073 0.499918 0
    outer loop
      vertex 32.4878 13.8815 3
      vertex 32.7752 13.3836 14
      vertex 32.7752 13.3836 3
    endloop
  endfacet
  facet normal 0.951023 -0.309121 0
    outer loop
      vertex 32.3101 15.5718 14
      vertex 32.4878 16.1185 3
      vertex 32.4878 16.1185 14
    endloop
  endfacet
  facet normal 0.951023 -0.309121 0
    outer loop
      vertex 32.4878 16.1185 3
      vertex 32.3101 15.5718 14
      vertex 32.3101 15.5718 3
    endloop
  endfacet
  facet normal -0.406687 -0.913567 0
    outer loop
      vertex 35.8498 17.6154 3
      vertex 36.375 17.3816 14
      vertex 35.8498 17.6154 14
    endloop
  endfacet
  facet normal -0.406687 -0.913567 -0
    outer loop
      vertex 36.375 17.3816 14
      vertex 35.8498 17.6154 3
      vertex 36.375 17.3816 3
    endloop
  endfacet
  facet normal 0.207877 -0.978155 0
    outer loop
      vertex 34.1502 17.6154 3
      vertex 34.7125 17.7349 14
      vertex 34.1502 17.6154 14
    endloop
  endfacet
  facet normal 0.207877 -0.978155 0
    outer loop
      vertex 34.7125 17.7349 14
      vertex 34.1502 17.6154 3
      vertex 34.7125 17.7349 3
    endloop
  endfacet
  facet normal 0.406687 -0.913567 0
    outer loop
      vertex 33.625 17.3816 3
      vertex 34.1502 17.6154 14
      vertex 33.625 17.3816 14
    endloop
  endfacet
  facet normal 0.406687 -0.913567 0
    outer loop
      vertex 34.1502 17.6154 14
      vertex 33.625 17.3816 3
      vertex 34.1502 17.6154 3
    endloop
  endfacet
  facet normal 0.743104 -0.669176 0
    outer loop
      vertex 32.7752 16.6164 14
      vertex 33.1599 17.0436 3
      vertex 33.1599 17.0436 14
    endloop
  endfacet
  facet normal 0.743104 -0.669176 0
    outer loop
      vertex 33.1599 17.0436 3
      vertex 32.7752 16.6164 14
      vertex 32.7752 16.6164 3
    endloop
  endfacet
  facet normal 0.994522 -0.104531 0
    outer loop
      vertex 32.25 15 14
      vertex 32.3101 15.5718 3
      vertex 32.3101 15.5718 14
    endloop
  endfacet
  facet normal 0.994522 -0.104531 0
    outer loop
      vertex 32.3101 15.5718 3
      vertex 32.25 15 14
      vertex 32.25 15 3
    endloop
  endfacet
  facet normal 0.951023 0.309121 0
    outer loop
      vertex 32.4878 13.8815 14
      vertex 32.3101 14.4282 3
      vertex 32.3101 14.4282 14
    endloop
  endfacet
  facet normal 0.951023 0.309121 0
    outer loop
      vertex 32.3101 14.4282 3
      vertex 32.4878 13.8815 14
      vertex 32.4878 13.8815 3
    endloop
  endfacet
  facet normal 0 -1 0
    outer loop
      vertex 34.7125 17.7349 3
      vertex 35.2875 17.7349 14
      vertex 34.7125 17.7349 14
    endloop
  endfacet
  facet normal 0 -1 -0
    outer loop
      vertex 35.2875 17.7349 14
      vertex 34.7125 17.7349 3
      vertex 35.2875 17.7349 3
    endloop
  endfacet
  facet normal 0 0 1
    outer loop
      vertex 111.869 -16.7525 17
      vertex 111.869 -19.2475 17
      vertex 112 -18 17
    endloop
  endfacet
  facet normal 0 0 1
    outer loop
      vertex 111.481 -15.5596 17
      vertex 111.869 -19.2475 17
      vertex 111.869 -16.7525 17
    endloop
  endfacet
  facet normal 0 0 1
    outer loop
      vertex 111.481 -15.5596 17
      vertex 111.481 -20.4404 17
      vertex 111.869 -19.2475 17
    endloop
  endfacet
  facet normal 0 0 1
    outer loop
      vertex 110.854 -14.4733 17
      vertex 111.481 -20.4404 17
      vertex 111.481 -15.5596 17
    endloop
  endfacet
  facet normal 0 0 1
    outer loop
      vertex 110.854 -14.4733 17
      vertex 110.854 -21.5267 17
      vertex 111.481 -20.4404 17
    endloop
  endfacet
  facet normal 0 0 1
    outer loop
      vertex 110.015 -13.5411 17
      vertex 110.854 -21.5267 17
      vertex 110.854 -14.4733 17
    endloop
  endfacet
  facet normal 0 0 1
    outer loop
      vertex 110.015 -13.5411 17
      vertex 110.015 -22.4589 17
      vertex 110.854 -21.5267 17
    endloop
  endfacet
  facet normal 0 0 1
    outer loop
      vertex 109 -12.8038 17
      vertex 110.015 -22.4589 17
      vertex 110.015 -13.5411 17
    endloop
  endfacet
  facet normal 0 0 1
    outer loop
      vertex 109 -12.8038 17
      vertex 108.015 -24.4589 17
      vertex 110.015 -22.4589 17
    endloop
  endfacet
  facet normal 0 0 1
    outer loop
      vertex 102.146 -25.7063 17
      vertex 108.015 -24.4589 17
      vertex 109 -12.8038 17
    endloop
  endfacet
  facet normal 0 0 1
    outer loop
      vertex 108.015 -24.4589 17
      vertex 102.146 -25.7063 17
      vertex 107 -25.1962 17
    endloop
  endfacet
  facet normal 0 0 1
    outer loop
      vertex 107 -25.1962 17
      vertex 102.146 -25.7063 17
      vertex 105.854 -25.7063 17
    endloop
  endfacet
  facet normal 0 0 1
    outer loop
      vertex 105.854 -25.7063 17
      vertex 102.146 -25.7063 17
      vertex 104.627 -25.9671 17
    endloop
  endfacet
  facet normal 0 0 1
    outer loop
      vertex 104.627 -25.9671 17
      vertex 102.146 -25.7063 17
      vertex 103.373 -25.9671 17
    endloop
  endfacet
  facet normal -0 0 1
    outer loop
      vertex 39.8907 13.9604 17
      vertex 109 -12.8038 17
      vertex 40 15 17
    endloop
  endfacet
  facet normal 0 0 1
    outer loop
      vertex 109 -12.8038 17
      vertex 39.8907 16.0396 17
      vertex 40 15 17
    endloop
  endfacet
  facet normal 0 0 1
    outer loop
      vertex 39 25.1962 17
      vertex 39.8907 16.0396 17
      vertex 109 -12.8038 17
    endloop
  endfacet
  facet normal 0 0 1
    outer loop
      vertex 39.8907 16.0396 17
      vertex 39 25.1962 17
      vertex 39.5677 17.0337 17
    endloop
  endfacet
  facet normal 0 0 1
    outer loop
      vertex 39.5677 17.0337 17
      vertex 39 25.1962 17
      vertex 39.0451 17.9389 17
    endloop
  endfacet
  facet normal 0 0 1
    outer loop
      vertex 39 25.1962 17
      vertex 38.3457 18.7157 17
      vertex 39.0451 17.9389 17
    endloop
  endfacet
  facet normal 0 0 1
    outer loop
      vertex 36.5451 19.7553 17
      vertex 39 25.1962 17
      vertex 37.8541 25.7063 17
    endloop
  endfacet
  facet normal 0 0 1
    outer loop
      vertex 39 25.1962 17
      vertex 37.5 19.3301 17
      vertex 38.3457 18.7157 17
    endloop
  endfacet
  facet normal 0 0 1
    outer loop
      vertex 35.5226 19.9726 17
      vertex 37.8541 25.7063 17
      vertex 36.6272 25.9671 17
    endloop
  endfacet
  facet normal 0 0 1
    outer loop
      vertex 39 25.1962 17
      vertex 36.5451 19.7553 17
      vertex 37.5 19.3301 17
    endloop
  endfacet
  facet normal 0 0 1
    outer loop
      vertex 37.8541 25.7063 17
      vertex 35.5226 19.9726 17
      vertex 36.5451 19.7553 17
    endloop
  endfacet
  facet normal -0 0 1
    outer loop
      vertex 35.3728 25.9671 17
      vertex 35.5226 19.9726 17
      vertex 36.6272 25.9671 17
    endloop
  endfacet
  facet normal -0 0 1
    outer loop
      vertex 34.1459 25.7063 17
      vertex 35.5226 19.9726 17
      vertex 35.3728 25.9671 17
    endloop
  endfacet
  facet normal 0 0 1
    outer loop
      vertex 35.5226 19.9726 17
      vertex 34.1459 25.7063 17
      vertex 34.4774 19.9726 17
    endloop
  endfacet
  facet normal -0 0 1
    outer loop
      vertex 33 25.1962 17
      vertex 34.4774 19.9726 17
      vertex 34.1459 25.7063 17
    endloop
  endfacet
  facet normal 0 0 1
    outer loop
      vertex 34.4774 19.9726 17
      vertex 33 25.1962 17
      vertex 33.4549 19.7553 17
    endloop
  endfacet
  facet normal 0 0 1
    outer loop
      vertex 33 25.1962 17
      vertex 32.5 19.3301 17
      vertex 33.4549 19.7553 17
    endloop
  endfacet
  facet normal 0 0 1
    outer loop
      vertex 33 25.1962 17
      vertex 31.6543 18.7157 17
      vertex 32.5 19.3301 17
    endloop
  endfacet
  facet normal 0 0 1
    outer loop
      vertex 33 25.1962 17
      vertex 30.9549 17.9389 17
      vertex 31.6543 18.7157 17
    endloop
  endfacet
  facet normal 0 0 1
    outer loop
      vertex 33 25.1962 17
      vertex 30.4323 17.0337 17
      vertex 30.9549 17.9389 17
    endloop
  endfacet
  facet normal 0 0 1
    outer loop
      vertex 1 3.73205 17
      vertex 30.4323 17.0337 17
      vertex 33 25.1962 17
    endloop
  endfacet
  facet normal 0 0 1
    outer loop
      vertex 1 3.73205 17
      vertex 30 15 17
      vertex 30.1093 16.0396 17
    endloop
  endfacet
  facet normal 0 0 1
    outer loop
      vertex 30.4323 17.0337 17
      vertex 1 3.73205 17
      vertex 30.1093 16.0396 17
    endloop
  endfacet
  facet normal 0 0 1
    outer loop
      vertex 30 15 17
      vertex 1 3.73205 17
      vertex 2.20906 0.0109558 17
    endloop
  endfacet
  facet normal 0 0 1
    outer loop
      vertex 2.20906 0.0109558 17
      vertex 1 3.73205 17
      vertex 1.79094 0.0109558 17
    endloop
  endfacet
  facet normal 0 0 1
    outer loop
      vertex 1.79094 0.0109558 17
      vertex 1 3.73205 17
      vertex 1.38197 0.0978861 17
    endloop
  endfacet
  facet normal 0 0 1
    outer loop
      vertex 1 3.73205 17
      vertex 1 0.267949 17
      vertex 1.38197 0.0978861 17
    endloop
  endfacet
  facet normal -0 0 1
    outer loop
      vertex 0.661738 3.48629 17
      vertex 1 0.267949 17
      vertex 1 3.73205 17
    endloop
  endfacet
  facet normal 0 0 1
    outer loop
      vertex 0.661738 3.48629 17
      vertex 0.661738 0.51371 17
      vertex 1 0.267949 17
    endloop
  endfacet
  facet normal -0 0 1
    outer loop
      vertex 0.381966 3.17557 17
      vertex 0.661738 0.51371 17
      vertex 0.661738 3.48629 17
    endloop
  endfacet
  facet normal 0 0 1
    outer loop
      vertex 0.381966 3.17557 17
      vertex 0.381966 0.824429 17
      vertex 0.661738 0.51371 17
    endloop
  endfacet
  facet normal -0 0 1
    outer loop
      vertex 0.172909 2.81347 17
      vertex 0.381966 0.824429 17
      vertex 0.381966 3.17557 17
    endloop
  endfacet
  facet normal 0 0 1
    outer loop
      vertex 0.172909 2.81347 17
      vertex 0.172909 1.18653 17
      vertex 0.381966 0.824429 17
    endloop
  endfacet
  facet normal -0 0 1
    outer loop
      vertex 0.043704 2.41582 17
      vertex 0.172909 1.18653 17
      vertex 0.172909 2.81347 17
    endloop
  endfacet
  facet normal 0 0 1
    outer loop
      vertex 0.043704 2.41582 17
      vertex 0.043704 1.58418 17
      vertex 0.172909 1.18653 17
    endloop
  endfacet
  facet normal 0 -0 1
    outer loop
      vertex 0.043704 1.58418 17
      vertex 0.043704 2.41582 17
      vertex 0 2 17
    endloop
  endfacet
  facet normal -0 0 1
    outer loop
      vertex 39.5677 12.9663 17
      vertex 109 -12.8038 17
      vertex 39.8907 13.9604 17
    endloop
  endfacet
  facet normal 0 0 1
    outer loop
      vertex 109 -12.8038 17
      vertex 39.5677 12.9663 17
      vertex 102.146 -25.7063 17
    endloop
  endfacet
  facet normal -0 0 1
    outer loop
      vertex 39.0451 12.0611 17
      vertex 102.146 -25.7063 17
      vertex 39.5677 12.9663 17
    endloop
  endfacet
  facet normal 0 0 1
    outer loop
      vertex 35.3772 3.69631 17
      vertex 39.0451 12.0611 17
      vertex 38.3457 11.2843 17
    endloop
  endfacet
  facet normal 0 0 1
    outer loop
      vertex 35.3772 3.69631 17
      vertex 38.3457 11.2843 17
      vertex 37.5 10.6699 17
    endloop
  endfacet
  facet normal 0 0 1
    outer loop
      vertex 35.3772 3.69631 17
      vertex 37.5 10.6699 17
      vertex 36.5451 10.2447 17
    endloop
  endfacet
  facet normal 0 0 1
    outer loop
      vertex 35.3772 3.69631 17
      vertex 36.5451 10.2447 17
      vertex 35.5226 10.0274 17
    endloop
  endfacet
  facet normal 0 0 1
    outer loop
      vertex 39.0451 12.0611 17
      vertex 35.3772 3.69631 17
      vertex 102.146 -25.7063 17
    endloop
  endfacet
  facet normal -0 0 1
    outer loop
      vertex 34.4774 10.0274 17
      vertex 35.3772 3.69631 17
      vertex 35.5226 10.0274 17
    endloop
  endfacet
  facet normal 0 0 1
    outer loop
      vertex 33.4549 10.2447 17
      vertex 35.3772 3.69631 17
      vertex 34.4774 10.0274 17
    endloop
  endfacet
  facet normal 0 0 1
    outer loop
      vertex 32.5 10.6699 17
      vertex 35.3772 3.69631 17
      vertex 33.4549 10.2447 17
    endloop
  endfacet
  facet normal 0 0 1
    outer loop
      vertex 31.6543 11.2843 17
      vertex 35.3772 3.69631 17
      vertex 32.5 10.6699 17
    endloop
  endfacet
  facet normal 0 0 1
    outer loop
      vertex 30.9549 12.0611 17
      vertex 35.3772 3.69631 17
      vertex 31.6543 11.2843 17
    endloop
  endfacet
  facet normal 0 0 1
    outer loop
      vertex 2.20906 0.0109558 17
      vertex 30.9549 12.0611 17
      vertex 30.4323 12.9663 17
    endloop
  endfacet
  facet normal 0 0 1
    outer loop
      vertex 30.9549 12.0611 17
      vertex 2.20906 0.0109558 17
      vertex 35.3772 3.69631 17
    endloop
  endfacet
  facet normal 0 0 1
    outer loop
      vertex 30.1093 13.9604 17
      vertex 2.20906 0.0109558 17
      vertex 30.4323 12.9663 17
    endloop
  endfacet
  facet normal 0 0 1
    outer loop
      vertex 2.20906 0.0109558 17
      vertex 30.1093 13.9604 17
      vertex 30 15 17
    endloop
  endfacet
  facet normal -0.866073 0.499918 0
    outer loop
      vertex 37.2248 13.3836 3
      vertex 37.5122 13.8815 14
      vertex 37.5122 13.8815 3
    endloop
  endfacet
  facet normal -0.866073 0.499918 0
    outer loop
      vertex 37.5122 13.8815 14
      vertex 37.2248 13.3836 3
      vertex 37.2248 13.3836 14
    endloop
  endfacet
  facet normal 0.587882 -0.808947 0
    outer loop
      vertex 33.1599 17.0436 3
      vertex 33.625 17.3816 14
      vertex 33.1599 17.0436 14
    endloop
  endfacet
  facet normal 0.587882 -0.808947 0
    outer loop
      vertex 33.625 17.3816 14
      vertex 33.1599 17.0436 3
      vertex 33.625 17.3816 3
    endloop
  endfacet
  facet normal -0.743104 0.669176 0
    outer loop
      vertex 36.8401 12.9564 3
      vertex 37.2248 13.3836 14
      vertex 37.2248 13.3836 3
    endloop
  endfacet
  facet normal -0.743104 0.669176 0
    outer loop
      vertex 37.2248 13.3836 14
      vertex 36.8401 12.9564 3
      vertex 36.8401 12.9564 14
    endloop
  endfacet
  facet normal -0.406687 0.913567 0
    outer loop
      vertex 36.375 12.6184 3
      vertex 35.8498 12.3846 14
      vertex 36.375 12.6184 14
    endloop
  endfacet
  facet normal -0.406687 0.913567 0
    outer loop
      vertex 35.8498 12.3846 14
      vertex 36.375 12.6184 3
      vertex 35.8498 12.3846 3
    endloop
  endfacet
  facet normal 0.866073 -0.499918 0
    outer loop
      vertex 32.4878 16.1185 14
      vertex 32.7752 16.6164 3
      vertex 32.7752 16.6164 14
    endloop
  endfacet
  facet normal 0.866073 -0.499918 0
    outer loop
      vertex 32.7752 16.6164 3
      vertex 32.4878 16.1185 14
      vertex 32.4878 16.1185 3
    endloop
  endfacet
  facet normal 0.207877 0.978155 -0
    outer loop
      vertex 34.7125 12.2651 3
      vertex 34.1502 12.3846 14
      vertex 34.7125 12.2651 14
    endloop
  endfacet
  facet normal 0.207877 0.978155 0
    outer loop
      vertex 34.1502 12.3846 14
      vertex 34.7125 12.2651 3
      vertex 34.1502 12.3846 3
    endloop
  endfacet
  facet normal -0.587882 -0.808947 0
    outer loop
      vertex 36.375 17.3816 3
      vertex 36.8401 17.0436 14
      vertex 36.375 17.3816 14
    endloop
  endfacet
  facet normal -0.587882 -0.808947 -0
    outer loop
      vertex 36.8401 17.0436 14
      vertex 36.375 17.3816 3
      vertex 36.8401 17.0436 3
    endloop
  endfacet
  facet normal -0.743104 -0.669176 0
    outer loop
      vertex 37.2248 16.6164 3
      vertex 36.8401 17.0436 14
      vertex 36.8401 17.0436 3
    endloop
  endfacet
  facet normal -0.743104 -0.669176 0
    outer loop
      vertex 36.8401 17.0436 14
      vertex 37.2248 16.6164 3
      vertex 37.2248 16.6164 14
    endloop
  endfacet
  facet normal -0.951023 0.309121 0
    outer loop
      vertex 37.5122 13.8815 3
      vertex 37.6899 14.4282 14
      vertex 37.6899 14.4282 3
    endloop
  endfacet
  facet normal -0.951023 0.309121 0
    outer loop
      vertex 37.6899 14.4282 14
      vertex 37.5122 13.8815 3
      vertex 37.5122 13.8815 14
    endloop
  endfacet
  facet normal 0 1 -0
    outer loop
      vertex 35.2875 12.2651 3
      vertex 34.7125 12.2651 14
      vertex 35.2875 12.2651 14
    endloop
  endfacet
  facet normal 0 1 0
    outer loop
      vertex 34.7125 12.2651 14
      vertex 35.2875 12.2651 3
      vertex 34.7125 12.2651 3
    endloop
  endfacet
  facet normal -0.866073 -0.499918 0
    outer loop
      vertex 37.5122 16.1185 3
      vertex 37.2248 16.6164 14
      vertex 37.2248 16.6164 3
    endloop
  endfacet
  facet normal -0.866073 -0.499918 0
    outer loop
      vertex 37.2248 16.6164 14
      vertex 37.5122 16.1185 3
      vertex 37.5122 16.1185 14
    endloop
  endfacet
  facet normal 0 0 -1
    outer loop
      vertex 109 -12.8038 0
      vertex 39.8907 13.9604 0
      vertex 40 15 0
    endloop
  endfacet
  facet normal 0 0 -1
    outer loop
      vertex 109 -12.8038 0
      vertex 39.5677 12.9663 0
      vertex 39.8907 13.9604 0
    endloop
  endfacet
  facet normal 0 0 -1
    outer loop
      vertex 102.146 -25.7063 0
      vertex 39.0451 12.0611 0
      vertex 39.5677 12.9663 0
    endloop
  endfacet
  facet normal 0 0 -1
    outer loop
      vertex 35.3772 3.69631 0
      vertex 39.0451 12.0611 0
      vertex 102.146 -25.7063 0
    endloop
  endfacet
  facet normal 0 0 -1
    outer loop
      vertex 39.0451 12.0611 0
      vertex 35.3772 3.69631 0
      vertex 38.3457 11.2843 0
    endloop
  endfacet
  facet normal 0 0 -1
    outer loop
      vertex 38.3457 11.2843 0
      vertex 35.3772 3.69631 0
      vertex 37.5 10.6699 0
    endloop
  endfacet
  facet normal 0 0 -1
    outer loop
      vertex 37.5 10.6699 0
      vertex 35.3772 3.69631 0
      vertex 36.5451 10.2447 0
    endloop
  endfacet
  facet normal 0 0 -1
    outer loop
      vertex 36.5451 10.2447 0
      vertex 35.3772 3.69631 0
      vertex 35.5226 10.0274 0
    endloop
  endfacet
  facet normal 0 0 -1
    outer loop
      vertex 35.3772 3.69631 0
      vertex 34.4774 10.0274 0
      vertex 35.5226 10.0274 0
    endloop
  endfacet
  facet normal 0 0 -1
    outer loop
      vertex 35.3772 3.69631 0
      vertex 33.4549 10.2447 0
      vertex 34.4774 10.0274 0
    endloop
  endfacet
  facet normal 0 0 -1
    outer loop
      vertex 35.3772 3.69631 0
      vertex 32.5 10.6699 0
      vertex 33.4549 10.2447 0
    endloop
  endfacet
  facet normal 0 0 -1
    outer loop
      vertex 35.3772 3.69631 0
      vertex 31.6543 11.2843 0
      vertex 32.5 10.6699 0
    endloop
  endfacet
  facet normal 0 0 -1
    outer loop
      vertex 35.3772 3.69631 0
      vertex 30.9549 12.0611 0
      vertex 31.6543 11.2843 0
    endloop
  endfacet
  facet normal 0 0 -1
    outer loop
      vertex 2.20906 0.0109558 0
      vertex 30.9549 12.0611 0
      vertex 35.3772 3.69631 0
    endloop
  endfacet
  facet normal -0 0 -1
    outer loop
      vertex 30.4323 12.9663 0
      vertex 1 3.73205 0
      vertex 30.1093 13.9604 0
    endloop
  endfacet
  facet normal 0 0 -1
    outer loop
      vertex 1 3.73205 0
      vertex 30.4323 12.9663 0
      vertex 2.20906 0.0109558 0
    endloop
  endfacet
  facet normal -0 0 -1
    outer loop
      vertex 30.9549 12.0611 0
      vertex 2.20906 0.0109558 0
      vertex 30.4323 12.9663 0
    endloop
  endfacet
  facet normal 0 0 -1
    outer loop
      vertex 111.869 -19.2475 0
      vertex 111.869 -16.7525 0
      vertex 112 -18 0
    endloop
  endfacet
  facet normal 0 0 -1
    outer loop
      vertex 111.481 -20.4404 0
      vertex 111.869 -16.7525 0
      vertex 111.869 -19.2475 0
    endloop
  endfacet
  facet normal 0 0 -1
    outer loop
      vertex 111.481 -20.4404 0
      vertex 111.481 -15.5596 0
      vertex 111.869 -16.7525 0
    endloop
  endfacet
  facet normal 0 0 -1
    outer loop
      vertex 110.854 -21.5267 0
      vertex 111.481 -15.5596 0
      vertex 111.481 -20.4404 0
    endloop
  endfacet
  facet normal 0 0 -1
    outer loop
      vertex 110.854 -21.5267 0
      vertex 110.854 -14.4733 0
      vertex 111.481 -15.5596 0
    endloop
  endfacet
  facet normal 0 0 -1
    outer loop
      vertex 110.015 -22.4589 0
      vertex 110.854 -14.4733 0
      vertex 110.854 -21.5267 0
    endloop
  endfacet
  facet normal 0 0 -1
    outer loop
      vertex 110.015 -22.4589 0
      vertex 110.015 -13.5411 0
      vertex 110.854 -14.4733 0
    endloop
  endfacet
  facet normal 0 0 -1
    outer loop
      vertex 110.015 -22.4589 0
      vertex 109 -12.8038 0
      vertex 110.015 -13.5411 0
    endloop
  endfacet
  facet normal 0 0 -1
    outer loop
      vertex 108.015 -24.4589 0
      vertex 109 -12.8038 0
      vertex 110.015 -22.4589 0
    endloop
  endfacet
  facet normal 0 0 -1
    outer loop
      vertex 102.146 -25.7063 0
      vertex 108.015 -24.4589 0
      vertex 107 -25.1962 0
    endloop
  endfacet
  facet normal 0 0 -1
    outer loop
      vertex 102.146 -25.7063 0
      vertex 107 -25.1962 0
      vertex 105.854 -25.7063 0
    endloop
  endfacet
  facet normal 0 0 -1
    outer loop
      vertex 102.146 -25.7063 0
      vertex 105.854 -25.7063 0
      vertex 104.627 -25.9671 0
    endloop
  endfacet
  facet normal 0 0 -1
    outer loop
      vertex 102.146 -25.7063 0
      vertex 104.627 -25.9671 0
      vertex 103.373 -25.9671 0
    endloop
  endfacet
  facet normal -0 0 -1
    outer loop
      vertex 108.015 -24.4589 0
      vertex 102.146 -25.7063 0
      vertex 109 -12.8038 0
    endloop
  endfacet
  facet normal 0 0 -1
    outer loop
      vertex 39.5677 12.9663 0
      vertex 109 -12.8038 0
      vertex 102.146 -25.7063 0
    endloop
  endfacet
  facet normal 0 0 -1
    outer loop
      vertex 39.8907 16.0396 0
      vertex 109 -12.8038 0
      vertex 40 15 0
    endloop
  endfacet
  facet normal 0 0 -1
    outer loop
      vertex 39 25.1962 0
      vertex 39.8907 16.0396 0
      vertex 39.5677 17.0337 0
    endloop
  endfacet
  facet normal 0 0 -1
    outer loop
      vertex 39 25.1962 0
      vertex 39.5677 17.0337 0
      vertex 39.0451 17.9389 0
    endloop
  endfacet
  facet normal 0 0 -1
    outer loop
      vertex 39.8907 16.0396 0
      vertex 39 25.1962 0
      vertex 109 -12.8038 0
    endloop
  endfacet
  facet normal 0 0 -1
    outer loop
      vertex 38.3457 18.7157 0
      vertex 39 25.1962 0
      vertex 39.0451 17.9389 0
    endloop
  endfacet
  facet normal 0 0 -1
    outer loop
      vertex 37.5 19.3301 0
      vertex 39 25.1962 0
      vertex 38.3457 18.7157 0
    endloop
  endfacet
  facet normal 0 0 -1
    outer loop
      vertex 36.5451 19.7553 0
      vertex 39 25.1962 0
      vertex 37.5 19.3301 0
    endloop
  endfacet
  facet normal -0 0 -1
    outer loop
      vertex 39 25.1962 0
      vertex 36.5451 19.7553 0
      vertex 37.8541 25.7063 0
    endloop
  endfacet
  facet normal 0 0 -1
    outer loop
      vertex 35.5226 19.9726 0
      vertex 37.8541 25.7063 0
      vertex 36.5451 19.7553 0
    endloop
  endfacet
  facet normal -0 0 -1
    outer loop
      vertex 37.8541 25.7063 0
      vertex 35.5226 19.9726 0
      vertex 36.6272 25.9671 0
    endloop
  endfacet
  facet normal 0 0 -1
    outer loop
      vertex 35.5226 19.9726 0
      vertex 35.3728 25.9671 0
      vertex 36.6272 25.9671 0
    endloop
  endfacet
  facet normal 0 0 -1
    outer loop
      vertex 34.1459 25.7063 0
      vertex 35.5226 19.9726 0
      vertex 34.4774 19.9726 0
    endloop
  endfacet
  facet normal 0 0 -1
    outer loop
      vertex 35.5226 19.9726 0
      vertex 34.1459 25.7063 0
      vertex 35.3728 25.9671 0
    endloop
  endfacet
  facet normal 0 0 -1
    outer loop
      vertex 33 25.1962 0
      vertex 34.4774 19.9726 0
      vertex 33.4549 19.7553 0
    endloop
  endfacet
  facet normal 0 0 -1
    outer loop
      vertex 34.4774 19.9726 0
      vertex 33 25.1962 0
      vertex 34.1459 25.7063 0
    endloop
  endfacet
  facet normal 0 0 -1
    outer loop
      vertex 32.5 19.3301 0
      vertex 33 25.1962 0
      vertex 33.4549 19.7553 0
    endloop
  endfacet
  facet normal 0 0 -1
    outer loop
      vertex 31.6543 18.7157 0
      vertex 33 25.1962 0
      vertex 32.5 19.3301 0
    endloop
  endfacet
  facet normal 0 0 -1
    outer loop
      vertex 30.9549 17.9389 0
      vertex 33 25.1962 0
      vertex 31.6543 18.7157 0
    endloop
  endfacet
  facet normal 0 0 -1
    outer loop
      vertex 30.4323 17.0337 0
      vertex 33 25.1962 0
      vertex 30.9549 17.9389 0
    endloop
  endfacet
  facet normal 0 0 -1
    outer loop
      vertex 1 3.73205 0
      vertex 30.4323 17.0337 0
      vertex 30.1093 16.0396 0
    endloop
  endfacet
  facet normal -0 0 -1
    outer loop
      vertex 30.1093 13.9604 0
      vertex 1 3.73205 0
      vertex 30 15 0
    endloop
  endfacet
  facet normal -0 0 -1
    outer loop
      vertex 30 15 0
      vertex 1 3.73205 0
      vertex 30.1093 16.0396 0
    endloop
  endfacet
  facet normal 0 0 -1
    outer loop
      vertex 1 3.73205 0
      vertex 2.20906 0.0109558 0
      vertex 1.79094 0.0109558 0
    endloop
  endfacet
  facet normal 0 0 -1
    outer loop
      vertex 1 3.73205 0
      vertex 1.79094 0.0109558 0
      vertex 1.38197 0.0978861 0
    endloop
  endfacet
  facet normal 0 0 -1
    outer loop
      vertex 1 3.73205 0
      vertex 1.38197 0.0978861 0
      vertex 1 0.267949 0
    endloop
  endfacet
  facet normal -0 0 -1
    outer loop
      vertex 30.4323 17.0337 0
      vertex 1 3.73205 0
      vertex 33 25.1962 0
    endloop
  endfacet
  facet normal 0 0 -1
    outer loop
      vertex 0.661738 0.51371 0
      vertex 1 3.73205 0
      vertex 1 0.267949 0
    endloop
  endfacet
  facet normal 0 0 -1
    outer loop
      vertex 0.661738 0.51371 0
      vertex 0.661738 3.48629 0
      vertex 1 3.73205 0
    endloop
  endfacet
  facet normal 0 0 -1
    outer loop
      vertex 0.381966 0.824429 0
      vertex 0.661738 3.48629 0
      vertex 0.661738 0.51371 0
    endloop
  endfacet
  facet normal 0 0 -1
    outer loop
      vertex 0.381966 0.824429 0
      vertex 0.381966 3.17557 0
      vertex 0.661738 3.48629 0
    endloop
  endfacet
  facet normal 0 0 -1
    outer loop
      vertex 0.172909 1.18653 0
      vertex 0.381966 3.17557 0
      vertex 0.381966 0.824429 0
    endloop
  endfacet
  facet normal 0 0 -1
    outer loop
      vertex 0.172909 1.18653 0
      vertex 0.172909 2.81347 0
      vertex 0.381966 3.17557 0
    endloop
  endfacet
  facet normal 0 0 -1
    outer loop
      vertex 0.043704 1.58418 0
      vertex 0.172909 2.81347 0
      vertex 0.172909 1.18653 0
    endloop
  endfacet
  facet normal 0 0 -1
    outer loop
      vertex 0.043704 1.58418 0
      vertex 0.043704 2.41582 0
      vertex 0.172909 2.81347 0
    endloop
  endfacet
  facet normal 0 -0 -1
    outer loop
      vertex 0.043704 2.41582 0
      vertex 0.043704 1.58418 0
      vertex 0 2 0
    endloop
  endfacet
  facet normal 0.587882 0.808947 -0
    outer loop
      vertex 33.625 12.6184 3
      vertex 33.1599 12.9564 14
      vertex 33.625 12.6184 14
    endloop
  endfacet
  facet normal 0.587882 0.808947 0
    outer loop
      vertex 33.1599 12.9564 14
      vertex 33.625 12.6184 3
      vertex 33.1599 12.9564 3
    endloop
  endfacet
  facet normal 0.406687 0.913567 -0
    outer loop
      vertex 34.1502 12.3846 3
      vertex 33.625 12.6184 14
      vertex 34.1502 12.3846 14
    endloop
  endfacet
  facet normal 0.406687 0.913567 0
    outer loop
      vertex 33.625 12.6184 14
      vertex 34.1502 12.3846 3
      vertex 33.625 12.6184 3
    endloop
  endfacet
  facet normal -0.207877 -0.978155 0
    outer loop
      vertex 35.2875 17.7349 3
      vertex 35.8498 17.6154 14
      vertex 35.2875 17.7349 14
    endloop
  endfacet
  facet normal -0.207877 -0.978155 -0
    outer loop
      vertex 35.8498 17.6154 14
      vertex 35.2875 17.7349 3
      vertex 35.8498 17.6154 3
    endloop
  endfacet
  facet normal 0.207876 0.978155 -0
    outer loop
      vertex 34.4774 10.0274 0
      vertex 33.4549 10.2447 3
      vertex 34.4774 10.0274 3
    endloop
  endfacet
  facet normal 0.207876 0.978155 0
    outer loop
      vertex 33.4549 10.2447 3
      vertex 34.4774 10.0274 0
      vertex 33.4549 10.2447 0
    endloop
  endfacet
  facet normal -0.207876 0.978155 0
    outer loop
      vertex 36.5451 10.2447 0
      vertex 35.5226 10.0274 3
      vertex 36.5451 10.2447 3
    endloop
  endfacet
  facet normal -0.207876 0.978155 0
    outer loop
      vertex 35.5226 10.0274 3
      vertex 36.5451 10.2447 0
      vertex 35.5226 10.0274 0
    endloop
  endfacet
  facet normal 0.951057 0.309015 0
    outer loop
      vertex 30.4323 12.9663 3
      vertex 30.1093 13.9604 0
      vertex 30.1093 13.9604 3
    endloop
  endfacet
  facet normal 0.951057 0.309015 0
    outer loop
      vertex 30.1093 13.9604 0
      vertex 30.4323 12.9663 3
      vertex 30.4323 12.9663 0
    endloop
  endfacet
  facet normal 0.406777 0.913527 -0
    outer loop
      vertex 33.4549 10.2447 0
      vertex 32.5 10.6699 3
      vertex 33.4549 10.2447 3
    endloop
  endfacet
  facet normal 0.406777 0.913527 0
    outer loop
      vertex 32.5 10.6699 3
      vertex 33.4549 10.2447 0
      vertex 32.5 10.6699 0
    endloop
  endfacet
  facet normal -0.994519 0.10456 0
    outer loop
      vertex 39.8907 13.9604 0
      vertex 40 15 3
      vertex 40 15 0
    endloop
  endfacet
  facet normal -0.994519 0.10456 0
    outer loop
      vertex 40 15 3
      vertex 39.8907 13.9604 0
      vertex 39.8907 13.9604 3
    endloop
  endfacet
  facet normal -0.866033 -0.499987 0
    outer loop
      vertex 39.5677 17.0337 0
      vertex 39.0451 17.9389 3
      vertex 39.0451 17.9389 0
    endloop
  endfacet
  facet normal -0.866033 -0.499987 0
    outer loop
      vertex 39.0451 17.9389 3
      vertex 39.5677 17.0337 0
      vertex 39.5677 17.0337 3
    endloop
  endfacet
  facet normal 0.743161 -0.669113 0
    outer loop
      vertex 30.9549 17.9389 3
      vertex 31.6543 18.7157 0
      vertex 31.6543 18.7157 3
    endloop
  endfacet
  facet normal 0.743161 -0.669113 0
    outer loop
      vertex 31.6543 18.7157 0
      vertex 30.9549 17.9389 3
      vertex 30.9549 17.9389 0
    endloop
  endfacet
  facet normal 0.994519 -0.10456 0
    outer loop
      vertex 30 15 3
      vertex 30.1093 16.0396 0
      vertex 30.1093 16.0396 3
    endloop
  endfacet
  facet normal 0.994519 -0.10456 0
    outer loop
      vertex 30.1093 16.0396 0
      vertex 30 15 3
      vertex 30 15 0
    endloop
  endfacet
  facet normal -0.994519 -0.10456 0
    outer loop
      vertex 40 15 0
      vertex 39.8907 16.0396 3
      vertex 39.8907 16.0396 0
    endloop
  endfacet
  facet normal -0.994519 -0.10456 0
    outer loop
      vertex 39.8907 16.0396 3
      vertex 40 15 0
      vertex 40 15 3
    endloop
  endfacet
  facet normal 0.866033 0.499987 0
    outer loop
      vertex 30.9549 12.0611 3
      vertex 30.4323 12.9663 0
      vertex 30.4323 12.9663 3
    endloop
  endfacet
  facet normal 0.866033 0.499987 0
    outer loop
      vertex 30.4323 12.9663 0
      vertex 30.9549 12.0611 3
      vertex 30.9549 12.0611 0
    endloop
  endfacet
  facet normal 0 -1 0
    outer loop
      vertex 34.4774 19.9726 0
      vertex 35.5226 19.9726 3
      vertex 34.4774 19.9726 3
    endloop
  endfacet
  facet normal 0 -1 -0
    outer loop
      vertex 35.5226 19.9726 3
      vertex 34.4774 19.9726 0
      vertex 35.5226 19.9726 0
    endloop
  endfacet
  facet normal 0 1 -0
    outer loop
      vertex 35.5226 10.0274 0
      vertex 34.4774 10.0274 3
      vertex 35.5226 10.0274 3
    endloop
  endfacet
  facet normal 0 1 0
    outer loop
      vertex 34.4774 10.0274 3
      vertex 35.5226 10.0274 0
      vertex 34.4774 10.0274 0
    endloop
  endfacet
  facet normal 0 0 -1
    outer loop
      vertex 37.75 15 3
      vertex 40 15 3
      vertex 39.8907 13.9604 3
    endloop
  endfacet
  facet normal 0 0 -1
    outer loop
      vertex 37.6899 14.4282 3
      vertex 39.8907 13.9604 3
      vertex 39.5677 12.9663 3
    endloop
  endfacet
  facet normal 0 0 -1
    outer loop
      vertex 40 15 3
      vertex 37.75 15 3
      vertex 39.8907 16.0396 3
    endloop
  endfacet
  facet normal 0 0 -1
    outer loop
      vertex 37.5122 13.8815 3
      vertex 39.5677 12.9663 3
      vertex 39.0451 12.0611 3
    endloop
  endfacet
  facet normal 0 0 -1
    outer loop
      vertex 37.6899 15.5718 3
      vertex 39.8907 16.0396 3
      vertex 37.75 15 3
    endloop
  endfacet
  facet normal 0 0 -1
    outer loop
      vertex 37.2248 13.3836 3
      vertex 39.0451 12.0611 3
      vertex 38.3457 11.2843 3
    endloop
  endfacet
  facet normal -0 0 -1
    outer loop
      vertex 39.8907 16.0396 3
      vertex 37.6899 15.5718 3
      vertex 39.5677 17.0337 3
    endloop
  endfacet
  facet normal 0 0 -1
    outer loop
      vertex 37.5122 16.1185 3
      vertex 39.5677 17.0337 3
      vertex 37.6899 15.5718 3
    endloop
  endfacet
  facet normal 0 0 -1
    outer loop
      vertex 39.8907 13.9604 3
      vertex 37.6899 14.4282 3
      vertex 37.75 15 3
    endloop
  endfacet
  facet normal 0 0 -1
    outer loop
      vertex 39.5677 12.9663 3
      vertex 37.5122 13.8815 3
      vertex 37.6899 14.4282 3
    endloop
  endfacet
  facet normal 0 0 -1
    outer loop
      vertex 36.8401 12.9564 3
      vertex 38.3457 11.2843 3
      vertex 37.5 10.6699 3
    endloop
  endfacet
  facet normal 0 0 -1
    outer loop
      vertex 39.0451 12.0611 3
      vertex 37.2248 13.3836 3
      vertex 37.5122 13.8815 3
    endloop
  endfacet
  facet normal 0 0 -1
    outer loop
      vertex 38.3457 11.2843 3
      vertex 36.8401 12.9564 3
      vertex 37.2248 13.3836 3
    endloop
  endfacet
  facet normal 0 0 -1
    outer loop
      vertex 36.375 12.6184 3
      vertex 37.5 10.6699 3
      vertex 36.5451 10.2447 3
    endloop
  endfacet
  facet normal 0 0 -1
    outer loop
      vertex 37.5 10.6699 3
      vertex 36.375 12.6184 3
      vertex 36.8401 12.9564 3
    endloop
  endfacet
  facet normal 0 0 -1
    outer loop
      vertex 36.5451 10.2447 3
      vertex 35.8498 12.3846 3
      vertex 36.375 12.6184 3
    endloop
  endfacet
  facet normal 0 0 -1
    outer loop
      vertex 35.5226 10.0274 3
      vertex 35.8498 12.3846 3
      vertex 36.5451 10.2447 3
    endloop
  endfacet
  facet normal 0 0 -1
    outer loop
      vertex 35.5226 10.0274 3
      vertex 35.2875 12.2651 3
      vertex 35.8498 12.3846 3
    endloop
  endfacet
  facet normal 0 0 -1
    outer loop
      vertex 35.5226 10.0274 3
      vertex 34.7125 12.2651 3
      vertex 35.2875 12.2651 3
    endloop
  endfacet
  facet normal 0 0 -1
    outer loop
      vertex 34.4774 10.0274 3
      vertex 34.7125 12.2651 3
      vertex 35.5226 10.0274 3
    endloop
  endfacet
  facet normal 0 0 -1
    outer loop
      vertex 34.4774 10.0274 3
      vertex 34.1502 12.3846 3
      vertex 34.7125 12.2651 3
    endloop
  endfacet
  facet normal 0 0 -1
    outer loop
      vertex 33.4549 10.2447 3
      vertex 34.1502 12.3846 3
      vertex 34.4774 10.0274 3
    endloop
  endfacet
  facet normal -0 0 -1
    outer loop
      vertex 34.1502 12.3846 3
      vertex 33.4549 10.2447 3
      vertex 33.625 12.6184 3
    endloop
  endfacet
  facet normal 0 0 -1
    outer loop
      vertex 32.5 10.6699 3
      vertex 33.625 12.6184 3
      vertex 33.4549 10.2447 3
    endloop
  endfacet
  facet normal -0 0 -1
    outer loop
      vertex 33.625 12.6184 3
      vertex 32.5 10.6699 3
      vertex 33.1599 12.9564 3
    endloop
  endfacet
  facet normal 0 0 -1
    outer loop
      vertex 31.6543 11.2843 3
      vertex 33.1599 12.9564 3
      vertex 32.5 10.6699 3
    endloop
  endfacet
  facet normal -0 0 -1
    outer loop
      vertex 33.1599 12.9564 3
      vertex 31.6543 11.2843 3
      vertex 32.7752 13.3836 3
    endloop
  endfacet
  facet normal 0 0 -1
    outer loop
      vertex 30.9549 12.0611 3
      vertex 32.7752 13.3836 3
      vertex 31.6543 11.2843 3
    endloop
  endfacet
  facet normal -0 0 -1
    outer loop
      vertex 32.7752 13.3836 3
      vertex 30.9549 12.0611 3
      vertex 32.4878 13.8815 3
    endloop
  endfacet
  facet normal 0 0 -1
    outer loop
      vertex 30.4323 12.9663 3
      vertex 32.4878 13.8815 3
      vertex 30.9549 12.0611 3
    endloop
  endfacet
  facet normal -0 0 -1
    outer loop
      vertex 39.5677 17.0337 3
      vertex 37.5122 16.1185 3
      vertex 39.0451 17.9389 3
    endloop
  endfacet
  facet normal 0 0 -1
    outer loop
      vertex 37.2248 16.6164 3
      vertex 39.0451 17.9389 3
      vertex 37.5122 16.1185 3
    endloop
  endfacet
  facet normal -0 0 -1
    outer loop
      vertex 39.0451 17.9389 3
      vertex 37.2248 16.6164 3
      vertex 38.3457 18.7157 3
    endloop
  endfacet
  facet normal 0 0 -1
    outer loop
      vertex 36.8401 17.0436 3
      vertex 38.3457 18.7157 3
      vertex 37.2248 16.6164 3
    endloop
  endfacet
  facet normal -0 0 -1
    outer loop
      vertex 38.3457 18.7157 3
      vertex 36.8401 17.0436 3
      vertex 37.5 19.3301 3
    endloop
  endfacet
  facet normal 0 0 -1
    outer loop
      vertex 36.375 17.3816 3
      vertex 37.5 19.3301 3
      vertex 36.8401 17.0436 3
    endloop
  endfacet
  facet normal -0 0 -1
    outer loop
      vertex 37.5 19.3301 3
      vertex 36.375 17.3816 3
      vertex 36.5451 19.7553 3
    endloop
  endfacet
  facet normal 0 0 -1
    outer loop
      vertex 35.8498 17.6154 3
      vertex 36.5451 19.7553 3
      vertex 36.375 17.3816 3
    endloop
  endfacet
  facet normal 0 0 -1
    outer loop
      vertex 35.8498 17.6154 3
      vertex 35.5226 19.9726 3
      vertex 36.5451 19.7553 3
    endloop
  endfacet
  facet normal 0 0 -1
    outer loop
      vertex 35.2875 17.7349 3
      vertex 35.5226 19.9726 3
      vertex 35.8498 17.6154 3
    endloop
  endfacet
  facet normal 0 0 -1
    outer loop
      vertex 34.7125 17.7349 3
      vertex 35.5226 19.9726 3
      vertex 35.2875 17.7349 3
    endloop
  endfacet
  facet normal 0 0 -1
    outer loop
      vertex 34.7125 17.7349 3
      vertex 34.4774 19.9726 3
      vertex 35.5226 19.9726 3
    endloop
  endfacet
  facet normal 0 0 -1
    outer loop
      vertex 34.1502 17.6154 3
      vertex 34.4774 19.9726 3
      vertex 34.7125 17.7349 3
    endloop
  endfacet
  facet normal 0 0 -1
    outer loop
      vertex 33.4549 19.7553 3
      vertex 34.1502 17.6154 3
      vertex 33.625 17.3816 3
    endloop
  endfacet
  facet normal 0 0 -1
    outer loop
      vertex 34.1502 17.6154 3
      vertex 33.4549 19.7553 3
      vertex 34.4774 19.9726 3
    endloop
  endfacet
  facet normal 0 0 -1
    outer loop
      vertex 32.5 19.3301 3
      vertex 33.625 17.3816 3
      vertex 33.1599 17.0436 3
    endloop
  endfacet
  facet normal 0 0 -1
    outer loop
      vertex 31.6543 18.7157 3
      vertex 33.1599 17.0436 3
      vertex 32.7752 16.6164 3
    endloop
  endfacet
  facet normal 0 0 -1
    outer loop
      vertex 33.625 17.3816 3
      vertex 32.5 19.3301 3
      vertex 33.4549 19.7553 3
    endloop
  endfacet
  facet normal 0 0 -1
    outer loop
      vertex 30.9549 17.9389 3
      vertex 32.7752 16.6164 3
      vertex 32.4878 16.1185 3
    endloop
  endfacet
  facet normal 0 0 -1
    outer loop
      vertex 30.4323 17.0337 3
      vertex 32.4878 16.1185 3
      vertex 32.3101 15.5718 3
    endloop
  endfacet
  facet normal 0 0 -1
    outer loop
      vertex 30.1093 16.0396 3
      vertex 32.3101 15.5718 3
      vertex 32.25 15 3
    endloop
  endfacet
  facet normal -0 0 -1
    outer loop
      vertex 32.4878 13.8815 3
      vertex 30.4323 12.9663 3
      vertex 32.3101 14.4282 3
    endloop
  endfacet
  facet normal 0 0 -1
    outer loop
      vertex 33.1599 17.0436 3
      vertex 31.6543 18.7157 3
      vertex 32.5 19.3301 3
    endloop
  endfacet
  facet normal 0 0 -1
    outer loop
      vertex 30.1093 13.9604 3
      vertex 32.3101 14.4282 3
      vertex 30.4323 12.9663 3
    endloop
  endfacet
  facet normal 0 0 -1
    outer loop
      vertex 32.7752 16.6164 3
      vertex 30.9549 17.9389 3
      vertex 31.6543 18.7157 3
    endloop
  endfacet
  facet normal -0 0 -1
    outer loop
      vertex 32.3101 14.4282 3
      vertex 30.1093 13.9604 3
      vertex 32.25 15 3
    endloop
  endfacet
  facet normal 0 0 -1
    outer loop
      vertex 32.4878 16.1185 3
      vertex 30.4323 17.0337 3
      vertex 30.9549 17.9389 3
    endloop
  endfacet
  facet normal 0 0 -1
    outer loop
      vertex 30 15 3
      vertex 32.25 15 3
      vertex 30.1093 13.9604 3
    endloop
  endfacet
  facet normal 0 0 -1
    outer loop
      vertex 32.3101 15.5718 3
      vertex 30.1093 16.0396 3
      vertex 30.4323 17.0337 3
    endloop
  endfacet
  facet normal 0 0 -1
    outer loop
      vertex 32.25 15 3
      vertex 30 15 3
      vertex 30.1093 16.0396 3
    endloop
  endfacet
  facet normal -0.951057 -0.309015 0
    outer loop
      vertex 39.8907 16.0396 0
      vertex 39.5677 17.0337 3
      vertex 39.5677 17.0337 0
    endloop
  endfacet
  facet normal -0.951057 -0.309015 0
    outer loop
      vertex 39.5677 17.0337 3
      vertex 39.8907 16.0396 0
      vertex 39.8907 16.0396 3
    endloop
  endfacet
  facet normal -0.743161 0.669113 0
    outer loop
      vertex 38.3457 11.2843 0
      vertex 39.0451 12.0611 3
      vertex 39.0451 12.0611 0
    endloop
  endfacet
  facet normal -0.743161 0.669113 0
    outer loop
      vertex 39.0451 12.0611 3
      vertex 38.3457 11.2843 0
      vertex 38.3457 11.2843 3
    endloop
  endfacet
  facet normal 0.743161 0.669113 0
    outer loop
      vertex 31.6543 11.2843 3
      vertex 30.9549 12.0611 0
      vertex 30.9549 12.0611 3
    endloop
  endfacet
  facet normal 0.743161 0.669113 0
    outer loop
      vertex 30.9549 12.0611 0
      vertex 31.6543 11.2843 3
      vertex 31.6543 11.2843 0
    endloop
  endfacet
  facet normal -0.406777 0.913527 0
    outer loop
      vertex 37.5 10.6699 0
      vertex 36.5451 10.2447 3
      vertex 37.5 10.6699 3
    endloop
  endfacet
  facet normal -0.406777 0.913527 0
    outer loop
      vertex 36.5451 10.2447 3
      vertex 37.5 10.6699 0
      vertex 36.5451 10.2447 0
    endloop
  endfacet
  facet normal -0.406777 -0.913527 0
    outer loop
      vertex 36.5451 19.7553 0
      vertex 37.5 19.3301 3
      vertex 36.5451 19.7553 3
    endloop
  endfacet
  facet normal -0.406777 -0.913527 -0
    outer loop
      vertex 37.5 19.3301 3
      vertex 36.5451 19.7553 0
      vertex 37.5 19.3301 0
    endloop
  endfacet
  facet normal 0.207876 -0.978155 0
    outer loop
      vertex 33.4549 19.7553 0
      vertex 34.4774 19.9726 3
      vertex 33.4549 19.7553 3
    endloop
  endfacet
  facet normal 0.207876 -0.978155 0
    outer loop
      vertex 34.4774 19.9726 3
      vertex 33.4549 19.7553 0
      vertex 34.4774 19.9726 0
    endloop
  endfacet
  facet normal 0.951057 -0.309015 0
    outer loop
      vertex 30.1093 16.0396 3
      vertex 30.4323 17.0337 0
      vertex 30.4323 17.0337 3
    endloop
  endfacet
  facet normal 0.951057 -0.309015 0
    outer loop
      vertex 30.4323 17.0337 0
      vertex 30.1093 16.0396 3
      vertex 30.1093 16.0396 0
    endloop
  endfacet
  facet normal 0.587762 0.809034 -0
    outer loop
      vertex 32.5 10.6699 0
      vertex 31.6543 11.2843 3
      vertex 32.5 10.6699 3
    endloop
  endfacet
  facet normal 0.587762 0.809034 0
    outer loop
      vertex 31.6543 11.2843 3
      vertex 32.5 10.6699 0
      vertex 31.6543 11.2843 0
    endloop
  endfacet
  facet normal -0.587762 -0.809034 0
    outer loop
      vertex 37.5 19.3301 0
      vertex 38.3457 18.7157 3
      vertex 37.5 19.3301 3
    endloop
  endfacet
  facet normal -0.587762 -0.809034 -0
    outer loop
      vertex 38.3457 18.7157 3
      vertex 37.5 19.3301 0
      vertex 38.3457 18.7157 0
    endloop
  endfacet
  facet normal -0.743161 -0.669113 0
    outer loop
      vertex 39.0451 17.9389 0
      vertex 38.3457 18.7157 3
      vertex 38.3457 18.7157 0
    endloop
  endfacet
  facet normal -0.743161 -0.669113 0
    outer loop
      vertex 38.3457 18.7157 3
      vertex 39.0451 17.9389 0
      vertex 39.0451 17.9389 3
    endloop
  endfacet
  facet normal 0.587762 -0.809034 0
    outer loop
      vertex 31.6543 18.7157 0
      vertex 32.5 19.3301 3
      vertex 31.6543 18.7157 3
    endloop
  endfacet
  facet normal 0.587762 -0.809034 0
    outer loop
      vertex 32.5 19.3301 3
      vertex 31.6543 18.7157 0
      vertex 32.5 19.3301 0
    endloop
  endfacet
  facet normal 0.994519 0.10456 0
    outer loop
      vertex 30.1093 13.9604 3
      vertex 30 15 0
      vertex 30 15 3
    endloop
  endfacet
  facet normal 0.994519 0.10456 0
    outer loop
      vertex 30 15 0
      vertex 30.1093 13.9604 3
      vertex 30.1093 13.9604 0
    endloop
  endfacet
  facet normal 0.406777 -0.913527 0
    outer loop
      vertex 32.5 19.3301 0
      vertex 33.4549 19.7553 3
      vertex 32.5 19.3301 3
    endloop
  endfacet
  facet normal 0.406777 -0.913527 0
    outer loop
      vertex 33.4549 19.7553 3
      vertex 32.5 19.3301 0
      vertex 33.4549 19.7553 0
    endloop
  endfacet
  facet normal -0.207876 -0.978155 0
    outer loop
      vertex 35.5226 19.9726 0
      vertex 36.5451 19.7553 3
      vertex 35.5226 19.9726 3
    endloop
  endfacet
  facet normal -0.207876 -0.978155 -0
    outer loop
      vertex 36.5451 19.7553 3
      vertex 35.5226 19.9726 0
      vertex 36.5451 19.7553 0
    endloop
  endfacet
  facet normal -0.951057 0.309015 0
    outer loop
      vertex 39.5677 12.9663 0
      vertex 39.8907 13.9604 3
      vertex 39.8907 13.9604 0
    endloop
  endfacet
  facet normal -0.951057 0.309015 0
    outer loop
      vertex 39.8907 13.9604 3
      vertex 39.5677 12.9663 0
      vertex 39.5677 12.9663 3
    endloop
  endfacet
  facet normal -0.866033 0.499987 0
    outer loop
      vertex 39.0451 12.0611 0
      vertex 39.5677 12.9663 3
      vertex 39.5677 12.9663 0
    endloop
  endfacet
  facet normal -0.866033 0.499987 0
    outer loop
      vertex 39.5677 12.9663 3
      vertex 39.0451 12.0611 0
      vertex 39.0451 12.0611 3
    endloop
  endfacet
  facet normal -0.587762 0.809034 0
    outer loop
      vertex 38.3457 11.2843 0
      vertex 37.5 10.6699 3
      vertex 38.3457 11.2843 3
    endloop
  endfacet
  facet normal -0.587762 0.809034 0
    outer loop
      vertex 37.5 10.6699 3
      vertex 38.3457 11.2843 0
      vertex 37.5 10.6699 0
    endloop
  endfacet
  facet normal 0.866033 -0.499987 0
    outer loop
      vertex 30.4323 17.0337 3
      vertex 30.9549 17.9389 0
      vertex 30.9549 17.9389 3
    endloop
  endfacet
  facet normal 0.866033 -0.499987 0
    outer loop
      vertex 30.9549 17.9389 0
      vertex 30.4323 17.0337 3
      vertex 30.4323 17.0337 0
    endloop
  endfacet
  facet normal 0.207876 0.978155 -0
    outer loop
      vertex 34.4774 10.0274 14
      vertex 33.4549 10.2447 17
      vertex 34.4774 10.0274 17
    endloop
  endfacet
  facet normal 0.207876 0.978155 0
    outer loop
      vertex 33.4549 10.2447 17
      vertex 34.4774 10.0274 14
      vertex 33.4549 10.2447 14
    endloop
  endfacet
  facet normal -0.207876 0.978155 0
    outer loop
      vertex 36.5451 10.2447 14
      vertex 35.5226 10.0274 17
      vertex 36.5451 10.2447 17
    endloop
  endfacet
  facet normal -0.207876 0.978155 0
    outer loop
      vertex 35.5226 10.0274 17
      vertex 36.5451 10.2447 14
      vertex 35.5226 10.0274 14
    endloop
  endfacet
  facet normal 0.951057 0.309015 0
    outer loop
      vertex 30.4323 12.9663 17
      vertex 30.1093 13.9604 14
      vertex 30.1093 13.9604 17
    endloop
  endfacet
  facet normal 0.951057 0.309015 0
    outer loop
      vertex 30.1093 13.9604 14
      vertex 30.4323 12.9663 17
      vertex 30.4323 12.9663 14
    endloop
  endfacet
  facet normal -0.994519 0.10456 0
    outer loop
      vertex 39.8907 13.9604 14
      vertex 40 15 17
      vertex 40 15 14
    endloop
  endfacet
  facet normal -0.994519 0.10456 0
    outer loop
      vertex 40 15 17
      vertex 39.8907 13.9604 14
      vertex 39.8907 13.9604 17
    endloop
  endfacet
  facet normal 0 0 1
    outer loop
      vertex 37.75 15 14
      vertex 40 15 14
      vertex 39.8907 16.0396 14
    endloop
  endfacet
  facet normal 0 0 1
    outer loop
      vertex 37.6899 15.5718 14
      vertex 39.8907 16.0396 14
      vertex 39.5677 17.0337 14
    endloop
  endfacet
  facet normal 0 0 1
    outer loop
      vertex 40 15 14
      vertex 37.75 15 14
      vertex 39.8907 13.9604 14
    endloop
  endfacet
  facet normal 0 0 1
    outer loop
      vertex 37.5122 16.1185 14
      vertex 39.5677 17.0337 14
      vertex 39.0451 17.9389 14
    endloop
  endfacet
  facet normal -0 0 1
    outer loop
      vertex 37.6899 14.4282 14
      vertex 39.8907 13.9604 14
      vertex 37.75 15 14
    endloop
  endfacet
  facet normal 0 0 1
    outer loop
      vertex 37.2248 16.6164 14
      vertex 39.0451 17.9389 14
      vertex 38.3457 18.7157 14
    endloop
  endfacet
  facet normal 0 0 1
    outer loop
      vertex 39.8907 13.9604 14
      vertex 37.6899 14.4282 14
      vertex 39.5677 12.9663 14
    endloop
  endfacet
  facet normal -0 0 1
    outer loop
      vertex 37.5122 13.8815 14
      vertex 39.5677 12.9663 14
      vertex 37.6899 14.4282 14
    endloop
  endfacet
  facet normal 0 0 1
    outer loop
      vertex 39.8907 16.0396 14
      vertex 37.6899 15.5718 14
      vertex 37.75 15 14
    endloop
  endfacet
  facet normal 0 0 1
    outer loop
      vertex 39.5677 17.0337 14
      vertex 37.5122 16.1185 14
      vertex 37.6899 15.5718 14
    endloop
  endfacet
  facet normal 0 0 1
    outer loop
      vertex 36.8401 17.0436 14
      vertex 38.3457 18.7157 14
      vertex 37.5 19.3301 14
    endloop
  endfacet
  facet normal 0 0 1
    outer loop
      vertex 39.0451 17.9389 14
      vertex 37.2248 16.6164 14
      vertex 37.5122 16.1185 14
    endloop
  endfacet
  facet normal 0 0 1
    outer loop
      vertex 38.3457 18.7157 14
      vertex 36.8401 17.0436 14
      vertex 37.2248 16.6164 14
    endloop
  endfacet
  facet normal 0 0 1
    outer loop
      vertex 36.375 17.3816 14
      vertex 37.5 19.3301 14
      vertex 36.5451 19.7553 14
    endloop
  endfacet
  facet normal 0 0 1
    outer loop
      vertex 37.5 19.3301 14
      vertex 36.375 17.3816 14
      vertex 36.8401 17.0436 14
    endloop
  endfacet
  facet normal 0 0 1
    outer loop
      vertex 36.5451 19.7553 14
      vertex 35.8498 17.6154 14
      vertex 36.375 17.3816 14
    endloop
  endfacet
  facet normal 0 0 1
    outer loop
      vertex 35.5226 19.9726 14
      vertex 35.8498 17.6154 14
      vertex 36.5451 19.7553 14
    endloop
  endfacet
  facet normal 0 0 1
    outer loop
      vertex 35.5226 19.9726 14
      vertex 35.2875 17.7349 14
      vertex 35.8498 17.6154 14
    endloop
  endfacet
  facet normal 0 0 1
    outer loop
      vertex 35.5226 19.9726 14
      vertex 34.7125 17.7349 14
      vertex 35.2875 17.7349 14
    endloop
  endfacet
  facet normal -0 0 1
    outer loop
      vertex 34.4774 19.9726 14
      vertex 34.7125 17.7349 14
      vertex 35.5226 19.9726 14
    endloop
  endfacet
  facet normal 0 0 1
    outer loop
      vertex 34.4774 19.9726 14
      vertex 34.1502 17.6154 14
      vertex 34.7125 17.7349 14
    endloop
  endfacet
  facet normal -0 0 1
    outer loop
      vertex 33.4549 19.7553 14
      vertex 34.1502 17.6154 14
      vertex 34.4774 19.9726 14
    endloop
  endfacet
  facet normal 0 0 1
    outer loop
      vertex 34.1502 17.6154 14
      vertex 33.4549 19.7553 14
      vertex 33.625 17.3816 14
    endloop
  endfacet
  facet normal -0 0 1
    outer loop
      vertex 32.5 19.3301 14
      vertex 33.625 17.3816 14
      vertex 33.4549 19.7553 14
    endloop
  endfacet
  facet normal 0 0 1
    outer loop
      vertex 33.625 17.3816 14
      vertex 32.5 19.3301 14
      vertex 33.1599 17.0436 14
    endloop
  endfacet
  facet normal -0 0 1
    outer loop
      vertex 31.6543 18.7157 14
      vertex 33.1599 17.0436 14
      vertex 32.5 19.3301 14
    endloop
  endfacet
  facet normal 0 0 1
    outer loop
      vertex 33.1599 17.0436 14
      vertex 31.6543 18.7157 14
      vertex 32.7752 16.6164 14
    endloop
  endfacet
  facet normal -0 0 1
    outer loop
      vertex 30.9549 17.9389 14
      vertex 32.7752 16.6164 14
      vertex 31.6543 18.7157 14
    endloop
  endfacet
  facet normal 0 0 1
    outer loop
      vertex 32.7752 16.6164 14
      vertex 30.9549 17.9389 14
      vertex 32.4878 16.1185 14
    endloop
  endfacet
  facet normal -0 0 1
    outer loop
      vertex 30.4323 17.0337 14
      vertex 32.4878 16.1185 14
      vertex 30.9549 17.9389 14
    endloop
  endfacet
  facet normal 0 0 1
    outer loop
      vertex 39.5677 12.9663 14
      vertex 37.5122 13.8815 14
      vertex 39.0451 12.0611 14
    endloop
  endfacet
  facet normal -0 0 1
    outer loop
      vertex 37.2248 13.3836 14
      vertex 39.0451 12.0611 14
      vertex 37.5122 13.8815 14
    endloop
  endfacet
  facet normal 0 0 1
    outer loop
      vertex 39.0451 12.0611 14
      vertex 37.2248 13.3836 14
      vertex 38.3457 11.2843 14
    endloop
  endfacet
  facet normal -0 0 1
    outer loop
      vertex 36.8401 12.9564 14
      vertex 38.3457 11.2843 14
      vertex 37.2248 13.3836 14
    endloop
  endfacet
  facet normal 0 0 1
    outer loop
      vertex 38.3457 11.2843 14
      vertex 36.8401 12.9564 14
      vertex 37.5 10.6699 14
    endloop
  endfacet
  facet normal -0 0 1
    outer loop
      vertex 36.375 12.6184 14
      vertex 37.5 10.6699 14
      vertex 36.8401 12.9564 14
    endloop
  endfacet
  facet normal 0 0 1
    outer loop
      vertex 37.5 10.6699 14
      vertex 36.375 12.6184 14
      vertex 36.5451 10.2447 14
    endloop
  endfacet
  facet normal -0 0 1
    outer loop
      vertex 35.8498 12.3846 14
      vertex 36.5451 10.2447 14
      vertex 36.375 12.6184 14
    endloop
  endfacet
  facet normal 0 0 1
    outer loop
      vertex 35.8498 12.3846 14
      vertex 35.5226 10.0274 14
      vertex 36.5451 10.2447 14
    endloop
  endfacet
  facet normal -0 0 1
    outer loop
      vertex 35.2875 12.2651 14
      vertex 35.5226 10.0274 14
      vertex 35.8498 12.3846 14
    endloop
  endfacet
  facet normal -0 0 1
    outer loop
      vertex 34.7125 12.2651 14
      vertex 35.5226 10.0274 14
      vertex 35.2875 12.2651 14
    endloop
  endfacet
  facet normal 0 0 1
    outer loop
      vertex 34.7125 12.2651 14
      vertex 34.4774 10.0274 14
      vertex 35.5226 10.0274 14
    endloop
  endfacet
  facet normal 0 0 1
    outer loop
      vertex 34.1502 12.3846 14
      vertex 34.4774 10.0274 14
      vertex 34.7125 12.2651 14
    endloop
  endfacet
  facet normal 0 0 1
    outer loop
      vertex 33.4549 10.2447 14
      vertex 34.1502 12.3846 14
      vertex 33.625 12.6184 14
    endloop
  endfacet
  facet normal 0 0 1
    outer loop
      vertex 34.1502 12.3846 14
      vertex 33.4549 10.2447 14
      vertex 34.4774 10.0274 14
    endloop
  endfacet
  facet normal 0 0 1
    outer loop
      vertex 32.5 10.6699 14
      vertex 33.625 12.6184 14
      vertex 33.1599 12.9564 14
    endloop
  endfacet
  facet normal 0 0 1
    outer loop
      vertex 31.6543 11.2843 14
      vertex 33.1599 12.9564 14
      vertex 32.7752 13.3836 14
    endloop
  endfacet
  facet normal 0 0 1
    outer loop
      vertex 33.625 12.6184 14
      vertex 32.5 10.6699 14
      vertex 33.4549 10.2447 14
    endloop
  endfacet
  facet normal 0 0 1
    outer loop
      vertex 30.9549 12.0611 14
      vertex 32.7752 13.3836 14
      vertex 32.4878 13.8815 14
    endloop
  endfacet
  facet normal 0 0 1
    outer loop
      vertex 30.4323 12.9663 14
      vertex 32.4878 13.8815 14
      vertex 32.3101 14.4282 14
    endloop
  endfacet
  facet normal 0 0 1
    outer loop
      vertex 30.1093 13.9604 14
      vertex 32.3101 14.4282 14
      vertex 32.25 15 14
    endloop
  endfacet
  facet normal 0 0 1
    outer loop
      vertex 32.4878 16.1185 14
      vertex 30.4323 17.0337 14
      vertex 32.3101 15.5718 14
    endloop
  endfacet
  facet normal 0 0 1
    outer loop
      vertex 33.1599 12.9564 14
      vertex 31.6543 11.2843 14
      vertex 32.5 10.6699 14
    endloop
  endfacet
  facet normal -0 0 1
    outer loop
      vertex 30.1093 16.0396 14
      vertex 32.3101 15.5718 14
      vertex 30.4323 17.0337 14
    endloop
  endfacet
  facet normal 0 0 1
    outer loop
      vertex 32.7752 13.3836 14
      vertex 30.9549 12.0611 14
      vertex 31.6543 11.2843 14
    endloop
  endfacet
  facet normal 0 0 1
    outer loop
      vertex 32.3101 15.5718 14
      vertex 30.1093 16.0396 14
      vertex 32.25 15 14
    endloop
  endfacet
  facet normal 0 0 1
    outer loop
      vertex 32.4878 13.8815 14
      vertex 30.4323 12.9663 14
      vertex 30.9549 12.0611 14
    endloop
  endfacet
  facet normal 0 0 1
    outer loop
      vertex 30 15 14
      vertex 32.25 15 14
      vertex 30.1093 16.0396 14
    endloop
  endfacet
  facet normal 0 0 1
    outer loop
      vertex 32.3101 14.4282 14
      vertex 30.1093 13.9604 14
      vertex 30.4323 12.9663 14
    endloop
  endfacet
  facet normal 0 0 1
    outer loop
      vertex 32.25 15 14
      vertex 30 15 14
      vertex 30.1093 13.9604 14
    endloop
  endfacet
  facet normal -0.866033 -0.499987 0
    outer loop
      vertex 39.5677 17.0337 14
      vertex 39.0451 17.9389 17
      vertex 39.0451 17.9389 14
    endloop
  endfacet
  facet normal -0.866033 -0.499987 0
    outer loop
      vertex 39.0451 17.9389 17
      vertex 39.5677 17.0337 14
      vertex 39.5677 17.0337 17
    endloop
  endfacet
  facet normal 0.743161 -0.669113 0
    outer loop
      vertex 30.9549 17.9389 17
      vertex 31.6543 18.7157 14
      vertex 31.6543 18.7157 17
    endloop
  endfacet
  facet normal 0.743161 -0.669113 0
    outer loop
      vertex 31.6543 18.7157 14
      vertex 30.9549 17.9389 17
      vertex 30.9549 17.9389 14
    endloop
  endfacet
  facet normal 0.994519 -0.10456 0
    outer loop
      vertex 30 15 17
      vertex 30.1093 16.0396 14
      vertex 30.1093 16.0396 17
    endloop
  endfacet
  facet normal 0.994519 -0.10456 0
    outer loop
      vertex 30.1093 16.0396 14
      vertex 30 15 17
      vertex 30 15 14
    endloop
  endfacet
  facet normal -0.994519 -0.10456 0
    outer loop
      vertex 40 15 14
      vertex 39.8907 16.0396 17
      vertex 39.8907 16.0396 14
    endloop
  endfacet
  facet normal -0.994519 -0.10456 0
    outer loop
      vertex 39.8907 16.0396 17
      vertex 40 15 14
      vertex 40 15 17
    endloop
  endfacet
  facet normal 0.866033 0.499987 0
    outer loop
      vertex 30.9549 12.0611 17
      vertex 30.4323 12.9663 14
      vertex 30.4323 12.9663 17
    endloop
  endfacet
  facet normal 0.866033 0.499987 0
    outer loop
      vertex 30.4323 12.9663 14
      vertex 30.9549 12.0611 17
      vertex 30.9549 12.0611 14
    endloop
  endfacet
  facet normal 0 -1 0
    outer loop
      vertex 34.4774 19.9726 14
      vertex 35.5226 19.9726 17
      vertex 34.4774 19.9726 17
    endloop
  endfacet
  facet normal 0 -1 -0
    outer loop
      vertex 35.5226 19.9726 17
      vertex 34.4774 19.9726 14
      vertex 35.5226 19.9726 14
    endloop
  endfacet
  facet normal 0 1 -0
    outer loop
      vertex 35.5226 10.0274 14
      vertex 34.4774 10.0274 17
      vertex 35.5226 10.0274 17
    endloop
  endfacet
  facet normal 0 1 0
    outer loop
      vertex 34.4774 10.0274 17
      vertex 35.5226 10.0274 14
      vertex 34.4774 10.0274 14
    endloop
  endfacet
  facet normal -0.951057 -0.309015 0
    outer loop
      vertex 39.8907 16.0396 14
      vertex 39.5677 17.0337 17
      vertex 39.5677 17.0337 14
    endloop
  endfacet
  facet normal -0.951057 -0.309015 0
    outer loop
      vertex 39.5677 17.0337 17
      vertex 39.8907 16.0396 14
      vertex 39.8907 16.0396 17
    endloop
  endfacet
  facet normal -0.743161 0.669113 0
    outer loop
      vertex 38.3457 11.2843 14
      vertex 39.0451 12.0611 17
      vertex 39.0451 12.0611 14
    endloop
  endfacet
  facet normal -0.743161 0.669113 0
    outer loop
      vertex 39.0451 12.0611 17
      vertex 38.3457 11.2843 14
      vertex 38.3457 11.2843 17
    endloop
  endfacet
  facet normal 0.743161 0.669113 0
    outer loop
      vertex 31.6543 11.2843 17
      vertex 30.9549 12.0611 14
      vertex 30.9549 12.0611 17
    endloop
  endfacet
  facet normal 0.743161 0.669113 0
    outer loop
      vertex 30.9549 12.0611 14
      vertex 31.6543 11.2843 17
      vertex 31.6543 11.2843 14
    endloop
  endfacet
  facet normal -0.406777 0.913527 0
    outer loop
      vertex 37.5 10.6699 14
      vertex 36.5451 10.2447 17
      vertex 37.5 10.6699 17
    endloop
  endfacet
  facet normal -0.406777 0.913527 0
    outer loop
      vertex 36.5451 10.2447 17
      vertex 37.5 10.6699 14
      vertex 36.5451 10.2447 14
    endloop
  endfacet
  facet normal -0.406777 -0.913527 0
    outer loop
      vertex 36.5451 19.7553 14
      vertex 37.5 19.3301 17
      vertex 36.5451 19.7553 17
    endloop
  endfacet
  facet normal -0.406777 -0.913527 -0
    outer loop
      vertex 37.5 19.3301 17
      vertex 36.5451 19.7553 14
      vertex 37.5 19.3301 14
    endloop
  endfacet
  facet normal 0.207876 -0.978155 0
    outer loop
      vertex 33.4549 19.7553 14
      vertex 34.4774 19.9726 17
      vertex 33.4549 19.7553 17
    endloop
  endfacet
  facet normal 0.207876 -0.978155 0
    outer loop
      vertex 34.4774 19.9726 17
      vertex 33.4549 19.7553 14
      vertex 34.4774 19.9726 14
    endloop
  endfacet
  facet normal 0.951057 -0.309015 0
    outer loop
      vertex 30.1093 16.0396 17
      vertex 30.4323 17.0337 14
      vertex 30.4323 17.0337 17
    endloop
  endfacet
  facet normal 0.951057 -0.309015 0
    outer loop
      vertex 30.4323 17.0337 14
      vertex 30.1093 16.0396 17
      vertex 30.1093 16.0396 14
    endloop
  endfacet
  facet normal 0.587762 0.809034 -0
    outer loop
      vertex 32.5 10.6699 14
      vertex 31.6543 11.2843 17
      vertex 32.5 10.6699 17
    endloop
  endfacet
  facet normal 0.587762 0.809034 0
    outer loop
      vertex 31.6543 11.2843 17
      vertex 32.5 10.6699 14
      vertex 31.6543 11.2843 14
    endloop
  endfacet
  facet normal -0.587762 -0.809034 0
    outer loop
      vertex 37.5 19.3301 14
      vertex 38.3457 18.7157 17
      vertex 37.5 19.3301 17
    endloop
  endfacet
  facet normal -0.587762 -0.809034 -0
    outer loop
      vertex 38.3457 18.7157 17
      vertex 37.5 19.3301 14
      vertex 38.3457 18.7157 14
    endloop
  endfacet
  facet normal -0.743161 -0.669113 0
    outer loop
      vertex 39.0451 17.9389 14
      vertex 38.3457 18.7157 17
      vertex 38.3457 18.7157 14
    endloop
  endfacet
  facet normal -0.743161 -0.669113 0
    outer loop
      vertex 38.3457 18.7157 17
      vertex 39.0451 17.9389 14
      vertex 39.0451 17.9389 17
    endloop
  endfacet
  facet normal 0.587762 -0.809034 0
    outer loop
      vertex 31.6543 18.7157 14
      vertex 32.5 19.3301 17
      vertex 31.6543 18.7157 17
    endloop
  endfacet
  facet normal 0.587762 -0.809034 0
    outer loop
      vertex 32.5 19.3301 17
      vertex 31.6543 18.7157 14
      vertex 32.5 19.3301 14
    endloop
  endfacet
  facet normal 0.994519 0.10456 0
    outer loop
      vertex 30.1093 13.9604 17
      vertex 30 15 14
      vertex 30 15 17
    endloop
  endfacet
  facet normal 0.994519 0.10456 0
    outer loop
      vertex 30 15 14
      vertex 30.1093 13.9604 17
      vertex 30.1093 13.9604 14
    endloop
  endfacet
  facet normal 0.406777 -0.913527 0
    outer loop
      vertex 32.5 19.3301 14
      vertex 33.4549 19.7553 17
      vertex 32.5 19.3301 17
    endloop
  endfacet
  facet normal 0.406777 -0.913527 0
    outer loop
      vertex 33.4549 19.7553 17
      vertex 32.5 19.3301 14
      vertex 33.4549 19.7553 14
    endloop
  endfacet
  facet normal 0.406777 0.913527 -0
    outer loop
      vertex 33.4549 10.2447 14
      vertex 32.5 10.6699 17
      vertex 33.4549 10.2447 17
    endloop
  endfacet
  facet normal 0.406777 0.913527 0
    outer loop
      vertex 32.5 10.6699 17
      vertex 33.4549 10.2447 14
      vertex 32.5 10.6699 14
    endloop
  endfacet
  facet normal -0.207876 -0.978155 0
    outer loop
      vertex 35.5226 19.9726 14
      vertex 36.5451 19.7553 17
      vertex 35.5226 19.9726 17
    endloop
  endfacet
  facet normal -0.207876 -0.978155 -0
    outer loop
      vertex 36.5451 19.7553 17
      vertex 35.5226 19.9726 14
      vertex 36.5451 19.7553 14
    endloop
  endfacet
  facet normal -0.951057 0.309015 0
    outer loop
      vertex 39.5677 12.9663 14
      vertex 39.8907 13.9604 17
      vertex 39.8907 13.9604 14
    endloop
  endfacet
  facet normal -0.951057 0.309015 0
    outer loop
      vertex 39.8907 13.9604 17
      vertex 39.5677 12.9663 14
      vertex 39.5677 12.9663 17
    endloop
  endfacet
  facet normal -0.866033 0.499987 0
    outer loop
      vertex 39.0451 12.0611 14
      vertex 39.5677 12.9663 17
      vertex 39.5677 12.9663 14
    endloop
  endfacet
  facet normal -0.866033 0.499987 0
    outer loop
      vertex 39.5677 12.9663 17
      vertex 39.0451 12.0611 14
      vertex 39.0451 12.0611 17
    endloop
  endfacet
  facet normal -0.587762 0.809034 0
    outer loop
      vertex 38.3457 11.2843 14
      vertex 37.5 10.6699 17
      vertex 38.3457 11.2843 17
    endloop
  endfacet
  facet normal -0.587762 0.809034 0
    outer loop
      vertex 37.5 10.6699 17
      vertex 38.3457 11.2843 14
      vertex 37.5 10.6699 14
    endloop
  endfacet
  facet normal 0.866033 -0.499987 0
    outer loop
      vertex 30.4323 17.0337 17
      vertex 30.9549 17.9389 14
      vertex 30.9549 17.9389 17
    endloop
  endfacet
  facet normal 0.866033 -0.499987 0
    outer loop
      vertex 30.9549 17.9389 14
      vertex 30.4323 17.0337 17
      vertex 30.4323 17.0337 14
    endloop
  endfacet
  facet normal -0.743146 -0.66913 0
    outer loop
      vertex 0.661738 0.51371 0
      vertex 0.381966 0.824429 17
      vertex 0.381966 0.824429 0
    endloop
  endfacet
  facet normal -0.743146 -0.66913 0
    outer loop
      vertex 0.381966 0.824429 17
      vertex 0.661738 0.51371 0
      vertex 0.661738 0.51371 17
    endloop
  endfacet
  facet normal -0.406734 -0.913546 0
    outer loop
      vertex 1 0.267949 0
      vertex 1.38197 0.0978861 17
      vertex 1 0.267949 17
    endloop
  endfacet
  facet normal -0.406734 -0.913546 -0
    outer loop
      vertex 1.38197 0.0978861 17
      vertex 1 0.267949 0
      vertex 1.38197 0.0978861 0
    endloop
  endfacet
  facet normal -0.207923 0.978145 0
    outer loop
      vertex 35.3728 25.9671 0
      vertex 34.1459 25.7063 17
      vertex 35.3728 25.9671 17
    endloop
  endfacet
  facet normal -0.207923 0.978145 0
    outer loop
      vertex 34.1459 25.7063 17
      vertex 35.3728 25.9671 0
      vertex 34.1459 25.7063 0
    endloop
  endfacet
  facet normal 0.110432 -0.993884 0
    outer loop
      vertex 2.20906 0.0109558 0
      vertex 35.3772 3.69631 17
      vertex 2.20906 0.0109558 17
    endloop
  endfacet
  facet normal 0.110432 -0.993884 0
    outer loop
      vertex 35.3772 3.69631 17
      vertex 2.20906 0.0109558 0
      vertex 35.3772 3.69631 0
    endloop
  endfacet
  facet normal -0.557048 0.83048 0
    outer loop
      vertex 33 25.1962 0
      vertex 1 3.73205 17
      vertex 33 25.1962 17
    endloop
  endfacet
  facet normal -0.557048 0.83048 0
    outer loop
      vertex 1 3.73205 17
      vertex 33 25.1962 0
      vertex 1 3.73205 0
    endloop
  endfacet
  facet normal -0.587784 -0.809018 0
    outer loop
      vertex 0.661738 0.51371 0
      vertex 1 0.267949 17
      vertex 0.661738 0.51371 17
    endloop
  endfacet
  facet normal -0.587784 -0.809018 -0
    outer loop
      vertex 1 0.267949 17
      vertex 0.661738 0.51371 0
      vertex 1 0.267949 0
    endloop
  endfacet
  facet normal 0 1 -0
    outer loop
      vertex 36.6272 25.9671 0
      vertex 35.3728 25.9671 17
      vertex 36.6272 25.9671 17
    endloop
  endfacet
  facet normal 0 1 0
    outer loop
      vertex 35.3728 25.9671 17
      vertex 36.6272 25.9671 0
      vertex 35.3728 25.9671 0
    endloop
  endfacet
  facet normal -0.587783 0.809019 0
    outer loop
      vertex 1 3.73205 0
      vertex 0.661738 3.48629 17
      vertex 1 3.73205 17
    endloop
  endfacet
  facet normal -0.587783 0.809019 0
    outer loop
      vertex 0.661738 3.48629 17
      vertex 1 3.73205 0
      vertex 0.661738 3.48629 0
    endloop
  endfacet
  facet normal 0.207923 0.978145 -0
    outer loop
      vertex 37.8541 25.7063 0
      vertex 36.6272 25.9671 17
      vertex 37.8541 25.7063 17
    endloop
  endfacet
  facet normal 0.207923 0.978145 0
    outer loop
      vertex 36.6272 25.9671 17
      vertex 37.8541 25.7063 0
      vertex 36.6272 25.9671 0
    endloop
  endfacet
  facet normal -0.994522 -0.104527 0
    outer loop
      vertex 0.043704 1.58418 0
      vertex 0 2 17
      vertex 0 2 0
    endloop
  endfacet
  facet normal -0.994522 -0.104527 0
    outer loop
      vertex 0 2 17
      vertex 0.043704 1.58418 0
      vertex 0.043704 1.58418 17
    endloop
  endfacet
  facet normal -0.951056 0.309018 0
    outer loop
      vertex 0.043704 2.41582 0
      vertex 0.172909 2.81347 17
      vertex 0.172909 2.81347 0
    endloop
  endfacet
  facet normal -0.951056 0.309018 0
    outer loop
      vertex 0.172909 2.81347 17
      vertex 0.043704 2.41582 0
      vertex 0.043704 2.41582 17
    endloop
  endfacet
  facet normal -0.951056 -0.309018 0
    outer loop
      vertex 0.172909 1.18653 0
      vertex 0.043704 1.58418 17
      vertex 0.043704 1.58418 0
    endloop
  endfacet
  facet normal -0.951056 -0.309018 0
    outer loop
      vertex 0.043704 1.58418 17
      vertex 0.172909 1.18653 0
      vertex 0.172909 1.18653 17
    endloop
  endfacet
  facet normal 0.406678 0.913571 -0
    outer loop
      vertex 39 25.1962 0
      vertex 37.8541 25.7063 17
      vertex 39 25.1962 17
    endloop
  endfacet
  facet normal 0.406678 0.913571 0
    outer loop
      vertex 37.8541 25.7063 17
      vertex 39 25.1962 0
      vertex 37.8541 25.7063 0
    endloop
  endfacet
  facet normal -0.866028 -0.499996 0
    outer loop
      vertex 0.381966 0.824429 0
      vertex 0.172909 1.18653 17
      vertex 0.172909 1.18653 0
    endloop
  endfacet
  facet normal -0.866028 -0.499996 0
    outer loop
      vertex 0.172909 1.18653 17
      vertex 0.381966 0.824429 0
      vertex 0.381966 0.824429 17
    endloop
  endfacet
  facet normal -0.743147 0.669129 0
    outer loop
      vertex 0.381966 3.17557 0
      vertex 0.661738 3.48629 17
      vertex 0.661738 3.48629 0
    endloop
  endfacet
  facet normal -0.743147 0.669129 0
    outer loop
      vertex 0.661738 3.48629 17
      vertex 0.381966 3.17557 0
      vertex 0.381966 3.17557 17
    endloop
  endfacet
  facet normal -0.406678 0.913571 0
    outer loop
      vertex 34.1459 25.7063 0
      vertex 33 25.1962 17
      vertex 34.1459 25.7063 17
    endloop
  endfacet
  facet normal -0.406678 0.913571 0
    outer loop
      vertex 33 25.1962 17
      vertex 34.1459 25.7063 0
      vertex 33 25.1962 0
    endloop
  endfacet
  facet normal -0.207914 -0.978147 0
    outer loop
      vertex 1.38197 0.0978861 0
      vertex 1.79094 0.0109558 17
      vertex 1.38197 0.0978861 17
    endloop
  endfacet
  facet normal -0.207914 -0.978147 -0
    outer loop
      vertex 1.79094 0.0109558 17
      vertex 1.38197 0.0978861 0
      vertex 1.79094 0.0109558 0
    endloop
  endfacet
  facet normal -0.866027 0.499997 0
    outer loop
      vertex 0.172909 2.81347 0
      vertex 0.381966 3.17557 17
      vertex 0.381966 3.17557 0
    endloop
  endfacet
  facet normal -0.866027 0.499997 0
    outer loop
      vertex 0.381966 3.17557 17
      vertex 0.172909 2.81347 0
      vertex 0.172909 2.81347 17
    endloop
  endfacet
  facet normal -0.994522 0.104527 0
    outer loop
      vertex 0 2 0
      vertex 0.043704 2.41582 17
      vertex 0.043704 2.41582 0
    endloop
  endfacet
  facet normal -0.994522 0.104527 0
    outer loop
      vertex 0.043704 2.41582 17
      vertex 0 2 0
      vertex 0 2 17
    endloop
  endfacet
  facet normal 0 -1 0
    outer loop
      vertex 1.79094 0.0109558 0
      vertex 2.20906 0.0109558 17
      vertex 1.79094 0.0109558 17
    endloop
  endfacet
  facet normal 0 -1 -0
    outer loop
      vertex 2.20906 0.0109558 17
      vertex 1.79094 0.0109558 0
      vertex 2.20906 0.0109558 0
    endloop
  endfacet
  facet normal -0.403018 -0.915192 0
    outer loop
      vertex 35.3772 3.69631 0
      vertex 102.146 -25.7063 17
      vertex 35.3772 3.69631 17
    endloop
  endfacet
  facet normal -0.403018 -0.915192 -0
    outer loop
      vertex 102.146 -25.7063 17
      vertex 35.3772 3.69631 0
      vertex 102.146 -25.7063 0
    endloop
  endfacet
  facet normal 0.587712 0.80907 -0
    outer loop
      vertex 110.015 -13.5411 0
      vertex 109 -12.8038 17
      vertex 110.015 -13.5411 17
    endloop
  endfacet
  facet normal 0.587712 0.80907 0
    outer loop
      vertex 109 -12.8038 17
      vertex 110.015 -13.5411 0
      vertex 109 -12.8038 0
    endloop
  endfacet
  facet normal 0.866086 -0.499895 0
    outer loop
      vertex 110.854 -21.5267 17
      vertex 111.481 -20.4404 0
      vertex 111.481 -20.4404 17
    endloop
  endfacet
  facet normal 0.866086 -0.499895 0
    outer loop
      vertex 111.481 -20.4404 0
      vertex 110.854 -21.5267 17
      vertex 110.854 -21.5267 0
    endloop
  endfacet
  facet normal 0.950962 0.309308 0
    outer loop
      vertex 111.869 -16.7525 17
      vertex 111.481 -15.5596 0
      vertex 111.481 -15.5596 17
    endloop
  endfacet
  facet normal 0.950962 0.309308 0
    outer loop
      vertex 111.481 -15.5596 0
      vertex 111.869 -16.7525 17
      vertex 111.869 -16.7525 0
    endloop
  endfacet
  facet normal 0.994532 0.104436 0
    outer loop
      vertex 112 -18 17
      vertex 111.869 -16.7525 0
      vertex 111.869 -16.7525 17
    endloop
  endfacet
  facet normal 0.994532 0.104436 0
    outer loop
      vertex 111.869 -16.7525 0
      vertex 112 -18 17
      vertex 112 -18 0
    endloop
  endfacet
  facet normal 0.743286 0.668974 0
    outer loop
      vertex 110.854 -14.4733 17
      vertex 110.015 -13.5411 0
      vertex 110.015 -13.5411 17
    endloop
  endfacet
  facet normal 0.743286 0.668974 0
    outer loop
      vertex 110.015 -13.5411 0
      vertex 110.854 -14.4733 17
      vertex 110.854 -14.4733 0
    endloop
  endfacet
  facet normal 0.866086 0.499895 0
    outer loop
      vertex 111.481 -15.5596 17
      vertex 110.854 -14.4733 0
      vertex 110.854 -14.4733 17
    endloop
  endfacet
  facet normal 0.866086 0.499895 0
    outer loop
      vertex 110.854 -14.4733 0
      vertex 111.481 -15.5596 17
      vertex 111.481 -15.5596 0
    endloop
  endfacet
  facet normal 0.587712 -0.80907 0
    outer loop
      vertex 107 -25.1962 0
      vertex 108.015 -24.4589 17
      vertex 107 -25.1962 17
    endloop
  endfacet
  facet normal 0.587712 -0.80907 0
    outer loop
      vertex 108.015 -24.4589 17
      vertex 107 -25.1962 0
      vertex 108.015 -24.4589 0
    endloop
  endfacet
  facet normal 0 -1 0
    outer loop
      vertex 103.373 -25.9671 0
      vertex 104.627 -25.9671 17
      vertex 103.373 -25.9671 17
    endloop
  endfacet
  facet normal 0 -1 -0
    outer loop
      vertex 104.627 -25.9671 17
      vertex 103.373 -25.9671 0
      vertex 104.627 -25.9671 0
    endloop
  endfacet
  facet normal 0.477092 0.878853 -0
    outer loop
      vertex 109 -12.8038 0
      vertex 39 25.1962 17
      vertex 109 -12.8038 17
    endloop
  endfacet
  facet normal 0.477092 0.878853 0
    outer loop
      vertex 39 25.1962 17
      vertex 109 -12.8038 0
      vertex 39 25.1962 0
    endloop
  endfacet
  facet normal 0.994532 -0.104436 0
    outer loop
      vertex 111.869 -19.2475 17
      vertex 112 -18 0
      vertex 112 -18 17
    endloop
  endfacet
  facet normal 0.994532 -0.104436 0
    outer loop
      vertex 112 -18 0
      vertex 111.869 -19.2475 17
      vertex 111.869 -19.2475 0
    endloop
  endfacet
  facet normal 0.406649 -0.913585 0
    outer loop
      vertex 105.854 -25.7063 0
      vertex 107 -25.1962 17
      vertex 105.854 -25.7063 17
    endloop
  endfacet
  facet normal 0.406649 -0.913585 0
    outer loop
      vertex 107 -25.1962 17
      vertex 105.854 -25.7063 0
      vertex 107 -25.1962 0
    endloop
  endfacet
  facet normal 0.950962 -0.309308 0
    outer loop
      vertex 111.481 -20.4404 17
      vertex 111.869 -19.2475 0
      vertex 111.869 -19.2475 17
    endloop
  endfacet
  facet normal 0.950962 -0.309308 0
    outer loop
      vertex 111.869 -19.2475 0
      vertex 111.481 -20.4404 17
      vertex 111.481 -20.4404 0
    endloop
  endfacet
  facet normal 0.707107 -0.707107 0
    outer loop
      vertex 108.015 -24.4589 17
      vertex 110.015 -22.4589 0
      vertex 110.015 -22.4589 17
    endloop
  endfacet
  facet normal 0.707107 -0.707107 0
    outer loop
      vertex 110.015 -22.4589 0
      vertex 108.015 -24.4589 17
      vertex 108.015 -24.4589 0
    endloop
  endfacet
  facet normal 0.207906 -0.978149 0
    outer loop
      vertex 104.627 -25.9671 0
      vertex 105.854 -25.7063 17
      vertex 104.627 -25.9671 17
    endloop
  endfacet
  facet normal 0.207906 -0.978149 0
    outer loop
      vertex 105.854 -25.7063 17
      vertex 104.627 -25.9671 0
      vertex 105.854 -25.7063 0
    endloop
  endfacet
  facet normal 0.743286 -0.668974 0
    outer loop
      vertex 110.015 -22.4589 17
      vertex 110.854 -21.5267 0
      vertex 110.854 -21.5267 17
    endloop
  endfacet
  facet normal 0.743286 -0.668974 0
    outer loop
      vertex 110.854 -21.5267 0
      vertex 110.015 -22.4589 17
      vertex 110.015 -22.4589 0
    endloop
  endfacet
  facet normal -0.207906 -0.978149 0
    outer loop
      vertex 102.146 -25.7063 0
      vertex 103.373 -25.9671 17
      vertex 102.146 -25.7063 17
    endloop
  endfacet
  facet normal -0.207906 -0.978149 -0
    outer loop
      vertex 103.373 -25.9671 17
      vertex 102.146 -25.7063 0
      vertex 103.373 -25.9671 0
    endloop
  endfacet
endsolid OpenSCAD_Model
