solid OpenSCAD_Model
  facet normal -0.743143 -0.669133 0
    outer loop
      vertex -26.7652 -29.7258 0
      vertex -32.3607 -23.5114 36
      vertex -32.3607 -23.5114 0
    endloop
  endfacet
  facet normal -0.743143 -0.669133 0
    outer loop
      vertex -32.3607 -23.5114 36
      vertex -26.7652 -29.7258 0
      vertex -26.7652 -29.7258 36
    endloop
  endfacet
  facet normal 0.866025 0.5 0
    outer loop
      vertex 33 22.4041 36
      vertex 32.3607 23.5114 0
      vertex 32.3607 23.5114 36
    endloop
  endfacet
  facet normal 0.866025 0.5 0
    outer loop
      vertex 32.3607 23.5114 0
      vertex 33 22.4041 36
      vertex 33 22.4041 0
    endloop
  endfacet
  facet normal -0.587785 0.809017 0
    outer loop
      vertex -20 34.641 0
      vertex -26.7652 29.7258 36
      vertex -20 34.641 36
    endloop
  endfacet
  facet normal -0.587785 0.809017 0
    outer loop
      vertex -26.7652 29.7258 36
      vertex -20 34.641 0
      vertex -26.7652 29.7258 0
    endloop
  endfacet
  facet normal 0.587785 -0.809017 0
    outer loop
      vertex 20 -34.641 0
      vertex 26.7652 -29.7258 36
      vertex 20 -34.641 36
    endloop
  endfacet
  facet normal 0.587785 -0.809017 0
    outer loop
      vertex 26.7652 -29.7258 36
      vertex 20 -34.641 0
      vertex 26.7652 -29.7258 0
    endloop
  endfacet
  facet normal 0.743143 -0.669133 0
    outer loop
      vertex 26.7652 -29.7258 36
      vertex 32.3607 -23.5114 0
      vertex 32.3607 -23.5114 36
    endloop
  endfacet
  facet normal 0.743143 -0.669133 0
    outer loop
      vertex 32.3607 -23.5114 0
      vertex 26.7652 -29.7258 36
      vertex 26.7652 -29.7258 0
    endloop
  endfacet
  facet normal -0.406743 -0.913543 0
    outer loop
      vertex -20 -34.641 0
      vertex -12.3607 -38.0423 36
      vertex -20 -34.641 36
    endloop
  endfacet
  facet normal -0.406743 -0.913543 -0
    outer loop
      vertex -12.3607 -38.0423 36
      vertex -20 -34.641 0
      vertex -12.3607 -38.0423 0
    endloop
  endfacet
  facet normal 0.406743 0.913543 -0
    outer loop
      vertex 20 34.641 0
      vertex 12.3607 38.0423 36
      vertex 20 34.641 36
    endloop
  endfacet
  facet normal 0.406743 0.913543 0
    outer loop
      vertex 12.3607 38.0423 36
      vertex 20 34.641 0
      vertex 12.3607 38.0423 0
    endloop
  endfacet
  facet normal 0.743143 0.669133 0
    outer loop
      vertex 32.3607 23.5114 36
      vertex 26.7652 29.7258 0
      vertex 26.7652 29.7258 36
    endloop
  endfacet
  facet normal 0.743143 0.669133 0
    outer loop
      vertex 26.7652 29.7258 0
      vertex 32.3607 23.5114 36
      vertex 32.3607 23.5114 0
    endloop
  endfacet
  facet normal -0.587785 -0.809017 0
    outer loop
      vertex -26.7652 -29.7258 0
      vertex -20 -34.641 36
      vertex -26.7652 -29.7258 36
    endloop
  endfacet
  facet normal -0.587785 -0.809017 -0
    outer loop
      vertex -20 -34.641 36
      vertex -26.7652 -29.7258 0
      vertex -20 -34.641 0
    endloop
  endfacet
  facet normal -0.743143 0.669133 0
    outer loop
      vertex -32.3607 23.5114 0
      vertex -26.7652 29.7258 36
      vertex -26.7652 29.7258 0
    endloop
  endfacet
  facet normal -0.743143 0.669133 0
    outer loop
      vertex -26.7652 29.7258 36
      vertex -32.3607 23.5114 0
      vertex -32.3607 23.5114 36
    endloop
  endfacet
  facet normal 0 1 -0
    outer loop
      vertex 4.18114 39.7809 0
      vertex -4.18114 39.7809 36
      vertex 4.18114 39.7809 36
    endloop
  endfacet
  facet normal 0 1 0
    outer loop
      vertex -4.18114 39.7809 36
      vertex 4.18114 39.7809 0
      vertex -4.18114 39.7809 0
    endloop
  endfacet
  facet normal 0.406743 -0.913543 0
    outer loop
      vertex 12.3607 -38.0423 0
      vertex 20 -34.641 36
      vertex 12.3607 -38.0423 36
    endloop
  endfacet
  facet normal 0.406743 -0.913543 0
    outer loop
      vertex 20 -34.641 36
      vertex 12.3607 -38.0423 0
      vertex 20 -34.641 0
    endloop
  endfacet
  facet normal 0.207909 -0.978148 0
    outer loop
      vertex 4.18114 -39.7809 0
      vertex 12.3607 -38.0423 36
      vertex 4.18114 -39.7809 36
    endloop
  endfacet
  facet normal 0.207909 -0.978148 0
    outer loop
      vertex 12.3607 -38.0423 36
      vertex 4.18114 -39.7809 0
      vertex 12.3607 -38.0423 0
    endloop
  endfacet
  facet normal -0.951056 0.309017 0
    outer loop
      vertex -39.1259 8.31647 0
      vertex -36.5418 16.2695 36
      vertex -36.5418 16.2695 0
    endloop
  endfacet
  facet normal -0.951056 0.309017 0
    outer loop
      vertex -36.5418 16.2695 36
      vertex -39.1259 8.31647 0
      vertex -39.1259 8.31647 36
    endloop
  endfacet
  facet normal 0 0 -1
    outer loop
      vertex 1.76777 -1.76777 0
      vertex 33 -22.4041 0
      vertex 32.3607 -23.5114 0
    endloop
  endfacet
  facet normal 0 0 -1
    outer loop
      vertex 33 -22.4041 0
      vertex 2.5 0 0
      vertex 33 22.4041 0
    endloop
  endfacet
  facet normal 0 0 -1
    outer loop
      vertex 1.76777 -1.76777 0
      vertex 32.3607 -23.5114 0
      vertex 26.7652 -29.7258 0
    endloop
  endfacet
  facet normal 0 0 -1
    outer loop
      vertex 1.76777 1.76777 0
      vertex 33 22.4041 0
      vertex 2.5 0 0
    endloop
  endfacet
  facet normal 0 0 -1
    outer loop
      vertex 1.76777 -1.76777 0
      vertex 26.7652 -29.7258 0
      vertex 20 -34.641 0
    endloop
  endfacet
  facet normal -0 0 -1
    outer loop
      vertex 33 22.4041 0
      vertex 1.76777 1.76777 0
      vertex 32.3607 23.5114 0
    endloop
  endfacet
  facet normal 0 0 -1
    outer loop
      vertex 1.76777 -1.76777 0
      vertex 20 -34.641 0
      vertex 12.3607 -38.0423 0
    endloop
  endfacet
  facet normal -0 0 -1
    outer loop
      vertex 32.3607 23.5114 0
      vertex 1.76777 1.76777 0
      vertex 26.7652 29.7258 0
    endloop
  endfacet
  facet normal 0 0 -1
    outer loop
      vertex 0 -2.5 0
      vertex 12.3607 -38.0423 0
      vertex 4.18114 -39.7809 0
    endloop
  endfacet
  facet normal -0 0 -1
    outer loop
      vertex 26.7652 29.7258 0
      vertex 1.76777 1.76777 0
      vertex 20 34.641 0
    endloop
  endfacet
  facet normal -0 0 -1
    outer loop
      vertex 20 34.641 0
      vertex 1.76777 1.76777 0
      vertex 12.3607 38.0423 0
    endloop
  endfacet
  facet normal 0 0 -1
    outer loop
      vertex 33 -22.4041 0
      vertex 1.76777 -1.76777 0
      vertex 2.5 0 0
    endloop
  endfacet
  facet normal 0 0 -1
    outer loop
      vertex 12.3607 -38.0423 0
      vertex 0 -2.5 0
      vertex 1.76777 -1.76777 0
    endloop
  endfacet
  facet normal 0 0 -1
    outer loop
      vertex -4.18114 -39.7809 0
      vertex 0 -2.5 0
      vertex 4.18114 -39.7809 0
    endloop
  endfacet
  facet normal 0 0 -1
    outer loop
      vertex -12.3607 -38.0423 0
      vertex 0 -2.5 0
      vertex -4.18114 -39.7809 0
    endloop
  endfacet
  facet normal -0 0 -1
    outer loop
      vertex 0 -2.5 0
      vertex -12.3607 -38.0423 0
      vertex -1.76777 -1.76777 0
    endloop
  endfacet
  facet normal 0 0 -1
    outer loop
      vertex 0 2.5 0
      vertex 12.3607 38.0423 0
      vertex 1.76777 1.76777 0
    endloop
  endfacet
  facet normal -0 0 -1
    outer loop
      vertex 12.3607 38.0423 0
      vertex 0 2.5 0
      vertex 4.18114 39.7809 0
    endloop
  endfacet
  facet normal 0 0 -1
    outer loop
      vertex -12.3607 38.0423 0
      vertex 0 2.5 0
      vertex -1.76777 1.76777 0
    endloop
  endfacet
  facet normal 0 0 -1
    outer loop
      vertex -36.5418 16.2695 0
      vertex -1.76777 1.76777 0
      vertex -2.5 0 0
    endloop
  endfacet
  facet normal 0 0 -1
    outer loop
      vertex 0 2.5 0
      vertex -4.18114 39.7809 0
      vertex 4.18114 39.7809 0
    endloop
  endfacet
  facet normal 0 0 -1
    outer loop
      vertex -20 -34.641 0
      vertex -1.76777 -1.76777 0
      vertex -12.3607 -38.0423 0
    endloop
  endfacet
  facet normal 0 0 -1
    outer loop
      vertex -26.7652 -29.7258 0
      vertex -1.76777 -1.76777 0
      vertex -20 -34.641 0
    endloop
  endfacet
  facet normal 0 0 -1
    outer loop
      vertex 0 2.5 0
      vertex -12.3607 38.0423 0
      vertex -4.18114 39.7809 0
    endloop
  endfacet
  facet normal 0 0 -1
    outer loop
      vertex -32.3607 -23.5114 0
      vertex -1.76777 -1.76777 0
      vertex -26.7652 -29.7258 0
    endloop
  endfacet
  facet normal 0 0 -1
    outer loop
      vertex -1.76777 1.76777 0
      vertex -20 34.641 0
      vertex -12.3607 38.0423 0
    endloop
  endfacet
  facet normal 0 0 -1
    outer loop
      vertex -36.5418 -16.2695 0
      vertex -1.76777 -1.76777 0
      vertex -32.3607 -23.5114 0
    endloop
  endfacet
  facet normal 0 0 -1
    outer loop
      vertex -1.76777 1.76777 0
      vertex -26.7652 29.7258 0
      vertex -20 34.641 0
    endloop
  endfacet
  facet normal -0 0 -1
    outer loop
      vertex -1.76777 -1.76777 0
      vertex -36.5418 -16.2695 0
      vertex -2.5 0 0
    endloop
  endfacet
  facet normal 0 0 -1
    outer loop
      vertex -1.76777 1.76777 0
      vertex -32.3607 23.5114 0
      vertex -26.7652 29.7258 0
    endloop
  endfacet
  facet normal 0 0 -1
    outer loop
      vertex -39.1259 -8.31647 0
      vertex -2.5 0 0
      vertex -36.5418 -16.2695 0
    endloop
  endfacet
  facet normal 0 0 -1
    outer loop
      vertex -1.76777 1.76777 0
      vertex -36.5418 16.2695 0
      vertex -32.3607 23.5114 0
    endloop
  endfacet
  facet normal 0 0 -1
    outer loop
      vertex -40 0 0
      vertex -2.5 0 0
      vertex -39.1259 -8.31647 0
    endloop
  endfacet
  facet normal 0 0 -1
    outer loop
      vertex -2.5 0 0
      vertex -39.1259 8.31647 0
      vertex -36.5418 16.2695 0
    endloop
  endfacet
  facet normal 0 0 -1
    outer loop
      vertex -2.5 0 0
      vertex -40 0 0
      vertex -39.1259 8.31647 0
    endloop
  endfacet
  facet normal -0.951056 -0.309017 0
    outer loop
      vertex -36.5418 -16.2695 0
      vertex -39.1259 -8.31647 36
      vertex -39.1259 -8.31647 0
    endloop
  endfacet
  facet normal -0.951056 -0.309017 0
    outer loop
      vertex -39.1259 -8.31647 36
      vertex -36.5418 -16.2695 0
      vertex -36.5418 -16.2695 36
    endloop
  endfacet
  facet normal -0.406743 0.913543 0
    outer loop
      vertex -12.3607 38.0423 0
      vertex -20 34.641 36
      vertex -12.3607 38.0423 36
    endloop
  endfacet
  facet normal -0.406743 0.913543 0
    outer loop
      vertex -20 34.641 36
      vertex -12.3607 38.0423 0
      vertex -20 34.641 0
    endloop
  endfacet
  facet normal -0.207909 -0.978148 0
    outer loop
      vertex -12.3607 -38.0423 0
      vertex -4.18114 -39.7809 36
      vertex -12.3607 -38.0423 36
    endloop
  endfacet
  facet normal -0.207909 -0.978148 -0
    outer loop
      vertex -4.18114 -39.7809 36
      vertex -12.3607 -38.0423 0
      vertex -4.18114 -39.7809 0
    endloop
  endfacet
  facet normal 0.207909 0.978148 -0
    outer loop
      vertex 12.3607 38.0423 0
      vertex 4.18114 39.7809 36
      vertex 12.3607 38.0423 36
    endloop
  endfacet
  facet normal 0.207909 0.978148 0
    outer loop
      vertex 4.18114 39.7809 36
      vertex 12.3607 38.0423 0
      vertex 4.18114 39.7809 0
    endloop
  endfacet
  facet normal -0.994522 -0.104529 0
    outer loop
      vertex -39.1259 -8.31647 0
      vertex -40 0 36
      vertex -40 0 0
    endloop
  endfacet
  facet normal -0.994522 -0.104529 0
    outer loop
      vertex -40 0 36
      vertex -39.1259 -8.31647 0
      vertex -39.1259 -8.31647 36
    endloop
  endfacet
  facet normal -0.866026 -0.499999 0
    outer loop
      vertex -32.3607 -23.5114 0
      vertex -36.5418 -16.2695 36
      vertex -36.5418 -16.2695 0
    endloop
  endfacet
  facet normal -0.866026 -0.499999 0
    outer loop
      vertex -36.5418 -16.2695 36
      vertex -32.3607 -23.5114 0
      vertex -32.3607 -23.5114 36
    endloop
  endfacet
  facet normal -0.866026 0.499999 0
    outer loop
      vertex -36.5418 16.2695 0
      vertex -32.3607 23.5114 36
      vertex -32.3607 23.5114 0
    endloop
  endfacet
  facet normal -0.866026 0.499999 0
    outer loop
      vertex -32.3607 23.5114 36
      vertex -36.5418 16.2695 0
      vertex -36.5418 16.2695 36
    endloop
  endfacet
  facet normal 0.866025 -0.5 0
    outer loop
      vertex 32.3607 -23.5114 36
      vertex 33 -22.4041 0
      vertex 33 -22.4041 36
    endloop
  endfacet
  facet normal 0.866025 -0.5 0
    outer loop
      vertex 33 -22.4041 0
      vertex 32.3607 -23.5114 36
      vertex 32.3607 -23.5114 0
    endloop
  endfacet
  facet normal 0.587785 0.809017 -0
    outer loop
      vertex 26.7652 29.7258 0
      vertex 20 34.641 36
      vertex 26.7652 29.7258 36
    endloop
  endfacet
  facet normal 0.587785 0.809017 0
    outer loop
      vertex 20 34.641 36
      vertex 26.7652 29.7258 0
      vertex 20 34.641 0
    endloop
  endfacet
  facet normal -0.207909 0.978148 0
    outer loop
      vertex -4.18114 39.7809 0
      vertex -12.3607 38.0423 36
      vertex -4.18114 39.7809 36
    endloop
  endfacet
  facet normal -0.207909 0.978148 0
    outer loop
      vertex -12.3607 38.0423 36
      vertex -4.18114 39.7809 0
      vertex -12.3607 38.0423 0
    endloop
  endfacet
  facet normal 0 -1 0
    outer loop
      vertex -4.18114 -39.7809 0
      vertex 4.18114 -39.7809 36
      vertex -4.18114 -39.7809 36
    endloop
  endfacet
  facet normal 0 -1 -0
    outer loop
      vertex 4.18114 -39.7809 36
      vertex -4.18114 -39.7809 0
      vertex 4.18114 -39.7809 0
    endloop
  endfacet
  facet normal -0.994522 0.104529 0
    outer loop
      vertex -40 0 0
      vertex -39.1259 8.31647 36
      vertex -39.1259 8.31647 0
    endloop
  endfacet
  facet normal -0.994522 0.104529 0
    outer loop
      vertex -39.1259 8.31647 36
      vertex -40 0 0
      vertex -40 0 36
    endloop
  endfacet
  facet normal -0.827366 -0.268828 0.493151
    outer loop
      vertex -10.5058 -4.67747 86
      vertex -39.1259 -8.31647 36
      vertex -36.5418 -16.2695 36
    endloop
  endfacet
  facet normal -0.511339 0.7038 0.493151
    outer loop
      vertex -5.75 9.95929 86
      vertex -20 34.641 36
      vertex -7.695 8.54617 86
    endloop
  endfacet
  facet normal -0.827368 -0.268819 0.493152
    outer loop
      vertex -11.2487 -2.39098 86
      vertex -39.1259 -8.31647 36
      vertex -10.5058 -4.67747 86
    endloop
  endfacet
  facet normal 0.865239 0.0898539 0.493241
    outer loop
      vertex 11.2487 2.39098 86
      vertex 15.7166 1.94114 78.2444
      vertex 15.7268 2.01858 78.2124
    endloop
  endfacet
  facet normal 0.865178 0.0909331 0.493151
    outer loop
      vertex 15.775 0 78.5
      vertex 11.2487 2.39098 86
      vertex 11.5 0 86
    endloop
  endfacet
  facet normal 0.86518 0.0909639 0.493143
    outer loop
      vertex 11.2487 2.39098 86
      vertex 15.775 0 78.5
      vertex 15.7166 1.94114 78.2444
    endloop
  endfacet
  facet normal 0.865176 0.0909428 0.493152
    outer loop
      vertex 24.325 0 63.5
      vertex 33 0.582126 48.1734
      vertex 24.0866 1.32337 63.6742
    endloop
  endfacet
  facet normal 0.865181 0.0909001 0.493153
    outer loop
      vertex 33 0.582126 48.1734
      vertex 24.325 0 63.5
      vertex 33 0 48.2807
    endloop
  endfacet
  facet normal 0.865174 0.0909845 0.49315
    outer loop
      vertex 15.9052 3.38076 77.6481
      vertex 11.2487 2.39098 86
      vertex 15.7268 2.01858 78.2124
    endloop
  endfacet
  facet normal 0.865183 0.0908961 0.493149
    outer loop
      vertex 23.3581 3.75 64.5048
      vertex 33 7.01437 46.9873
      vertex 22.7672 4.83931 65.3407
    endloop
  endfacet
  facet normal 0.865175 0.0909496 0.493154
    outer loop
      vertex 23.9753 1.94114 63.7556
      vertex 33 7.01437 46.9873
      vertex 23.3581 3.75 64.5048
    endloop
  endfacet
  facet normal 0.865179 0.0908939 0.493156
    outer loop
      vertex 33 0.582126 48.1734
      vertex 23.9753 1.94114 63.7556
      vertex 24.0866 1.32337 63.6742
    endloop
  endfacet
  facet normal 0.865178 0.0909367 0.493151
    outer loop
      vertex 23.9753 1.94114 63.7556
      vertex 33 0.582126 48.1734
      vertex 33 7.01437 46.9873
    endloop
  endfacet
  facet normal -0.180888 0.850928 0.493153
    outer loop
      vertex -1.20208 11.437 86
      vertex -12.3607 38.0423 36
      vertex -3.55369 10.9371 86
    endloop
  endfacet
  facet normal 0.511339 0.7038 0.493151
    outer loop
      vertex 20 34.641 36
      vertex 5.75 9.95929 86
      vertex 7.695 8.54617 86
    endloop
  endfacet
  facet normal -0.865178 -0.0909343 0.493151
    outer loop
      vertex -11.2487 -2.39098 86
      vertex -40 0 36
      vertex -39.1259 -8.31647 36
    endloop
  endfacet
  facet normal -0.865178 0.0909331 0.493151
    outer loop
      vertex -11.2487 2.39098 86
      vertex -40 0 36
      vertex -11.5 0 86
    endloop
  endfacet
  facet normal 0.353822 0.794739 0.493153
    outer loop
      vertex 12.3607 38.0423 36
      vertex 3.55369 10.9371 86
      vertex 5.75 9.95929 86
    endloop
  endfacet
  facet normal 0.511339 -0.7038 0.493151
    outer loop
      vertex 7.695 -8.54617 86
      vertex 5.75 -9.95929 86
      vertex 20 -34.641 36
    endloop
  endfacet
  facet normal 0.827341 0.268894 0.493157
    outer loop
      vertex 19.7695 7.24444 69.0589
      vertex 33 14.6925 42.8018
      vertex 18.5294 7.5 71
    endloop
  endfacet
  facet normal 0.827319 0.268952 0.493161
    outer loop
      vertex 33 14.6925 42.8018
      vertex 17.4554 7.24444 72.9411
      vertex 18.5294 7.5 71
    endloop
  endfacet
  facet normal 0.827366 0.268832 0.493148
    outer loop
      vertex 16.6207 6.49519 74.75
      vertex 10.5058 4.67747 86
      vertex 16.122 5.39157 76.1883
    endloop
  endfacet
  facet normal 0.827346 0.268895 0.493148
    outer loop
      vertex 17.4554 7.24444 72.9411
      vertex 10.5058 4.67747 86
      vertex 16.6207 6.49519 74.75
    endloop
  endfacet
  facet normal 0.82742 0.268672 0.493144
    outer loop
      vertex 10.5058 4.67747 86
      vertex 17.4554 7.24444 72.9411
      vertex 33 14.6925 42.8018
    endloop
  endfacet
  facet normal 0.827375 0.268805 0.493149
    outer loop
      vertex 21.0911 6.49519 67.25
      vertex 33 14.6925 42.8018
      vertex 19.7695 7.24444 69.0589
    endloop
  endfacet
  facet normal 0.827373 0.268809 0.493149
    outer loop
      vertex 21.547 6.08135 66.7107
      vertex 33 14.6925 42.8018
      vertex 21.0911 6.49519 67.25
    endloop
  endfacet
  facet normal 0.827365 0.268827 0.493152
    outer loop
      vertex 33 14.6925 42.8018
      vertex 21.547 6.08135 66.7107
      vertex 33 7.53757 46.7021
    endloop
  endfacet
  facet normal 0.753388 0.43498 0.493152
    outer loop
      vertex 32.3607 23.5114 36
      vertex 9.30369 6.75953 86
      vertex 10.5058 4.67747 86
    endloop
  endfacet
  facet normal 0.753393 0.434971 0.493153
    outer loop
      vertex 32.3607 23.5114 36
      vertex 33 14.6925 42.8018
      vertex 33 22.4041 36
    endloop
  endfacet
  facet normal 0.753394 0.43497 0.493151
    outer loop
      vertex 33 14.6925 42.8018
      vertex 32.3607 23.5114 36
      vertex 10.5058 4.67747 86
    endloop
  endfacet
  facet normal 0.753388 -0.43498 0.493152
    outer loop
      vertex 10.5058 -4.67747 86
      vertex 9.30369 -6.75953 86
      vertex 32.3607 -23.5114 36
    endloop
  endfacet
  facet normal 0.646493 0.582108 0.493151
    outer loop
      vertex 26.7652 29.7258 36
      vertex 7.695 8.54617 86
      vertex 32.3607 23.5114 36
    endloop
  endfacet
  facet normal 0.646495 0.582104 0.493152
    outer loop
      vertex 32.3607 23.5114 36
      vertex 7.695 8.54617 86
      vertex 9.30369 6.75953 86
    endloop
  endfacet
  facet normal 0.646493 -0.582108 0.493151
    outer loop
      vertex 32.3607 -23.5114 36
      vertex 7.695 -8.54617 86
      vertex 26.7652 -29.7258 36
    endloop
  endfacet
  facet normal -0.51134 -0.703799 0.493151
    outer loop
      vertex -7.695 -8.54617 86
      vertex -26.7652 -29.7258 36
      vertex -20 -34.641 36
    endloop
  endfacet
  facet normal -0.646495 -0.582104 0.493152
    outer loop
      vertex -9.30369 -6.75953 86
      vertex -32.3607 -23.5114 36
      vertex -7.695 -8.54617 86
    endloop
  endfacet
  facet normal -0.353822 0.794739 0.493153
    outer loop
      vertex -3.55369 10.9371 86
      vertex -12.3607 38.0423 36
      vertex -5.75 9.95929 86
    endloop
  endfacet
  facet normal -0.753394 -0.434971 0.493151
    outer loop
      vertex -10.5058 -4.67747 86
      vertex -36.5418 -16.2695 36
      vertex -32.3607 -23.5114 36
    endloop
  endfacet
  facet normal 0.51134 0.703799 0.493151
    outer loop
      vertex 20 34.641 36
      vertex 7.695 8.54617 86
      vertex 26.7652 29.7258 36
    endloop
  endfacet
  facet normal -0.180869 0.850933 0.493152
    outer loop
      vertex -4.18114 39.7809 36
      vertex -12.3607 38.0423 36
      vertex -1.20208 11.437 86
    endloop
  endfacet
  facet normal 0.180888 -0.850928 0.493153
    outer loop
      vertex 3.55369 -10.9371 86
      vertex 1.20208 -11.437 86
      vertex 12.3607 -38.0423 36
    endloop
  endfacet
  facet normal -0.827366 0.268828 0.493151
    outer loop
      vertex -36.5418 16.2695 36
      vertex -39.1259 8.31647 36
      vertex -10.5058 4.67747 86
    endloop
  endfacet
  facet normal 0.827459 0.268492 0.493177
    outer loop
      vertex 10.5058 4.67747 86
      vertex 16.0821 5.3033 76.3033
      vertex 16.122 5.39157 76.1883
    endloop
  endfacet
  facet normal 0.827365 0.268841 0.493145
    outer loop
      vertex 10.5058 4.67747 86
      vertex 15.8764 3.75 77.4952
      vertex 16.0821 5.3033 76.3033
    endloop
  endfacet
  facet normal 0.827382 0.268751 0.493166
    outer loop
      vertex 10.5058 4.67747 86
      vertex 15.9052 3.38076 77.6481
      vertex 15.8764 3.75 77.4952
    endloop
  endfacet
  facet normal 0.82737 0.26882 0.493148
    outer loop
      vertex 15.9052 3.38076 77.6481
      vertex 10.5058 4.67747 86
      vertex 11.2487 2.39098 86
    endloop
  endfacet
  facet normal 0.827365 0.268827 0.493152
    outer loop
      vertex 22.4042 5.3033 65.6967
      vertex 33 7.53757 46.7021
      vertex 21.547 6.08135 66.7107
    endloop
  endfacet
  facet normal 0.827367 0.268821 0.493152
    outer loop
      vertex 33 7.53757 46.7021
      vertex 22.4042 5.3033 65.6967
      vertex 33 7.01437 46.9873
    endloop
  endfacet
  facet normal 0.827345 0.268898 0.493147
    outer loop
      vertex 33 7.01437 46.9873
      vertex 22.4042 5.3033 65.6967
      vertex 22.7672 4.83931 65.3407
    endloop
  endfacet
  facet normal -0.865178 0.0909343 0.493151
    outer loop
      vertex -39.1259 8.31647 36
      vertex -40 0 36
      vertex -11.2487 2.39098 86
    endloop
  endfacet
  facet normal 0.827366 -0.268832 0.493148
    outer loop
      vertex 10.5058 -4.67747 86
      vertex 16.6207 -6.49519 74.75
      vertex 16.122 -5.39157 76.1883
    endloop
  endfacet
  facet normal 0.827346 -0.268895 0.493148
    outer loop
      vertex 10.5058 -4.67747 86
      vertex 17.4554 -7.24444 72.9411
      vertex 16.6207 -6.49519 74.75
    endloop
  endfacet
  facet normal 0.827365 -0.268827 0.493152
    outer loop
      vertex 21.547 -6.08135 66.7107
      vertex 33 -14.6925 42.8018
      vertex 33 -7.53757 46.7021
    endloop
  endfacet
  facet normal 0.827319 -0.268952 0.493161
    outer loop
      vertex 17.4554 -7.24444 72.9411
      vertex 33 -14.6925 42.8018
      vertex 18.5294 -7.5 71
    endloop
  endfacet
  facet normal 0.82742 -0.268672 0.493144
    outer loop
      vertex 33 -14.6925 42.8018
      vertex 17.4554 -7.24444 72.9411
      vertex 10.5058 -4.67747 86
    endloop
  endfacet
  facet normal 0.827373 -0.268809 0.493149
    outer loop
      vertex 33 -14.6925 42.8018
      vertex 21.547 -6.08135 66.7107
      vertex 21.0911 -6.49519 67.25
    endloop
  endfacet
  facet normal 0.827375 -0.268805 0.493149
    outer loop
      vertex 33 -14.6925 42.8018
      vertex 21.0911 -6.49519 67.25
      vertex 19.7695 -7.24444 69.0589
    endloop
  endfacet
  facet normal 0.827341 -0.268894 0.493157
    outer loop
      vertex 33 -14.6925 42.8018
      vertex 19.7695 -7.24444 69.0589
      vertex 18.5294 -7.5 71
    endloop
  endfacet
  facet normal -0.180869 -0.850933 0.493152
    outer loop
      vertex -1.20208 -11.437 86
      vertex -12.3607 -38.0423 36
      vertex -4.18114 -39.7809 36
    endloop
  endfacet
  facet normal 0.180869 -0.850933 0.493152
    outer loop
      vertex 12.3607 -38.0423 36
      vertex 1.20208 -11.437 86
      vertex 4.18114 -39.7809 36
    endloop
  endfacet
  facet normal -0.753388 0.43498 0.493152
    outer loop
      vertex -9.30369 6.75953 86
      vertex -32.3607 23.5114 36
      vertex -10.5058 4.67747 86
    endloop
  endfacet
  facet normal -0.865178 -0.0909331 0.493151
    outer loop
      vertex -11.5 0 86
      vertex -40 0 36
      vertex -11.2487 -2.39098 86
    endloop
  endfacet
  facet normal 0.180888 0.850928 0.493153
    outer loop
      vertex 12.3607 38.0423 36
      vertex 1.20208 11.437 86
      vertex 3.55369 10.9371 86
    endloop
  endfacet
  facet normal -0.646493 -0.582108 0.493151
    outer loop
      vertex -7.695 -8.54617 86
      vertex -32.3607 -23.5114 36
      vertex -26.7652 -29.7258 36
    endloop
  endfacet
  facet normal 0.865174 -0.0909845 0.49315
    outer loop
      vertex 15.7268 -2.01858 78.2124
      vertex 11.2487 -2.39098 86
      vertex 15.9052 -3.38076 77.6481
    endloop
  endfacet
  facet normal 0.865179 -0.0908939 0.493156
    outer loop
      vertex 23.9753 -1.94114 63.7556
      vertex 33 -0.582126 48.1734
      vertex 24.0866 -1.32337 63.6742
    endloop
  endfacet
  facet normal 0.865175 -0.0909496 0.493154
    outer loop
      vertex 33 -7.01437 46.9873
      vertex 23.9753 -1.94114 63.7556
      vertex 23.3581 -3.75 64.5048
    endloop
  endfacet
  facet normal 0.865183 -0.0908961 0.493149
    outer loop
      vertex 33 -7.01437 46.9873
      vertex 23.3581 -3.75 64.5048
      vertex 22.7672 -4.83931 65.3407
    endloop
  endfacet
  facet normal 0.865178 -0.0909367 0.493151
    outer loop
      vertex 23.9753 -1.94114 63.7556
      vertex 33 -7.01437 46.9873
      vertex 33 -0.582126 48.1734
    endloop
  endfacet
  facet normal 0.865178 -0.0909331 0.493151
    outer loop
      vertex 11.2487 -2.39098 86
      vertex 15.775 0 78.5
      vertex 11.5 0 86
    endloop
  endfacet
  facet normal 0.86518 -0.0909639 0.493143
    outer loop
      vertex 15.775 0 78.5
      vertex 11.2487 -2.39098 86
      vertex 15.7166 -1.94114 78.2444
    endloop
  endfacet
  facet normal 0.865239 -0.0898539 0.493241
    outer loop
      vertex 15.7166 -1.94114 78.2444
      vertex 11.2487 -2.39098 86
      vertex 15.7268 -2.01858 78.2124
    endloop
  endfacet
  facet normal 0.865181 -0.0909001 0.493153
    outer loop
      vertex 24.325 0 63.5
      vertex 33 -0.582126 48.1734
      vertex 33 0 48.2807
    endloop
  endfacet
  facet normal 0.865176 -0.0909428 0.493152
    outer loop
      vertex 33 -0.582126 48.1734
      vertex 24.325 0 63.5
      vertex 24.0866 -1.32337 63.6742
    endloop
  endfacet
  facet normal 0.353843 0.79473 0.493151
    outer loop
      vertex 12.3607 38.0423 36
      vertex 5.75 9.95929 86
      vertex 20 34.641 36
    endloop
  endfacet
  facet normal -0.646493 0.582108 0.493151
    outer loop
      vertex -26.7652 29.7258 36
      vertex -32.3607 23.5114 36
      vertex -7.695 8.54617 86
    endloop
  endfacet
  facet normal 0.180869 0.850933 0.493152
    outer loop
      vertex 4.18114 39.7809 36
      vertex 1.20208 11.437 86
      vertex 12.3607 38.0423 36
    endloop
  endfacet
  facet normal 0 0.869943 0.493152
    outer loop
      vertex 4.18114 39.7809 36
      vertex -1.20208 11.437 86
      vertex 1.20208 11.437 86
    endloop
  endfacet
  facet normal 0 0.869943 0.493152
    outer loop
      vertex -1.20208 11.437 86
      vertex 4.18114 39.7809 36
      vertex -4.18114 39.7809 36
    endloop
  endfacet
  facet normal 0.753394 -0.43497 0.493151
    outer loop
      vertex 32.3607 -23.5114 36
      vertex 33 -14.6925 42.8018
      vertex 10.5058 -4.67747 86
    endloop
  endfacet
  facet normal 0.753393 -0.434971 0.493153
    outer loop
      vertex 33 -14.6925 42.8018
      vertex 32.3607 -23.5114 36
      vertex 33 -22.4041 36
    endloop
  endfacet
  facet normal -0.753388 -0.43498 0.493152
    outer loop
      vertex -10.5058 -4.67747 86
      vertex -32.3607 -23.5114 36
      vertex -9.30369 -6.75953 86
    endloop
  endfacet
  facet normal -0.353843 -0.79473 0.493151
    outer loop
      vertex -5.75 -9.95929 86
      vertex -20 -34.641 36
      vertex -12.3607 -38.0423 36
    endloop
  endfacet
  facet normal -0.180888 -0.850928 0.493153
    outer loop
      vertex -3.55369 -10.9371 86
      vertex -12.3607 -38.0423 36
      vertex -1.20208 -11.437 86
    endloop
  endfacet
  facet normal -0.753394 0.434971 0.493151
    outer loop
      vertex -32.3607 23.5114 36
      vertex -36.5418 16.2695 36
      vertex -10.5058 4.67747 86
    endloop
  endfacet
  facet normal -0.827368 0.268819 0.493152
    outer loop
      vertex -10.5058 4.67747 86
      vertex -39.1259 8.31647 36
      vertex -11.2487 2.39098 86
    endloop
  endfacet
  facet normal 0 -0.869943 0.493152
    outer loop
      vertex -4.18114 -39.7809 36
      vertex 1.20208 -11.437 86
      vertex -1.20208 -11.437 86
    endloop
  endfacet
  facet normal 0 -0.869943 0.493152
    outer loop
      vertex 1.20208 -11.437 86
      vertex -4.18114 -39.7809 36
      vertex 4.18114 -39.7809 36
    endloop
  endfacet
  facet normal 0.51134 -0.703799 0.493151
    outer loop
      vertex 26.7652 -29.7258 36
      vertex 7.695 -8.54617 86
      vertex 20 -34.641 36
    endloop
  endfacet
  facet normal 0.353843 -0.79473 0.493151
    outer loop
      vertex 20 -34.641 36
      vertex 5.75 -9.95929 86
      vertex 12.3607 -38.0423 36
    endloop
  endfacet
  facet normal 0.82737 -0.26882 0.493148
    outer loop
      vertex 10.5058 -4.67747 86
      vertex 15.9052 -3.38076 77.6481
      vertex 11.2487 -2.39098 86
    endloop
  endfacet
  facet normal 0.827382 -0.268751 0.493166
    outer loop
      vertex 15.9052 -3.38076 77.6481
      vertex 10.5058 -4.67747 86
      vertex 15.8764 -3.75 77.4952
    endloop
  endfacet
  facet normal 0.827365 -0.268841 0.493145
    outer loop
      vertex 10.5058 -4.67747 86
      vertex 16.0821 -5.3033 76.3033
      vertex 15.8764 -3.75 77.4952
    endloop
  endfacet
  facet normal 0.827459 -0.268492 0.493177
    outer loop
      vertex 16.0821 -5.3033 76.3033
      vertex 10.5058 -4.67747 86
      vertex 16.122 -5.39157 76.1883
    endloop
  endfacet
  facet normal 0.827345 -0.268898 0.493147
    outer loop
      vertex 22.4042 -5.3033 65.6967
      vertex 33 -7.01437 46.9873
      vertex 22.7672 -4.83931 65.3407
    endloop
  endfacet
  facet normal 0.827365 -0.268827 0.493152
    outer loop
      vertex 33 -7.53757 46.7021
      vertex 22.4042 -5.3033 65.6967
      vertex 21.547 -6.08135 66.7107
    endloop
  endfacet
  facet normal 0.827367 -0.268821 0.493152
    outer loop
      vertex 22.4042 -5.3033 65.6967
      vertex 33 -7.53757 46.7021
      vertex 33 -7.01437 46.9873
    endloop
  endfacet
  facet normal -0.353843 0.79473 0.493151
    outer loop
      vertex -12.3607 38.0423 36
      vertex -20 34.641 36
      vertex -5.75 9.95929 86
    endloop
  endfacet
  facet normal 0.646495 -0.582104 0.493152
    outer loop
      vertex 9.30369 -6.75953 86
      vertex 7.695 -8.54617 86
      vertex 32.3607 -23.5114 36
    endloop
  endfacet
  facet normal -0.511339 -0.7038 0.493151
    outer loop
      vertex -7.695 -8.54617 86
      vertex -20 -34.641 36
      vertex -5.75 -9.95929 86
    endloop
  endfacet
  facet normal 0.353822 -0.794739 0.493153
    outer loop
      vertex 5.75 -9.95929 86
      vertex 3.55369 -10.9371 86
      vertex 12.3607 -38.0423 36
    endloop
  endfacet
  facet normal -0.353822 -0.794739 0.493153
    outer loop
      vertex -5.75 -9.95929 86
      vertex -12.3607 -38.0423 36
      vertex -3.55369 -10.9371 86
    endloop
  endfacet
  facet normal -0.646495 0.582104 0.493152
    outer loop
      vertex -7.695 8.54617 86
      vertex -32.3607 23.5114 36
      vertex -9.30369 6.75953 86
    endloop
  endfacet
  facet normal -0.51134 0.703799 0.493151
    outer loop
      vertex -20 34.641 36
      vertex -26.7652 29.7258 36
      vertex -7.695 8.54617 86
    endloop
  endfacet
  facet normal 0 0 1
    outer loop
      vertex 6.5 0 86
      vertex 11.5 0 86
      vertex 11.2487 2.39098 86
    endloop
  endfacet
  facet normal 0 0 1
    outer loop
      vertex 6.21122 1.91591 86
      vertex 11.2487 2.39098 86
      vertex 10.5058 4.67747 86
    endloop
  endfacet
  facet normal 0 0 1
    outer loop
      vertex 11.5 0 86
      vertex 6.5 0 86
      vertex 11.2487 -2.39098 86
    endloop
  endfacet
  facet normal 0 0 1
    outer loop
      vertex 5.37055 3.66158 86
      vertex 10.5058 4.67747 86
      vertex 9.30369 6.75953 86
    endloop
  endfacet
  facet normal -0 0 1
    outer loop
      vertex 6.21122 -1.91591 86
      vertex 11.2487 -2.39098 86
      vertex 6.5 0 86
    endloop
  endfacet
  facet normal 0 0 1
    outer loop
      vertex 5.37055 3.66158 86
      vertex 9.30369 6.75953 86
      vertex 7.695 8.54617 86
    endloop
  endfacet
  facet normal 0 0 1
    outer loop
      vertex 11.2487 -2.39098 86
      vertex 6.21122 -1.91591 86
      vertex 10.5058 -4.67747 86
    endloop
  endfacet
  facet normal -0 0 1
    outer loop
      vertex 5.37055 -3.66158 86
      vertex 10.5058 -4.67747 86
      vertex 6.21122 -1.91591 86
    endloop
  endfacet
  facet normal 0 0 1
    outer loop
      vertex 11.2487 2.39098 86
      vertex 6.21122 1.91591 86
      vertex 6.5 0 86
    endloop
  endfacet
  facet normal 0 0 1
    outer loop
      vertex 4.05268 5.0819 86
      vertex 7.695 8.54617 86
      vertex 5.75 9.95929 86
    endloop
  endfacet
  facet normal 0 0 1
    outer loop
      vertex 10.5058 4.67747 86
      vertex 5.37055 3.66158 86
      vertex 6.21122 1.91591 86
    endloop
  endfacet
  facet normal 0 0 1
    outer loop
      vertex 7.695 8.54617 86
      vertex 4.05268 5.0819 86
      vertex 5.37055 3.66158 86
    endloop
  endfacet
  facet normal 0 0 1
    outer loop
      vertex 2.37472 6.05068 86
      vertex 5.75 9.95929 86
      vertex 3.55369 10.9371 86
    endloop
  endfacet
  facet normal 0 0 1
    outer loop
      vertex 5.75 9.95929 86
      vertex 2.37472 6.05068 86
      vertex 4.05268 5.0819 86
    endloop
  endfacet
  facet normal 0 0 1
    outer loop
      vertex 0.485745 6.48182 86
      vertex 3.55369 10.9371 86
      vertex 1.20208 11.437 86
    endloop
  endfacet
  facet normal 0 0 1
    outer loop
      vertex 3.55369 10.9371 86
      vertex 0.485745 6.48182 86
      vertex 2.37472 6.05068 86
    endloop
  endfacet
  facet normal -0 0 1
    outer loop
      vertex -1.20208 11.437 86
      vertex 0.485745 6.48182 86
      vertex 1.20208 11.437 86
    endloop
  endfacet
  facet normal 0 0 1
    outer loop
      vertex -1.20208 11.437 86
      vertex -1.44639 6.33703 86
      vertex 0.485745 6.48182 86
    endloop
  endfacet
  facet normal -0 0 1
    outer loop
      vertex -3.55369 10.9371 86
      vertex -1.44639 6.33703 86
      vertex -1.20208 11.437 86
    endloop
  endfacet
  facet normal 0 0 1
    outer loop
      vertex -1.44639 6.33703 86
      vertex -3.55369 10.9371 86
      vertex -3.25 5.62916 86
    endloop
  endfacet
  facet normal -0 0 1
    outer loop
      vertex -5.75 9.95929 86
      vertex -3.25 5.62916 86
      vertex -3.55369 10.9371 86
    endloop
  endfacet
  facet normal -0 0 1
    outer loop
      vertex -7.695 8.54617 86
      vertex -3.25 5.62916 86
      vertex -5.75 9.95929 86
    endloop
  endfacet
  facet normal 0 0 1
    outer loop
      vertex -3.25 5.62916 86
      vertex -7.695 8.54617 86
      vertex -4.76484 4.42112 86
    endloop
  endfacet
  facet normal -0 0 1
    outer loop
      vertex -9.30369 6.75953 86
      vertex -4.76484 4.42112 86
      vertex -7.695 8.54617 86
    endloop
  endfacet
  facet normal -0 0 1
    outer loop
      vertex -10.5058 4.67747 86
      vertex -5.8563 2.82024 86
      vertex -9.30369 6.75953 86
    endloop
  endfacet
  facet normal 0 0 1
    outer loop
      vertex -4.76484 4.42112 86
      vertex -9.30369 6.75953 86
      vertex -5.8563 2.82024 86
    endloop
  endfacet
  facet normal 0 0 1
    outer loop
      vertex 10.5058 -4.67747 86
      vertex 5.37055 -3.66158 86
      vertex 9.30369 -6.75953 86
    endloop
  endfacet
  facet normal 0 0 1
    outer loop
      vertex 9.30369 -6.75953 86
      vertex 5.37055 -3.66158 86
      vertex 7.695 -8.54617 86
    endloop
  endfacet
  facet normal -0 0 1
    outer loop
      vertex 4.05268 -5.0819 86
      vertex 7.695 -8.54617 86
      vertex 5.37055 -3.66158 86
    endloop
  endfacet
  facet normal 0 0 1
    outer loop
      vertex 7.695 -8.54617 86
      vertex 4.05268 -5.0819 86
      vertex 5.75 -9.95929 86
    endloop
  endfacet
  facet normal -0 0 1
    outer loop
      vertex 2.37472 -6.05068 86
      vertex 5.75 -9.95929 86
      vertex 4.05268 -5.0819 86
    endloop
  endfacet
  facet normal 0 0 1
    outer loop
      vertex 5.75 -9.95929 86
      vertex 2.37472 -6.05068 86
      vertex 3.55369 -10.9371 86
    endloop
  endfacet
  facet normal -0 0 1
    outer loop
      vertex 0.485745 -6.48182 86
      vertex 3.55369 -10.9371 86
      vertex 2.37472 -6.05068 86
    endloop
  endfacet
  facet normal 0 0 1
    outer loop
      vertex 3.55369 -10.9371 86
      vertex 0.485745 -6.48182 86
      vertex 1.20208 -11.437 86
    endloop
  endfacet
  facet normal 0 0 1
    outer loop
      vertex 0.485745 -6.48182 86
      vertex -1.20208 -11.437 86
      vertex 1.20208 -11.437 86
    endloop
  endfacet
  facet normal 0 0 1
    outer loop
      vertex -1.44639 -6.33703 86
      vertex -1.20208 -11.437 86
      vertex 0.485745 -6.48182 86
    endloop
  endfacet
  facet normal 0 0 1
    outer loop
      vertex -3.55369 -10.9371 86
      vertex -1.44639 -6.33703 86
      vertex -3.25 -5.62916 86
    endloop
  endfacet
  facet normal 0 0 1
    outer loop
      vertex -1.44639 -6.33703 86
      vertex -3.55369 -10.9371 86
      vertex -1.20208 -11.437 86
    endloop
  endfacet
  facet normal 0 0 1
    outer loop
      vertex -7.695 -8.54617 86
      vertex -3.25 -5.62916 86
      vertex -4.76484 -4.42112 86
    endloop
  endfacet
  facet normal 0 0 1
    outer loop
      vertex -3.25 -5.62916 86
      vertex -5.75 -9.95929 86
      vertex -3.55369 -10.9371 86
    endloop
  endfacet
  facet normal 0 0 1
    outer loop
      vertex -9.30369 -6.75953 86
      vertex -4.76484 -4.42112 86
      vertex -5.8563 -2.82024 86
    endloop
  endfacet
  facet normal -0 0 1
    outer loop
      vertex -11.2487 -2.39098 86
      vertex -5.8563 -2.82024 86
      vertex -6.4274 -0.968774 86
    endloop
  endfacet
  facet normal 0 0 1
    outer loop
      vertex -11.2487 2.39098 86
      vertex -5.8563 2.82024 86
      vertex -10.5058 4.67747 86
    endloop
  endfacet
  facet normal 0 0 1
    outer loop
      vertex -3.25 -5.62916 86
      vertex -7.695 -8.54617 86
      vertex -5.75 -9.95929 86
    endloop
  endfacet
  facet normal 0 0 1
    outer loop
      vertex -5.8563 2.82024 86
      vertex -11.2487 2.39098 86
      vertex -6.4274 0.968774 86
    endloop
  endfacet
  facet normal 0 0 1
    outer loop
      vertex -4.76484 -4.42112 86
      vertex -9.30369 -6.75953 86
      vertex -7.695 -8.54617 86
    endloop
  endfacet
  facet normal 0 0 1
    outer loop
      vertex -11.5 0 86
      vertex -6.4274 0.968774 86
      vertex -11.2487 2.39098 86
    endloop
  endfacet
  facet normal 0 0 1
    outer loop
      vertex -5.8563 -2.82024 86
      vertex -10.5058 -4.67747 86
      vertex -9.30369 -6.75953 86
    endloop
  endfacet
  facet normal 0 0 1
    outer loop
      vertex -6.4274 0.968774 86
      vertex -11.5 0 86
      vertex -6.4274 -0.968774 86
    endloop
  endfacet
  facet normal 0 0 1
    outer loop
      vertex -5.8563 -2.82024 86
      vertex -11.2487 -2.39098 86
      vertex -10.5058 -4.67747 86
    endloop
  endfacet
  facet normal 0 0 1
    outer loop
      vertex -6.4274 -0.968774 86
      vertex -11.5 0 86
      vertex -11.2487 -2.39098 86
    endloop
  endfacet
  facet normal 0 0.130548 0.991442
    outer loop
      vertex 24.5 1.94114 78.2444
      vertex 15.775 0 78.5
      vertex 24.5 0 78.5
    endloop
  endfacet
  facet normal 0 0.130548 0.991442
    outer loop
      vertex 15.775 0 78.5
      vertex 24.5 1.94114 78.2444
      vertex 15.7166 1.94114 78.2444
    endloop
  endfacet
  facet normal 0 0.608765 -0.793351
    outer loop
      vertex 23.3581 3.75 64.5048
      vertex 24.5 5.3033 65.6967
      vertex 24.5 3.75 64.5048
    endloop
  endfacet
  facet normal -2.01411e-05 0.608774 -0.793343
    outer loop
      vertex 22.7672 4.83931 65.3407
      vertex 24.5 5.3033 65.6967
      vertex 23.3581 3.75 64.5048
    endloop
  endfacet
  facet normal 0 0.608727 -0.79338
    outer loop
      vertex 24.5 5.3033 65.6967
      vertex 22.7672 4.83931 65.3407
      vertex 22.4042 5.3033 65.6967
    endloop
  endfacet
  facet normal -3.56047e-06 0.38266 0.923889
    outer loop
      vertex 24.5 3.75 77.4952
      vertex 15.9052 3.38076 77.6481
      vertex 24.5 1.94114 78.2444
    endloop
  endfacet
  facet normal 0 0.382589 0.923919
    outer loop
      vertex 15.9052 3.38076 77.6481
      vertex 24.5 3.75 77.4952
      vertex 15.8764 3.75 77.4952
    endloop
  endfacet
  facet normal 8.46547e-06 0.382721 0.923864
    outer loop
      vertex 15.7268 2.01858 78.2124
      vertex 24.5 1.94114 78.2444
      vertex 15.9052 3.38076 77.6481
    endloop
  endfacet
  facet normal 0 0.381902 0.924203
    outer loop
      vertex 24.5 1.94114 78.2444
      vertex 15.7268 2.01858 78.2124
      vertex 15.7166 1.94114 78.2444
    endloop
  endfacet
  facet normal 0 0.923883 -0.382674
    outer loop
      vertex 21.0911 6.49519 67.25
      vertex 24.5 7.24444 69.0589
      vertex 24.5 6.49519 67.25
    endloop
  endfacet
  facet normal 0 0.923883 -0.382674
    outer loop
      vertex 24.5 7.24444 69.0589
      vertex 21.0911 6.49519 67.25
      vertex 19.7695 7.24444 69.0589
    endloop
  endfacet
  facet normal 0 0.991444 -0.130531
    outer loop
      vertex 19.7695 7.24444 69.0589
      vertex 24.5 7.5 71
      vertex 24.5 7.24444 69.0589
    endloop
  endfacet
  facet normal 0 0.991444 -0.130531
    outer loop
      vertex 24.5 7.5 71
      vertex 19.7695 7.24444 69.0589
      vertex 18.5294 7.5 71
    endloop
  endfacet
  facet normal 0 0.130508 -0.991447
    outer loop
      vertex 24.0866 1.32337 63.6742
      vertex 24.5 0 63.5
      vertex 24.325 0 63.5
    endloop
  endfacet
  facet normal 0.000131931 0.130548 -0.991442
    outer loop
      vertex 24.5 0 63.5
      vertex 24.0866 1.32337 63.6742
      vertex 24.5 1.94114 63.7556
    endloop
  endfacet
  facet normal 0 0.130635 -0.991431
    outer loop
      vertex 24.5 1.94114 63.7556
      vertex 24.0866 1.32337 63.6742
      vertex 23.9753 1.94114 63.7556
    endloop
  endfacet
  facet normal 0 -0.991444 0.130531
    outer loop
      vertex 18.5294 -7.5 71
      vertex 24.5 -7.24444 72.9411
      vertex 17.4554 -7.24444 72.9411
    endloop
  endfacet
  facet normal 0 -0.991444 0.130531
    outer loop
      vertex 24.5 -7.24444 72.9411
      vertex 18.5294 -7.5 71
      vertex 24.5 -7.5 71
    endloop
  endfacet
  facet normal 0 -0.38266 -0.923889
    outer loop
      vertex 24.5 -3.75 64.5048
      vertex 23.9753 -1.94114 63.7556
      vertex 24.5 -1.94114 63.7556
    endloop
  endfacet
  facet normal 0 -0.38266 -0.923889
    outer loop
      vertex 23.9753 -1.94114 63.7556
      vertex 24.5 -3.75 64.5048
      vertex 23.3581 -3.75 64.5048
    endloop
  endfacet
  facet normal 0 0.793339 -0.60878
    outer loop
      vertex 24.5 6.49519 67.25
      vertex 21.547 6.08135 66.7107
      vertex 21.0911 6.49519 67.25
    endloop
  endfacet
  facet normal 0 0.793353 -0.608762
    outer loop
      vertex 22.4042 5.3033 65.6967
      vertex 24.5 6.49519 67.25
      vertex 24.5 5.3033 65.6967
    endloop
  endfacet
  facet normal -7.20571e-06 0.793358 -0.608756
    outer loop
      vertex 24.5 6.49519 67.25
      vertex 22.4042 5.3033 65.6967
      vertex 21.547 6.08135 66.7107
    endloop
  endfacet
  facet normal 0 0.793262 0.60888
    outer loop
      vertex 24.5 5.3033 76.3033
      vertex 16.122 5.39157 76.1883
      vertex 16.0821 5.3033 76.3033
    endloop
  endfacet
  facet normal -0 0.793353 0.608762
    outer loop
      vertex 16.6207 6.49519 74.75
      vertex 24.5 5.3033 76.3033
      vertex 24.5 6.49519 74.75
    endloop
  endfacet
  facet normal 2.78102e-06 0.79336 0.608753
    outer loop
      vertex 24.5 5.3033 76.3033
      vertex 16.6207 6.49519 74.75
      vertex 16.122 5.39157 76.1883
    endloop
  endfacet
  facet normal 0 -0.608765 -0.793351
    outer loop
      vertex 24.5 -5.3033 65.6967
      vertex 23.3581 -3.75 64.5048
      vertex 24.5 -3.75 64.5048
    endloop
  endfacet
  facet normal -2.01411e-05 -0.608774 -0.793343
    outer loop
      vertex 24.5 -5.3033 65.6967
      vertex 22.7672 -4.83931 65.3407
      vertex 23.3581 -3.75 64.5048
    endloop
  endfacet
  facet normal 0 -0.608727 -0.79338
    outer loop
      vertex 22.7672 -4.83931 65.3407
      vertex 24.5 -5.3033 65.6967
      vertex 22.4042 -5.3033 65.6967
    endloop
  endfacet
  facet normal 0 -0.793262 0.60888
    outer loop
      vertex 16.122 -5.39157 76.1883
      vertex 24.5 -5.3033 76.3033
      vertex 16.0821 -5.3033 76.3033
    endloop
  endfacet
  facet normal 2.78102e-06 -0.79336 0.608753
    outer loop
      vertex 16.6207 -6.49519 74.75
      vertex 24.5 -5.3033 76.3033
      vertex 16.122 -5.39157 76.1883
    endloop
  endfacet
  facet normal 0 -0.793353 0.608762
    outer loop
      vertex 24.5 -5.3033 76.3033
      vertex 16.6207 -6.49519 74.75
      vertex 24.5 -6.49519 74.75
    endloop
  endfacet
  facet normal 0 0.38266 -0.923889
    outer loop
      vertex 23.9753 1.94114 63.7556
      vertex 24.5 3.75 64.5048
      vertex 24.5 1.94114 63.7556
    endloop
  endfacet
  facet normal 0 0.38266 -0.923889
    outer loop
      vertex 24.5 3.75 64.5048
      vertex 23.9753 1.94114 63.7556
      vertex 23.3581 3.75 64.5048
    endloop
  endfacet
  facet normal 0 -0.991444 -0.130531
    outer loop
      vertex 19.7695 -7.24444 69.0589
      vertex 24.5 -7.5 71
      vertex 18.5294 -7.5 71
    endloop
  endfacet
  facet normal 0 -0.991444 -0.130531
    outer loop
      vertex 24.5 -7.5 71
      vertex 19.7695 -7.24444 69.0589
      vertex 24.5 -7.24444 69.0589
    endloop
  endfacet
  facet normal 0 -0.923883 -0.382674
    outer loop
      vertex 21.0911 -6.49519 67.25
      vertex 24.5 -7.24444 69.0589
      vertex 19.7695 -7.24444 69.0589
    endloop
  endfacet
  facet normal 0 -0.923883 -0.382674
    outer loop
      vertex 24.5 -7.24444 69.0589
      vertex 21.0911 -6.49519 67.25
      vertex 24.5 -6.49519 67.25
    endloop
  endfacet
  facet normal -0 0.608765 0.793351
    outer loop
      vertex 16.0821 5.3033 76.3033
      vertex 24.5 3.75 77.4952
      vertex 24.5 5.3033 76.3033
    endloop
  endfacet
  facet normal 0 0.608765 0.793351
    outer loop
      vertex 24.5 3.75 77.4952
      vertex 16.0821 5.3033 76.3033
      vertex 15.8764 3.75 77.4952
    endloop
  endfacet
  facet normal 1 0 0
    outer loop
      vertex 24.5 2.5 71
      vertex 24.5 7.5 71
      vertex 24.5 7.24444 72.9411
    endloop
  endfacet
  facet normal 1 0 0
    outer loop
      vertex 24.5 2.5 71
      vertex 24.5 7.24444 72.9411
      vertex 24.5 6.49519 74.75
    endloop
  endfacet
  facet normal 1 0 0
    outer loop
      vertex 24.5 7.5 71
      vertex 24.5 2.5 71
      vertex 24.5 7.24444 69.0589
    endloop
  endfacet
  facet normal 1 0 0
    outer loop
      vertex 24.5 1.76777 72.7678
      vertex 24.5 6.49519 74.75
      vertex 24.5 5.3033 76.3033
    endloop
  endfacet
  facet normal 1 0 0
    outer loop
      vertex 24.5 7.24444 69.0589
      vertex 24.5 2.5 71
      vertex 24.5 6.49519 67.25
    endloop
  endfacet
  facet normal 1 0 0
    outer loop
      vertex 24.5 1.76777 72.7678
      vertex 24.5 5.3033 76.3033
      vertex 24.5 3.75 77.4952
    endloop
  endfacet
  facet normal 1 -0 0
    outer loop
      vertex 24.5 1.76777 69.2322
      vertex 24.5 6.49519 67.25
      vertex 24.5 2.5 71
    endloop
  endfacet
  facet normal 1 0 0
    outer loop
      vertex 24.5 6.49519 67.25
      vertex 24.5 1.76777 69.2322
      vertex 24.5 5.3033 65.6967
    endloop
  endfacet
  facet normal 1 0 0
    outer loop
      vertex 24.5 1.76777 72.7678
      vertex 24.5 3.75 77.4952
      vertex 24.5 1.94114 78.2444
    endloop
  endfacet
  facet normal 1 0 0
    outer loop
      vertex 24.5 6.49519 74.75
      vertex 24.5 1.76777 72.7678
      vertex 24.5 2.5 71
    endloop
  endfacet
  facet normal 1 0 0
    outer loop
      vertex 24.5 0 73.5
      vertex 24.5 1.94114 78.2444
      vertex 24.5 0 78.5
    endloop
  endfacet
  facet normal 1 0 0
    outer loop
      vertex 24.5 1.94114 78.2444
      vertex 24.5 0 73.5
      vertex 24.5 1.76777 72.7678
    endloop
  endfacet
  facet normal 1 -0 0
    outer loop
      vertex 24.5 -1.94114 78.2444
      vertex 24.5 0 73.5
      vertex 24.5 0 78.5
    endloop
  endfacet
  facet normal 1 0 0
    outer loop
      vertex 24.5 0 73.5
      vertex 24.5 -1.94114 78.2444
      vertex 24.5 -1.76777 72.7678
    endloop
  endfacet
  facet normal 1 -0 0
    outer loop
      vertex 24.5 -3.75 77.4952
      vertex 24.5 -1.76777 72.7678
      vertex 24.5 -1.94114 78.2444
    endloop
  endfacet
  facet normal 1 -0 0
    outer loop
      vertex 24.5 -5.3033 76.3033
      vertex 24.5 -1.76777 72.7678
      vertex 24.5 -3.75 77.4952
    endloop
  endfacet
  facet normal 1 0 0
    outer loop
      vertex 24.5 5.3033 65.6967
      vertex 24.5 1.76777 69.2322
      vertex 24.5 3.75 64.5048
    endloop
  endfacet
  facet normal 1 0 0
    outer loop
      vertex 24.5 3.75 64.5048
      vertex 24.5 1.76777 69.2322
      vertex 24.5 1.94114 63.7556
    endloop
  endfacet
  facet normal 1 -0 0
    outer loop
      vertex 24.5 0 68.5
      vertex 24.5 1.94114 63.7556
      vertex 24.5 1.76777 69.2322
    endloop
  endfacet
  facet normal 1 0 0
    outer loop
      vertex 24.5 0 68.5
      vertex 24.5 0 63.5
      vertex 24.5 1.94114 63.7556
    endloop
  endfacet
  facet normal 1 0 0
    outer loop
      vertex 24.5 -1.94114 63.7556
      vertex 24.5 0 68.5
      vertex 24.5 -1.76777 69.2322
    endloop
  endfacet
  facet normal 1 0 0
    outer loop
      vertex 24.5 0 68.5
      vertex 24.5 -1.94114 63.7556
      vertex 24.5 0 63.5
    endloop
  endfacet
  facet normal 1 0 0
    outer loop
      vertex 24.5 -6.49519 67.25
      vertex 24.5 -1.76777 69.2322
      vertex 24.5 -2.5 71
    endloop
  endfacet
  facet normal 1 -0 0
    outer loop
      vertex 24.5 -6.49519 74.75
      vertex 24.5 -1.76777 72.7678
      vertex 24.5 -5.3033 76.3033
    endloop
  endfacet
  facet normal 1 0 0
    outer loop
      vertex 24.5 -1.76777 69.2322
      vertex 24.5 -3.75 64.5048
      vertex 24.5 -1.94114 63.7556
    endloop
  endfacet
  facet normal 1 0 0
    outer loop
      vertex 24.5 -1.76777 72.7678
      vertex 24.5 -6.49519 74.75
      vertex 24.5 -2.5 71
    endloop
  endfacet
  facet normal 1 0 0
    outer loop
      vertex 24.5 -1.76777 69.2322
      vertex 24.5 -5.3033 65.6967
      vertex 24.5 -3.75 64.5048
    endloop
  endfacet
  facet normal 1 -0 0
    outer loop
      vertex 24.5 -7.24444 72.9411
      vertex 24.5 -2.5 71
      vertex 24.5 -6.49519 74.75
    endloop
  endfacet
  facet normal 1 0 0
    outer loop
      vertex 24.5 -1.76777 69.2322
      vertex 24.5 -6.49519 67.25
      vertex 24.5 -5.3033 65.6967
    endloop
  endfacet
  facet normal 1 0 0
    outer loop
      vertex 24.5 -7.5 71
      vertex 24.5 -2.5 71
      vertex 24.5 -7.24444 72.9411
    endloop
  endfacet
  facet normal 1 0 0
    outer loop
      vertex 24.5 -2.5 71
      vertex 24.5 -7.24444 69.0589
      vertex 24.5 -6.49519 67.25
    endloop
  endfacet
  facet normal 1 0 0
    outer loop
      vertex 24.5 -2.5 71
      vertex 24.5 -7.5 71
      vertex 24.5 -7.24444 69.0589
    endloop
  endfacet
  facet normal 0.000131931 -0.130548 -0.991442
    outer loop
      vertex 24.0866 -1.32337 63.6742
      vertex 24.5 0 63.5
      vertex 24.5 -1.94114 63.7556
    endloop
  endfacet
  facet normal -0 -0.130508 -0.991447
    outer loop
      vertex 24.5 0 63.5
      vertex 24.0866 -1.32337 63.6742
      vertex 24.325 0 63.5
    endloop
  endfacet
  facet normal 0 -0.130635 -0.991431
    outer loop
      vertex 24.0866 -1.32337 63.6742
      vertex 24.5 -1.94114 63.7556
      vertex 23.9753 -1.94114 63.7556
    endloop
  endfacet
  facet normal -0 0.923883 0.382674
    outer loop
      vertex 17.4554 7.24444 72.9411
      vertex 24.5 6.49519 74.75
      vertex 24.5 7.24444 72.9411
    endloop
  endfacet
  facet normal 0 0.923883 0.382674
    outer loop
      vertex 24.5 6.49519 74.75
      vertex 17.4554 7.24444 72.9411
      vertex 16.6207 6.49519 74.75
    endloop
  endfacet
  facet normal 0 -0.793339 -0.60878
    outer loop
      vertex 21.547 -6.08135 66.7107
      vertex 24.5 -6.49519 67.25
      vertex 21.0911 -6.49519 67.25
    endloop
  endfacet
  facet normal -7.20571e-06 -0.793358 -0.608756
    outer loop
      vertex 22.4042 -5.3033 65.6967
      vertex 24.5 -6.49519 67.25
      vertex 21.547 -6.08135 66.7107
    endloop
  endfacet
  facet normal 0 -0.793353 -0.608762
    outer loop
      vertex 24.5 -6.49519 67.25
      vertex 22.4042 -5.3033 65.6967
      vertex 24.5 -5.3033 65.6967
    endloop
  endfacet
  facet normal 0 -0.608765 0.793351
    outer loop
      vertex 24.5 -3.75 77.4952
      vertex 16.0821 -5.3033 76.3033
      vertex 24.5 -5.3033 76.3033
    endloop
  endfacet
  facet normal 0 -0.608765 0.793351
    outer loop
      vertex 16.0821 -5.3033 76.3033
      vertex 24.5 -3.75 77.4952
      vertex 15.8764 -3.75 77.4952
    endloop
  endfacet
  facet normal 0 -0.130548 0.991442
    outer loop
      vertex 15.775 0 78.5
      vertex 24.5 -1.94114 78.2444
      vertex 24.5 0 78.5
    endloop
  endfacet
  facet normal 0 -0.130548 0.991442
    outer loop
      vertex 24.5 -1.94114 78.2444
      vertex 15.775 0 78.5
      vertex 15.7166 -1.94114 78.2444
    endloop
  endfacet
  facet normal 0 -0.923883 0.382674
    outer loop
      vertex 17.4554 -7.24444 72.9411
      vertex 24.5 -6.49519 74.75
      vertex 16.6207 -6.49519 74.75
    endloop
  endfacet
  facet normal 0 -0.923883 0.382674
    outer loop
      vertex 24.5 -6.49519 74.75
      vertex 17.4554 -7.24444 72.9411
      vertex 24.5 -7.24444 72.9411
    endloop
  endfacet
  facet normal -0 0.991444 0.130531
    outer loop
      vertex 18.5294 7.5 71
      vertex 24.5 7.24444 72.9411
      vertex 24.5 7.5 71
    endloop
  endfacet
  facet normal 0 0.991444 0.130531
    outer loop
      vertex 24.5 7.24444 72.9411
      vertex 18.5294 7.5 71
      vertex 17.4554 7.24444 72.9411
    endloop
  endfacet
  facet normal -3.56047e-06 -0.38266 0.923889
    outer loop
      vertex 24.5 -1.94114 78.2444
      vertex 15.9052 -3.38076 77.6481
      vertex 24.5 -3.75 77.4952
    endloop
  endfacet
  facet normal 8.46547e-06 -0.382721 0.923864
    outer loop
      vertex 24.5 -1.94114 78.2444
      vertex 15.7268 -2.01858 78.2124
      vertex 15.9052 -3.38076 77.6481
    endloop
  endfacet
  facet normal 0 -0.381902 0.924203
    outer loop
      vertex 15.7268 -2.01858 78.2124
      vertex 24.5 -1.94114 78.2444
      vertex 15.7166 -1.94114 78.2444
    endloop
  endfacet
  facet normal 0 -0.382589 0.923919
    outer loop
      vertex 24.5 -3.75 77.4952
      vertex 15.9052 -3.38076 77.6481
      vertex 15.8764 -3.75 77.4952
    endloop
  endfacet
  facet normal 1 0 0
    outer loop
      vertex 33 15 24
      vertex 33 22.4041 36
      vertex 33 15 31
    endloop
  endfacet
  facet normal 1 0 0
    outer loop
      vertex 33 14.6925 42.8018
      vertex 33 15 31
      vertex 33 22.4041 36
    endloop
  endfacet
  facet normal 1 0 0
    outer loop
      vertex 33 7.53757 46.7021
      vertex 33 15 31
      vertex 33 14.6925 42.8018
    endloop
  endfacet
  facet normal 1 0 0
    outer loop
      vertex 33 0.582126 48.1734
      vertex 33 7.53757 46.7021
      vertex 33 7.01437 46.9873
    endloop
  endfacet
  facet normal 1 0 0
    outer loop
      vertex 33 7.53757 46.7021
      vertex 33 0.582126 48.1734
      vertex 33 15 31
    endloop
  endfacet
  facet normal 1 0 0
    outer loop
      vertex 33 -0.582126 48.1734
      vertex 33 0.582126 48.1734
      vertex 33 0 48.2807
    endloop
  endfacet
  facet normal 1 0 0
    outer loop
      vertex 33 0.582126 48.1734
      vertex 33 -0.582126 48.1734
      vertex 33 15 31
    endloop
  endfacet
  facet normal 1 0 0
    outer loop
      vertex 33 -7.53757 46.7021
      vertex 33 -0.582126 48.1734
      vertex 33 -7.01437 46.9873
    endloop
  endfacet
  facet normal 1 0 0
    outer loop
      vertex 33 -15 31
      vertex 33 -0.582126 48.1734
      vertex 33 -7.53757 46.7021
    endloop
  endfacet
  facet normal 1 0 0
    outer loop
      vertex 33 -15 31
      vertex 33 -7.53757 46.7021
      vertex 33 -14.6925 42.8018
    endloop
  endfacet
  facet normal 1 0 0
    outer loop
      vertex 33 -0.582126 48.1734
      vertex 33 -15 31
      vertex 33 15 31
    endloop
  endfacet
  facet normal 1 0 0
    outer loop
      vertex 33 -15 31
      vertex 33 -22.4041 36
      vertex 33 -15 24
    endloop
  endfacet
  facet normal 1 -0 0
    outer loop
      vertex 33 -22.4041 36
      vertex 33 -15 31
      vertex 33 -14.6925 42.8018
    endloop
  endfacet
  facet normal 1 0 0
    outer loop
      vertex 33 22.4041 36
      vertex 33 15 24
      vertex 33 22.4041 0
    endloop
  endfacet
  facet normal 1 -0 0
    outer loop
      vertex 33 -15 24
      vertex 33 22.4041 0
      vertex 33 15 24
    endloop
  endfacet
  facet normal 1 0 0
    outer loop
      vertex 33 -15 24
      vertex 33 -22.4041 0
      vertex 33 22.4041 0
    endloop
  endfacet
  facet normal 1 0 0
    outer loop
      vertex 33 -22.4041 0
      vertex 33 -15 24
      vertex 33 -22.4041 36
    endloop
  endfacet
  facet normal 0 1 -0
    outer loop
      vertex 9.5 -3.81051 68.8
      vertex 5.5 -3.81051 73.2
      vertex 9.5 -3.81051 73.2
    endloop
  endfacet
  facet normal 0 1 0
    outer loop
      vertex 5.5 -3.81051 73.2
      vertex 9.5 -3.81051 68.8
      vertex 5.5 -3.81051 68.8
    endloop
  endfacet
  facet normal 0 0.500017 0.866016
    outer loop
      vertex 6.21122 -1.91591 67.7062
      vertex 9.5 0 66.6
      vertex 6.5 0 66.6
    endloop
  endfacet
  facet normal 1.27266e-05 0.5 0.866025
    outer loop
      vertex 9.5 0 66.6
      vertex 6.21122 -1.91591 67.7062
      vertex 9.5 -3.81051 68.8
    endloop
  endfacet
  facet normal -8.99544e-06 0.499972 0.866042
    outer loop
      vertex 5.5 -3.39278 68.5588
      vertex 9.5 -3.81051 68.8
      vertex 6.21122 -1.91591 67.7062
    endloop
  endfacet
  facet normal 0 0.500036 0.866004
    outer loop
      vertex 9.5 -3.81051 68.8
      vertex 5.5 -3.39278 68.5588
      vertex 5.5 -3.81051 68.8
    endloop
  endfacet
  facet normal 0 -1 0
    outer loop
      vertex 5.5 3.81051 68.8
      vertex 9.5 3.81051 73.2
      vertex 5.5 3.81051 73.2
    endloop
  endfacet
  facet normal 0 -1 -0
    outer loop
      vertex 9.5 3.81051 73.2
      vertex 5.5 3.81051 68.8
      vertex 9.5 3.81051 68.8
    endloop
  endfacet
  facet normal 1.27266e-05 -0.5 0.866025
    outer loop
      vertex 6.21122 1.91591 67.7062
      vertex 9.5 0 66.6
      vertex 9.5 3.81051 68.8
    endloop
  endfacet
  facet normal 0 -0.500017 0.866016
    outer loop
      vertex 9.5 0 66.6
      vertex 6.21122 1.91591 67.7062
      vertex 6.5 0 66.6
    endloop
  endfacet
  facet normal 0 -0.500036 0.866004
    outer loop
      vertex 5.5 3.39278 68.5588
      vertex 9.5 3.81051 68.8
      vertex 5.5 3.81051 68.8
    endloop
  endfacet
  facet normal -8.99544e-06 -0.499972 0.866042
    outer loop
      vertex 9.5 3.81051 68.8
      vertex 5.5 3.39278 68.5588
      vertex 6.21122 1.91591 67.7062
    endloop
  endfacet
  facet normal 0 -0.500017 -0.866016
    outer loop
      vertex 6.21122 1.91591 74.2938
      vertex 9.5 0 75.4
      vertex 6.5 0 75.4
    endloop
  endfacet
  facet normal 1.27266e-05 -0.5 -0.866025
    outer loop
      vertex 9.5 0 75.4
      vertex 6.21122 1.91591 74.2938
      vertex 9.5 3.81051 73.2
    endloop
  endfacet
  facet normal -8.99544e-06 -0.499972 -0.866042
    outer loop
      vertex 5.5 3.39278 73.4412
      vertex 9.5 3.81051 73.2
      vertex 6.21122 1.91591 74.2938
    endloop
  endfacet
  facet normal -0 -0.500036 -0.866004
    outer loop
      vertex 9.5 3.81051 73.2
      vertex 5.5 3.39278 73.4412
      vertex 5.5 3.81051 73.2
    endloop
  endfacet
  facet normal 1.27266e-05 0.5 -0.866025
    outer loop
      vertex 6.21122 -1.91591 74.2938
      vertex 9.5 0 75.4
      vertex 9.5 -3.81051 73.2
    endloop
  endfacet
  facet normal 0 0.500017 -0.866016
    outer loop
      vertex 9.5 0 75.4
      vertex 6.21122 -1.91591 74.2938
      vertex 6.5 0 75.4
    endloop
  endfacet
  facet normal 0 0.500036 -0.866004
    outer loop
      vertex 5.5 -3.39278 73.4412
      vertex 9.5 -3.81051 73.2
      vertex 5.5 -3.81051 73.2
    endloop
  endfacet
  facet normal -8.99544e-06 0.499972 -0.866042
    outer loop
      vertex 9.5 -3.81051 73.2
      vertex 5.5 -3.39278 73.4412
      vertex 6.21122 -1.91591 74.2938
    endloop
  endfacet
  facet normal -1 0 0
    outer loop
      vertex 9.5 3.81051 68.8
      vertex 9.5 2.5 71
      vertex 9.5 3.81051 73.2
    endloop
  endfacet
  facet normal -1 0 0
    outer loop
      vertex 9.5 3.81051 68.8
      vertex 9.5 1.76777 69.2322
      vertex 9.5 2.5 71
    endloop
  endfacet
  facet normal -1 0 0
    outer loop
      vertex 9.5 0 66.6
      vertex 9.5 1.76777 69.2322
      vertex 9.5 3.81051 68.8
    endloop
  endfacet
  facet normal -1 0 0
    outer loop
      vertex 9.5 0 66.6
      vertex 9.5 0 68.5
      vertex 9.5 1.76777 69.2322
    endloop
  endfacet
  facet normal -1 0 0
    outer loop
      vertex 9.5 0 66.6
      vertex 9.5 -1.76777 69.2322
      vertex 9.5 0 68.5
    endloop
  endfacet
  facet normal -1 -0 0
    outer loop
      vertex 9.5 -1.76777 69.2322
      vertex 9.5 -3.81051 68.8
      vertex 9.5 -2.5 71
    endloop
  endfacet
  facet normal -1 0 0
    outer loop
      vertex 9.5 -3.81051 68.8
      vertex 9.5 -1.76777 69.2322
      vertex 9.5 0 66.6
    endloop
  endfacet
  facet normal -1 0 0
    outer loop
      vertex 9.5 1.76777 72.7678
      vertex 9.5 3.81051 73.2
      vertex 9.5 2.5 71
    endloop
  endfacet
  facet normal -1 0 0
    outer loop
      vertex 9.5 0 75.4
      vertex 9.5 1.76777 72.7678
      vertex 9.5 0 73.5
    endloop
  endfacet
  facet normal -1 0 0
    outer loop
      vertex 9.5 1.76777 72.7678
      vertex 9.5 0 75.4
      vertex 9.5 3.81051 73.2
    endloop
  endfacet
  facet normal -1 0 0
    outer loop
      vertex 9.5 -1.76777 72.7678
      vertex 9.5 0 75.4
      vertex 9.5 0 73.5
    endloop
  endfacet
  facet normal -1 0 0
    outer loop
      vertex 9.5 -3.81051 73.2
      vertex 9.5 -2.5 71
      vertex 9.5 -3.81051 68.8
    endloop
  endfacet
  facet normal -1 0 0
    outer loop
      vertex 9.5 -1.76777 72.7678
      vertex 9.5 -3.81051 73.2
      vertex 9.5 0 75.4
    endloop
  endfacet
  facet normal -1 0 0
    outer loop
      vertex 9.5 -2.5 71
      vertex 9.5 -3.81051 73.2
      vertex 9.5 -1.76777 72.7678
    endloop
  endfacet
  facet normal 1 -0 0
    outer loop
      vertex 5.5 -3.81051 73.2
      vertex 5.5 -3.39278 68.5588
      vertex 5.5 -3.39278 73.4412
    endloop
  endfacet
  facet normal 1 0 0
    outer loop
      vertex 5.5 -3.39278 68.5588
      vertex 5.5 -3.81051 73.2
      vertex 5.5 -3.81051 68.8
    endloop
  endfacet
  facet normal 1 0 0
    outer loop
      vertex 5.5 3.39278 73.4412
      vertex 5.5 3.81051 68.8
      vertex 5.5 3.81051 73.2
    endloop
  endfacet
  facet normal 1 0 0
    outer loop
      vertex 5.5 3.81051 68.8
      vertex 5.5 3.39278 73.4412
      vertex 5.5 3.39278 68.5588
    endloop
  endfacet
  facet normal 0 0.382668 -0.923886
    outer loop
      vertex 9.5 -1.76777 72.7678
      vertex 24.5 0 73.5
      vertex 24.5 -1.76777 72.7678
    endloop
  endfacet
  facet normal 0 0.382668 -0.923886
    outer loop
      vertex 24.5 0 73.5
      vertex 9.5 -1.76777 72.7678
      vertex 9.5 0 73.5
    endloop
  endfacet
  facet normal 0 -0.923883 0.382676
    outer loop
      vertex 9.5 1.76777 69.2322
      vertex 24.5 2.5 71
      vertex 9.5 2.5 71
    endloop
  endfacet
  facet normal 0 -0.923883 0.382676
    outer loop
      vertex 24.5 2.5 71
      vertex 9.5 1.76777 69.2322
      vertex 24.5 1.76777 69.2322
    endloop
  endfacet
  facet normal 0 -0.382668 0.923886
    outer loop
      vertex 9.5 1.76777 69.2322
      vertex 24.5 0 68.5
      vertex 24.5 1.76777 69.2322
    endloop
  endfacet
  facet normal 0 -0.382668 0.923886
    outer loop
      vertex 24.5 0 68.5
      vertex 9.5 1.76777 69.2322
      vertex 9.5 0 68.5
    endloop
  endfacet
  facet normal -0 0.382668 0.923886
    outer loop
      vertex 9.5 0 68.5
      vertex 24.5 -1.76777 69.2322
      vertex 24.5 0 68.5
    endloop
  endfacet
  facet normal 0 0.382668 0.923886
    outer loop
      vertex 24.5 -1.76777 69.2322
      vertex 9.5 0 68.5
      vertex 9.5 -1.76777 69.2322
    endloop
  endfacet
  facet normal 0 0.923883 -0.382676
    outer loop
      vertex 24.5 -2.5 71
      vertex 9.5 -1.76777 72.7678
      vertex 24.5 -1.76777 72.7678
    endloop
  endfacet
  facet normal 0 0.923883 -0.382676
    outer loop
      vertex 9.5 -1.76777 72.7678
      vertex 24.5 -2.5 71
      vertex 9.5 -2.5 71
    endloop
  endfacet
  facet normal 0 -0.382668 -0.923886
    outer loop
      vertex 9.5 0 73.5
      vertex 24.5 1.76777 72.7678
      vertex 24.5 0 73.5
    endloop
  endfacet
  facet normal -0 -0.382668 -0.923886
    outer loop
      vertex 24.5 1.76777 72.7678
      vertex 9.5 0 73.5
      vertex 9.5 1.76777 72.7678
    endloop
  endfacet
  facet normal 0 0.923883 0.382676
    outer loop
      vertex 24.5 -1.76777 69.2322
      vertex 9.5 -2.5 71
      vertex 24.5 -2.5 71
    endloop
  endfacet
  facet normal 0 0.923883 0.382676
    outer loop
      vertex 9.5 -2.5 71
      vertex 24.5 -1.76777 69.2322
      vertex 9.5 -1.76777 69.2322
    endloop
  endfacet
  facet normal 0 -0.923883 -0.382676
    outer loop
      vertex 9.5 2.5 71
      vertex 24.5 1.76777 72.7678
      vertex 9.5 1.76777 72.7678
    endloop
  endfacet
  facet normal 0 -0.923883 -0.382676
    outer loop
      vertex 24.5 1.76777 72.7678
      vertex 9.5 2.5 71
      vertex 24.5 2.5 71
    endloop
  endfacet
  facet normal 0 0 -1
    outer loop
      vertex 33 -15 31
      vertex 2.5 0 31
      vertex 33 15 31
    endloop
  endfacet
  facet normal 0 0 -1
    outer loop
      vertex 33 -15 31
      vertex 1.76777 -1.76777 31
      vertex 2.5 0 31
    endloop
  endfacet
  facet normal 0 0 -1
    outer loop
      vertex 33 -15 31
      vertex 0 -2.5 31
      vertex 1.76777 -1.76777 31
    endloop
  endfacet
  facet normal -0 0 -1
    outer loop
      vertex -1.76777 -1.76777 31
      vertex -16 -15 31
      vertex -2.5 0 31
    endloop
  endfacet
  facet normal -0 0 -1
    outer loop
      vertex 0 -2.5 31
      vertex -16 -15 31
      vertex -1.76777 -1.76777 31
    endloop
  endfacet
  facet normal 0 0 -1
    outer loop
      vertex -16 -15 31
      vertex 0 -2.5 31
      vertex 33 -15 31
    endloop
  endfacet
  facet normal 0 0 -1
    outer loop
      vertex 1.76777 1.76777 31
      vertex 33 15 31
      vertex 2.5 0 31
    endloop
  endfacet
  facet normal 0 0 -1
    outer loop
      vertex 0 2.5 31
      vertex 33 15 31
      vertex 1.76777 1.76777 31
    endloop
  endfacet
  facet normal 0 0 -1
    outer loop
      vertex -16 15 31
      vertex -2.5 0 31
      vertex -16 -15 31
    endloop
  endfacet
  facet normal 0 0 -1
    outer loop
      vertex 0 2.5 31
      vertex -16 15 31
      vertex 33 15 31
    endloop
  endfacet
  facet normal 0 0 -1
    outer loop
      vertex -1.76777 1.76777 31
      vertex -16 15 31
      vertex 0 2.5 31
    endloop
  endfacet
  facet normal 0 0 -1
    outer loop
      vertex -2.5 0 31
      vertex -16 15 31
      vertex -1.76777 1.76777 31
    endloop
  endfacet
  facet normal 0 0 1
    outer loop
      vertex 33 15 24
      vertex 2.5 0 24
      vertex 33 -15 24
    endloop
  endfacet
  facet normal 0 0 1
    outer loop
      vertex 33 15 24
      vertex 1.76777 1.76777 24
      vertex 2.5 0 24
    endloop
  endfacet
  facet normal 0 0 1
    outer loop
      vertex 33 15 24
      vertex 0 2.5 24
      vertex 1.76777 1.76777 24
    endloop
  endfacet
  facet normal 0 0 1
    outer loop
      vertex -1.76777 1.76777 24
      vertex -16 15 24
      vertex -2.5 0 24
    endloop
  endfacet
  facet normal 0 0 1
    outer loop
      vertex 0 2.5 24
      vertex -16 15 24
      vertex -1.76777 1.76777 24
    endloop
  endfacet
  facet normal -0 0 1
    outer loop
      vertex -16 15 24
      vertex 0 2.5 24
      vertex 33 15 24
    endloop
  endfacet
  facet normal -0 0 1
    outer loop
      vertex 1.76777 -1.76777 24
      vertex 33 -15 24
      vertex 2.5 0 24
    endloop
  endfacet
  facet normal -0 0 1
    outer loop
      vertex 0 -2.5 24
      vertex 33 -15 24
      vertex 1.76777 -1.76777 24
    endloop
  endfacet
  facet normal 0 0 1
    outer loop
      vertex -16 -15 24
      vertex -2.5 0 24
      vertex -16 15 24
    endloop
  endfacet
  facet normal 0 0 1
    outer loop
      vertex 0 -2.5 24
      vertex -16 -15 24
      vertex 33 -15 24
    endloop
  endfacet
  facet normal 0 0 1
    outer loop
      vertex -1.76777 -1.76777 24
      vertex -16 -15 24
      vertex 0 -2.5 24
    endloop
  endfacet
  facet normal 0 0 1
    outer loop
      vertex -2.5 0 24
      vertex -16 -15 24
      vertex -1.76777 -1.76777 24
    endloop
  endfacet
  facet normal 1 -0 0
    outer loop
      vertex -16 -15 31
      vertex -16 15 24
      vertex -16 15 31
    endloop
  endfacet
  facet normal 1 0 0
    outer loop
      vertex -16 15 24
      vertex -16 -15 31
      vertex -16 -15 24
    endloop
  endfacet
  facet normal 0 -1 0
    outer loop
      vertex -16 15 24
      vertex 33 15 31
      vertex -16 15 31
    endloop
  endfacet
  facet normal 0 -1 -0
    outer loop
      vertex 33 15 31
      vertex -16 15 24
      vertex 33 15 24
    endloop
  endfacet
  facet normal 0 1 -0
    outer loop
      vertex 33 -15 24
      vertex -16 -15 31
      vertex 33 -15 31
    endloop
  endfacet
  facet normal 0 1 0
    outer loop
      vertex -16 -15 31
      vertex 33 -15 24
      vertex -16 -15 24
    endloop
  endfacet
  facet normal 0.92388 0.382682 0
    outer loop
      vertex -1.76777 -1.76777 35
      vertex -2.5 0 31
      vertex -2.5 0 35
    endloop
  endfacet
  facet normal 0.92388 0.382682 0
    outer loop
      vertex -2.5 0 31
      vertex -1.76777 -1.76777 35
      vertex -1.76777 -1.76777 31
    endloop
  endfacet
  facet normal 0.92388 0.382682 0
    outer loop
      vertex -1.76777 -1.76777 24
      vertex -2.5 0 0
      vertex -2.5 0 24
    endloop
  endfacet
  facet normal 0.92388 0.382682 0
    outer loop
      vertex -2.5 0 0
      vertex -1.76777 -1.76777 24
      vertex -1.76777 -1.76777 0
    endloop
  endfacet
  facet normal -0.382682 -0.92388 0
    outer loop
      vertex 0 2.5 31
      vertex 1.76777 1.76777 35
      vertex 0 2.5 35
    endloop
  endfacet
  facet normal -0.382682 -0.92388 -0
    outer loop
      vertex 1.76777 1.76777 35
      vertex 0 2.5 31
      vertex 1.76777 1.76777 31
    endloop
  endfacet
  facet normal -0.382682 -0.92388 0
    outer loop
      vertex 0 2.5 0
      vertex 1.76777 1.76777 24
      vertex 0 2.5 24
    endloop
  endfacet
  facet normal -0.382682 -0.92388 -0
    outer loop
      vertex 1.76777 1.76777 24
      vertex 0 2.5 0
      vertex 1.76777 1.76777 0
    endloop
  endfacet
  facet normal -0.92388 -0.382682 0
    outer loop
      vertex 2.5 0 31
      vertex 1.76777 1.76777 35
      vertex 1.76777 1.76777 31
    endloop
  endfacet
  facet normal -0.92388 -0.382682 0
    outer loop
      vertex 1.76777 1.76777 35
      vertex 2.5 0 31
      vertex 2.5 0 35
    endloop
  endfacet
  facet normal -0.92388 -0.382682 0
    outer loop
      vertex 2.5 0 0
      vertex 1.76777 1.76777 24
      vertex 1.76777 1.76777 0
    endloop
  endfacet
  facet normal -0.92388 -0.382682 0
    outer loop
      vertex 1.76777 1.76777 24
      vertex 2.5 0 0
      vertex 2.5 0 24
    endloop
  endfacet
  facet normal -0.92388 0.382682 0
    outer loop
      vertex 1.76777 -1.76777 31
      vertex 2.5 0 35
      vertex 2.5 0 31
    endloop
  endfacet
  facet normal -0.92388 0.382682 0
    outer loop
      vertex 2.5 0 35
      vertex 1.76777 -1.76777 31
      vertex 1.76777 -1.76777 35
    endloop
  endfacet
  facet normal -0.92388 0.382682 0
    outer loop
      vertex 1.76777 -1.76777 0
      vertex 2.5 0 24
      vertex 2.5 0 0
    endloop
  endfacet
  facet normal -0.92388 0.382682 0
    outer loop
      vertex 2.5 0 24
      vertex 1.76777 -1.76777 0
      vertex 1.76777 -1.76777 24
    endloop
  endfacet
  facet normal 0.382682 0.92388 -0
    outer loop
      vertex 0 -2.5 31
      vertex -1.76777 -1.76777 35
      vertex 0 -2.5 35
    endloop
  endfacet
  facet normal 0.382682 0.92388 0
    outer loop
      vertex -1.76777 -1.76777 35
      vertex 0 -2.5 31
      vertex -1.76777 -1.76777 31
    endloop
  endfacet
  facet normal 0.382682 0.92388 -0
    outer loop
      vertex 0 -2.5 0
      vertex -1.76777 -1.76777 24
      vertex 0 -2.5 24
    endloop
  endfacet
  facet normal 0.382682 0.92388 0
    outer loop
      vertex -1.76777 -1.76777 24
      vertex 0 -2.5 0
      vertex -1.76777 -1.76777 0
    endloop
  endfacet
  facet normal 0.92388 -0.382682 0
    outer loop
      vertex -2.5 0 35
      vertex -1.76777 1.76777 31
      vertex -1.76777 1.76777 35
    endloop
  endfacet
  facet normal 0.92388 -0.382682 0
    outer loop
      vertex -1.76777 1.76777 31
      vertex -2.5 0 35
      vertex -2.5 0 31
    endloop
  endfacet
  facet normal 0.92388 -0.382682 0
    outer loop
      vertex -2.5 0 24
      vertex -1.76777 1.76777 0
      vertex -1.76777 1.76777 24
    endloop
  endfacet
  facet normal 0.92388 -0.382682 0
    outer loop
      vertex -1.76777 1.76777 0
      vertex -2.5 0 24
      vertex -2.5 0 0
    endloop
  endfacet
  facet normal -0.382682 0.92388 0
    outer loop
      vertex 1.76777 -1.76777 31
      vertex 0 -2.5 35
      vertex 1.76777 -1.76777 35
    endloop
  endfacet
  facet normal -0.382682 0.92388 0
    outer loop
      vertex 0 -2.5 35
      vertex 1.76777 -1.76777 31
      vertex 0 -2.5 31
    endloop
  endfacet
  facet normal -0.382682 0.92388 0
    outer loop
      vertex 1.76777 -1.76777 0
      vertex 0 -2.5 24
      vertex 1.76777 -1.76777 24
    endloop
  endfacet
  facet normal -0.382682 0.92388 0
    outer loop
      vertex 0 -2.5 24
      vertex 1.76777 -1.76777 0
      vertex 0 -2.5 0
    endloop
  endfacet
  facet normal 0 0 1
    outer loop
      vertex 2.5 0 35
      vertex 6.5 0 35
      vertex 6.21122 1.91591 35
    endloop
  endfacet
  facet normal 0 0 1
    outer loop
      vertex 1.76777 1.76777 35
      vertex 6.21122 1.91591 35
      vertex 5.37055 3.66158 35
    endloop
  endfacet
  facet normal 0 0 1
    outer loop
      vertex 6.5 0 35
      vertex 2.5 0 35
      vertex 6.21122 -1.91591 35
    endloop
  endfacet
  facet normal 0 0 1
    outer loop
      vertex 1.76777 1.76777 35
      vertex 5.37055 3.66158 35
      vertex 4.05268 5.0819 35
    endloop
  endfacet
  facet normal -0 0 1
    outer loop
      vertex 1.76777 -1.76777 35
      vertex 6.21122 -1.91591 35
      vertex 2.5 0 35
    endloop
  endfacet
  facet normal 0 0 1
    outer loop
      vertex 6.21122 -1.91591 35
      vertex 1.76777 -1.76777 35
      vertex 5.37055 -3.66158 35
    endloop
  endfacet
  facet normal 0 0 1
    outer loop
      vertex 1.76777 1.76777 35
      vertex 4.05268 5.0819 35
      vertex 2.37472 6.05068 35
    endloop
  endfacet
  facet normal 0 0 1
    outer loop
      vertex 6.21122 1.91591 35
      vertex 1.76777 1.76777 35
      vertex 2.5 0 35
    endloop
  endfacet
  facet normal 0 0 1
    outer loop
      vertex 0 2.5 35
      vertex 2.37472 6.05068 35
      vertex 0.485745 6.48182 35
    endloop
  endfacet
  facet normal 0 0 1
    outer loop
      vertex 2.37472 6.05068 35
      vertex 0 2.5 35
      vertex 1.76777 1.76777 35
    endloop
  endfacet
  facet normal -0 0 1
    outer loop
      vertex -1.44639 6.33703 35
      vertex 0 2.5 35
      vertex 0.485745 6.48182 35
    endloop
  endfacet
  facet normal -0 0 1
    outer loop
      vertex -3.25 5.62916 35
      vertex 0 2.5 35
      vertex -1.44639 6.33703 35
    endloop
  endfacet
  facet normal 0 0 1
    outer loop
      vertex 0 2.5 35
      vertex -3.25 5.62916 35
      vertex -1.76777 1.76777 35
    endloop
  endfacet
  facet normal -0 0 1
    outer loop
      vertex -4.76484 4.42112 35
      vertex -1.76777 1.76777 35
      vertex -3.25 5.62916 35
    endloop
  endfacet
  facet normal 0 0 1
    outer loop
      vertex 5.37055 -3.66158 35
      vertex 1.76777 -1.76777 35
      vertex 4.05268 -5.0819 35
    endloop
  endfacet
  facet normal 0 0 1
    outer loop
      vertex 4.05268 -5.0819 35
      vertex 1.76777 -1.76777 35
      vertex 2.37472 -6.05068 35
    endloop
  endfacet
  facet normal -0 0 1
    outer loop
      vertex 0 -2.5 35
      vertex 2.37472 -6.05068 35
      vertex 1.76777 -1.76777 35
    endloop
  endfacet
  facet normal 0 0 1
    outer loop
      vertex 2.37472 -6.05068 35
      vertex 0 -2.5 35
      vertex 0.485745 -6.48182 35
    endloop
  endfacet
  facet normal 0 0 1
    outer loop
      vertex 0 -2.5 35
      vertex -1.44639 -6.33703 35
      vertex 0.485745 -6.48182 35
    endloop
  endfacet
  facet normal 0 0 1
    outer loop
      vertex -3.25 -5.62916 35
      vertex 0 -2.5 35
      vertex -1.76777 -1.76777 35
    endloop
  endfacet
  facet normal 0 0 1
    outer loop
      vertex -5.8563 -2.82024 35
      vertex -1.76777 -1.76777 35
      vertex -2.5 0 35
    endloop
  endfacet
  facet normal 0 0 1
    outer loop
      vertex 0 -2.5 35
      vertex -3.25 -5.62916 35
      vertex -1.44639 -6.33703 35
    endloop
  endfacet
  facet normal -0 0 1
    outer loop
      vertex -5.8563 2.82024 35
      vertex -1.76777 1.76777 35
      vertex -4.76484 4.42112 35
    endloop
  endfacet
  facet normal 0 0 1
    outer loop
      vertex -1.76777 1.76777 35
      vertex -5.8563 2.82024 35
      vertex -2.5 0 35
    endloop
  endfacet
  facet normal 0 0 1
    outer loop
      vertex -1.76777 -1.76777 35
      vertex -4.76484 -4.42112 35
      vertex -3.25 -5.62916 35
    endloop
  endfacet
  facet normal -0 0 1
    outer loop
      vertex -6.4274 0.968774 35
      vertex -2.5 0 35
      vertex -5.8563 2.82024 35
    endloop
  endfacet
  facet normal 0 0 1
    outer loop
      vertex -1.76777 -1.76777 35
      vertex -5.8563 -2.82024 35
      vertex -4.76484 -4.42112 35
    endloop
  endfacet
  facet normal 0 0 1
    outer loop
      vertex -6.4274 -0.968774 35
      vertex -2.5 0 35
      vertex -6.4274 0.968774 35
    endloop
  endfacet
  facet normal 0 0 1
    outer loop
      vertex -2.5 0 35
      vertex -6.4274 -0.968774 35
      vertex -5.8563 -2.82024 35
    endloop
  endfacet
  facet normal 0.382682 -0.92388 0
    outer loop
      vertex -1.76777 1.76777 31
      vertex 0 2.5 35
      vertex -1.76777 1.76777 35
    endloop
  endfacet
  facet normal 0.382682 -0.92388 0
    outer loop
      vertex 0 2.5 35
      vertex -1.76777 1.76777 31
      vertex 0 2.5 31
    endloop
  endfacet
  facet normal 0.382682 -0.92388 0
    outer loop
      vertex -1.76777 1.76777 0
      vertex 0 2.5 24
      vertex -1.76777 1.76777 24
    endloop
  endfacet
  facet normal 0.382682 -0.92388 0
    outer loop
      vertex 0 2.5 24
      vertex -1.76777 1.76777 0
      vertex 0 2.5 0
    endloop
  endfacet
  facet normal 0.955573 -0.294754 0
    outer loop
      vertex -6.4274 0.968774 86
      vertex -5.8563 2.82024 35
      vertex -5.8563 2.82024 86
    endloop
  endfacet
  facet normal 0.955573 -0.294754 0
    outer loop
      vertex -5.8563 2.82024 35
      vertex -6.4274 0.968774 86
      vertex -6.4274 0.968774 35
    endloop
  endfacet
  facet normal 0.365343 0.930873 -0
    outer loop
      vertex -1.44639 -6.33703 35
      vertex -3.25 -5.62916 86
      vertex -1.44639 -6.33703 86
    endloop
  endfacet
  facet normal 0.365343 0.930873 0
    outer loop
      vertex -3.25 -5.62916 86
      vertex -1.44639 -6.33703 35
      vertex -3.25 -5.62916 35
    endloop
  endfacet
  facet normal -0.988831 -0.149044 -0
    outer loop
      vertex 6.5 0 66.6
      vertex 6.21122 1.91591 35
      vertex 6.5 0 35
    endloop
  endfacet
  facet normal -0.988831 -0.149044 0
    outer loop
      vertex 6.21122 1.91591 35
      vertex 6.5 0 66.6
      vertex 6.21122 1.91591 67.7062
    endloop
  endfacet
  facet normal -0.988831 -0.149044 0
    outer loop
      vertex 6.5 0 75.4
      vertex 6.21122 1.91591 86
      vertex 6.21122 1.91591 74.2938
    endloop
  endfacet
  facet normal -0.988831 -0.149044 0
    outer loop
      vertex 6.21122 1.91591 86
      vertex 6.5 0 75.4
      vertex 6.5 0 86
    endloop
  endfacet
  facet normal 0.826239 0.56332 0
    outer loop
      vertex -4.76484 -4.42112 86
      vertex -5.8563 -2.82024 35
      vertex -5.8563 -2.82024 86
    endloop
  endfacet
  facet normal 0.826239 0.56332 0
    outer loop
      vertex -5.8563 -2.82024 35
      vertex -4.76484 -4.42112 86
      vertex -4.76484 -4.42112 35
    endloop
  endfacet
  facet normal -0.900965 -0.433891 0
    outer loop
      vertex 5.37055 3.66158 35
      vertex 5.5 3.39278 68.5588
      vertex 5.37055 3.66158 86
    endloop
  endfacet
  facet normal -0.900969 -0.433884 -0
    outer loop
      vertex 6.21122 1.91591 67.7062
      vertex 5.37055 3.66158 35
      vertex 6.21122 1.91591 35
    endloop
  endfacet
  facet normal -0.90097 -0.433882 8.8403e-08
    outer loop
      vertex 5.37055 3.66158 35
      vertex 6.21122 1.91591 67.7062
      vertex 5.5 3.39278 68.5588
    endloop
  endfacet
  facet normal -0.900965 -0.433891 -0
    outer loop
      vertex 5.5 3.39278 73.4412
      vertex 5.37055 3.66158 86
      vertex 5.5 3.39278 68.5588
    endloop
  endfacet
  facet normal -0.90097 -0.433882 -2.3442e-07
    outer loop
      vertex 6.21122 1.91591 74.2938
      vertex 5.37055 3.66158 86
      vertex 5.5 3.39278 73.4412
    endloop
  endfacet
  facet normal -0.900969 -0.433884 0
    outer loop
      vertex 5.37055 3.66158 86
      vertex 6.21122 1.91591 74.2938
      vertex 6.21122 1.91591 86
    endloop
  endfacet
  facet normal -0.500004 0.866023 0
    outer loop
      vertex 4.05268 -5.0819 35
      vertex 2.37472 -6.05068 86
      vertex 4.05268 -5.0819 86
    endloop
  endfacet
  facet normal -0.500004 0.866023 0
    outer loop
      vertex 2.37472 -6.05068 86
      vertex 4.05268 -5.0819 35
      vertex 2.37472 -6.05068 35
    endloop
  endfacet
  facet normal -0.73305 0.680174 0
    outer loop
      vertex 4.05268 -5.0819 35
      vertex 5.37055 -3.66158 86
      vertex 5.37055 -3.66158 35
    endloop
  endfacet
  facet normal -0.73305 0.680174 0
    outer loop
      vertex 5.37055 -3.66158 86
      vertex 4.05268 -5.0819 35
      vertex 4.05268 -5.0819 86
    endloop
  endfacet
  facet normal 1 -0 0
    outer loop
      vertex -6.4274 -0.968774 86
      vertex -6.4274 0.968774 35
      vertex -6.4274 0.968774 86
    endloop
  endfacet
  facet normal 1 0 0
    outer loop
      vertex -6.4274 0.968774 35
      vertex -6.4274 -0.968774 86
      vertex -6.4274 -0.968774 35
    endloop
  endfacet
  facet normal -0.73305 -0.680174 0
    outer loop
      vertex 5.37055 3.66158 35
      vertex 4.05268 5.0819 86
      vertex 4.05268 5.0819 35
    endloop
  endfacet
  facet normal -0.73305 -0.680174 0
    outer loop
      vertex 4.05268 5.0819 86
      vertex 5.37055 3.66158 35
      vertex 5.37055 3.66158 86
    endloop
  endfacet
  facet normal -0.222518 -0.974929 0
    outer loop
      vertex 0.485745 6.48182 35
      vertex 2.37472 6.05068 86
      vertex 0.485745 6.48182 86
    endloop
  endfacet
  facet normal -0.222518 -0.974929 -0
    outer loop
      vertex 2.37472 6.05068 86
      vertex 0.485745 6.48182 35
      vertex 2.37472 6.05068 35
    endloop
  endfacet
  facet normal 0.826239 -0.56332 0
    outer loop
      vertex -5.8563 2.82024 86
      vertex -4.76484 4.42112 35
      vertex -4.76484 4.42112 86
    endloop
  endfacet
  facet normal 0.826239 -0.56332 0
    outer loop
      vertex -4.76484 4.42112 35
      vertex -5.8563 2.82024 86
      vertex -5.8563 2.82024 35
    endloop
  endfacet
  facet normal 0.955573 0.294754 0
    outer loop
      vertex -5.8563 -2.82024 86
      vertex -6.4274 -0.968774 35
      vertex -6.4274 -0.968774 86
    endloop
  endfacet
  facet normal 0.955573 0.294754 0
    outer loop
      vertex -6.4274 -0.968774 35
      vertex -5.8563 -2.82024 86
      vertex -5.8563 -2.82024 35
    endloop
  endfacet
  facet normal 0.0747283 0.997204 -0
    outer loop
      vertex 0.485745 -6.48182 35
      vertex -1.44639 -6.33703 86
      vertex 0.485745 -6.48182 86
    endloop
  endfacet
  facet normal 0.0747283 0.997204 0
    outer loop
      vertex -1.44639 -6.33703 86
      vertex 0.485745 -6.48182 35
      vertex -1.44639 -6.33703 35
    endloop
  endfacet
  facet normal 0.623488 -0.781833 0
    outer loop
      vertex -4.76484 4.42112 35
      vertex -3.25 5.62916 86
      vertex -4.76484 4.42112 86
    endloop
  endfacet
  facet normal 0.623488 -0.781833 0
    outer loop
      vertex -3.25 5.62916 86
      vertex -4.76484 4.42112 35
      vertex -3.25 5.62916 35
    endloop
  endfacet
  facet normal -0.500004 -0.866023 0
    outer loop
      vertex 2.37472 6.05068 35
      vertex 4.05268 5.0819 86
      vertex 2.37472 6.05068 86
    endloop
  endfacet
  facet normal -0.500004 -0.866023 -0
    outer loop
      vertex 4.05268 5.0819 86
      vertex 2.37472 6.05068 35
      vertex 4.05268 5.0819 35
    endloop
  endfacet
  facet normal 0.365343 -0.930873 0
    outer loop
      vertex -3.25 5.62916 35
      vertex -1.44639 6.33703 86
      vertex -3.25 5.62916 86
    endloop
  endfacet
  facet normal 0.365343 -0.930873 0
    outer loop
      vertex -1.44639 6.33703 86
      vertex -3.25 5.62916 35
      vertex -1.44639 6.33703 35
    endloop
  endfacet
  facet normal 0.0747283 -0.997204 0
    outer loop
      vertex -1.44639 6.33703 35
      vertex 0.485745 6.48182 86
      vertex -1.44639 6.33703 86
    endloop
  endfacet
  facet normal 0.0747283 -0.997204 0
    outer loop
      vertex 0.485745 6.48182 86
      vertex -1.44639 6.33703 35
      vertex 0.485745 6.48182 35
    endloop
  endfacet
  facet normal -0.222518 0.974929 0
    outer loop
      vertex 2.37472 -6.05068 35
      vertex 0.485745 -6.48182 86
      vertex 2.37472 -6.05068 86
    endloop
  endfacet
  facet normal -0.222518 0.974929 0
    outer loop
      vertex 0.485745 -6.48182 86
      vertex 2.37472 -6.05068 35
      vertex 0.485745 -6.48182 35
    endloop
  endfacet
  facet normal -0.900969 0.433884 0
    outer loop
      vertex 5.37055 -3.66158 35
      vertex 6.21122 -1.91591 67.7062
      vertex 6.21122 -1.91591 35
    endloop
  endfacet
  facet normal -0.900965 0.433891 0
    outer loop
      vertex 5.37055 -3.66158 86
      vertex 5.5 -3.39278 68.5588
      vertex 5.37055 -3.66158 35
    endloop
  endfacet
  facet normal -0.90097 0.433882 8.8403e-08
    outer loop
      vertex 6.21122 -1.91591 67.7062
      vertex 5.37055 -3.66158 35
      vertex 5.5 -3.39278 68.5588
    endloop
  endfacet
  facet normal -0.90097 0.433882 -2.3442e-07
    outer loop
      vertex 5.37055 -3.66158 86
      vertex 6.21122 -1.91591 74.2938
      vertex 5.5 -3.39278 73.4412
    endloop
  endfacet
  facet normal -0.900969 0.433884 0
    outer loop
      vertex 6.21122 -1.91591 74.2938
      vertex 5.37055 -3.66158 86
      vertex 6.21122 -1.91591 86
    endloop
  endfacet
  facet normal -0.900965 0.433891 0
    outer loop
      vertex 5.5 -3.39278 68.5588
      vertex 5.37055 -3.66158 86
      vertex 5.5 -3.39278 73.4412
    endloop
  endfacet
  facet normal -0.988831 0.149044 0
    outer loop
      vertex 6.21122 -1.91591 35
      vertex 6.5 0 66.6
      vertex 6.5 0 35
    endloop
  endfacet
  facet normal -0.988831 0.149044 0
    outer loop
      vertex 6.5 0 66.6
      vertex 6.21122 -1.91591 35
      vertex 6.21122 -1.91591 67.7062
    endloop
  endfacet
  facet normal -0.988831 0.149044 0
    outer loop
      vertex 6.21122 -1.91591 86
      vertex 6.5 0 75.4
      vertex 6.21122 -1.91591 74.2938
    endloop
  endfacet
  facet normal -0.988831 0.149044 0
    outer loop
      vertex 6.5 0 75.4
      vertex 6.21122 -1.91591 86
      vertex 6.5 0 86
    endloop
  endfacet
  facet normal 0.623488 0.781833 -0
    outer loop
      vertex -3.25 -5.62916 35
      vertex -4.76484 -4.42112 86
      vertex -3.25 -5.62916 86
    endloop
  endfacet
  facet normal 0.623488 0.781833 0
    outer loop
      vertex -4.76484 -4.42112 86
      vertex -3.25 -5.62916 35
      vertex -4.76484 -4.42112 35
    endloop
  endfacet
endsolid OpenSCAD_Model
