<?xml version="1.0" standalone="no"?>
<!DOCTYPE svg PUBLIC "-//W3C//DTD SVG 1.1//EN" "http://www.w3.org/Graphics/SVG/1.1/DTD/svg11.dtd">
<svg width="230mm" height="230mm" viewBox="-115 -115 230 230" xmlns="http://www.w3.org/2000/svg" version="1.1">
<title>OpenSCAD Model</title>
<path d="
M 115,-115 L -115,-115 L -115,115 L 115,115 z
M -85.0835,0.337509 L -86.6608,0.129669 L -88.13,-0.216721 L -89.4911,-0.701691 L -90.7448,-1.31076 L -91.8917,-2.02919
 L -92.9318,-2.85696 L -93.8651,-3.7941 L -94.6897,-4.83231 L -95.4037,-5.96332 L -96.007,-7.18715 L -96.4997,-8.5038
 L -96.8823,-9.89862 L -97.1556,-11.357 L -97.3196,-12.879 L -97.3742,-14.4645 L -97.3164,-16.1022 L -97.1429,-17.6584
 L -96.8536,-19.1334 L -96.4487,-20.5269 L -95.9326,-21.8295 L -95.3096,-23.0317 L -94.5797,-24.1334 L -93.743,-25.1346
 L -92.8014,-26.0311 L -91.7569,-26.8181 L -90.6093,-27.4958 L -89.3588,-28.0641 L -88.0111,-28.5136 L -86.5717,-28.8347
 L -85.0409,-29.0274 L -83.4185,-29.0916 L -81.2239,-28.9797 L -79.2176,-28.644 L -77.3994,-28.0845 L -75.7694,-27.3012
 L -74.3351,-26.298 L -73.1043,-25.0787 L -72.0769,-23.6432 L -71.2529,-21.9915 L -74.9351,-20.7711 L -75.1565,-21.2739
 L -75.4134,-21.7652 L -75.7059,-22.2451 L -76.034,-22.7136 L -76.4014,-23.1631 L -76.8121,-23.5859 L -77.266,-23.982
 L -77.7632,-24.3513 L -78.3042,-24.6896 L -78.8896,-24.9922 L -79.5196,-25.2593 L -80.1941,-25.4907 L -80.9157,-25.6776
 L -81.6868,-25.8111 L -82.5075,-25.8912 L -83.3777,-25.9179 L -84.5635,-25.867 L -85.6793,-25.7144 L -86.7251,-25.4601
 L -87.701,-25.104 L -88.6037,-24.654 L -89.4302,-24.1174 L -90.1804,-23.4945 L -90.8543,-22.785 L -91.4512,-21.9941
 L -91.9706,-21.127 L -92.4125,-20.1835 L -92.7767,-19.1637 L -93.0615,-18.0766 L -93.265,-16.9311 L -93.387,-15.727
 L -93.4277,-14.4645 L -93.3839,-13.2 L -93.2523,-11.9902 L -93.033,-10.835 L -92.726,-9.73439 L -92.3369,-8.69879
 L -91.8715,-7.73819 L -91.3298,-6.85258 L -90.7118,-6.04199 L -90.0189,-5.31224 L -89.2522,-4.6689 L -88.4118,-4.11194
 L -87.4976,-3.64139 L -86.5166,-3.26759 L -85.4759,-3.0006 L -84.3754,-2.84039 L -83.2151,-2.78699 L -82.3994,-2.81433
 L -81.6206,-2.89635 L -80.8787,-3.03304 L -80.1737,-3.2244 L -79.5037,-3.46535 L -78.8667,-3.75082 L -78.2627,-4.0808
 L -77.6918,-4.45529 L -77.1521,-4.87047 L -76.6415,-5.32251 L -76.1602,-5.81142 L -75.7082,-6.33719 L -75.2835,-6.896
 L -74.8843,-7.48402 L -74.5104,-8.10124 L -74.162,-8.7477 L -70.9886,-7.161 L -71.3981,-6.37141 L -71.8533,-5.60977
 L -72.3543,-4.87607 L -72.9011,-4.17029 L -73.4955,-3.50151 L -74.1395,-2.87849 L -74.833,-2.30122 L -75.5762,-1.7697
 L -76.3695,-1.28851 L -77.2137,-0.861969 L -78.1088,-0.490067 L -79.0547,-0.172791 L -80.0547,0.0807648 L -81.112,0.261887
 L -82.2264,0.370575 L -83.3981,0.406799 z
M 84.2919,-0 L 84.2919,-11.8809 L 73.2657,-28.6644 L 77.5377,-28.6644 L 86.2653,-15.0138 L 94.9521,-28.6644
 L 99.2241,-28.6644 L 88.1571,-11.8809 L 88.1571,-0 z
M -66.6872,-0 L -66.6872,-28.6644 L -53.1995,-28.6644 L -52.0138,-28.6294 L -50.898,-28.5245 L -49.8523,-28.3497
 L -48.8765,-28.1049 L -47.973,-27.794 L -47.1446,-27.4208 L -46.3913,-26.9854 L -45.713,-26.4876 L -45.1103,-25.9294
 L -44.5839,-25.3128 L -44.1338,-24.6376 L -43.76,-23.904 L -43.4662,-23.1169 L -43.2564,-22.2815 L -43.1305,-21.3978
 L -43.0886,-20.4657 L -43.1134,-19.7868 L -43.1878,-19.1129 L -43.3118,-18.4441 L -43.4855,-17.7804 L -43.7124,-17.1332
 L -43.9965,-16.5139 L -44.3379,-15.9227 L -44.7365,-15.3594 L -45.1929,-14.8293 L -45.7079,-14.3373 L -46.2813,-13.8834
 L -46.9133,-13.4676 L -47.6075,-13.1001 L -48.3678,-12.7911 L -49.1942,-12.5406 L -50.0867,-12.3486 L -41.9492,-0
 L -46.4249,-0 L -53.8709,-11.901 L -62.8016,-11.901 L -62.8016,-0 z
M -52.6171,-14.9991 L -51.8669,-15.0772 L -51.1728,-15.2076 L -50.5346,-15.39 L -49.9516,-15.6182 L -49.4232,-15.8858
 L -48.9496,-16.1929 L -48.5306,-16.5393 L -48.1644,-16.9221 L -47.849,-17.3379 L -47.5846,-17.7867 L -47.3711,-18.2685
 L -47.2063,-18.7771 L -47.0887,-19.3061 L -47.0181,-19.8555 L -46.9946,-20.4252 L -47.0226,-21.0546 L -47.1065,-21.6407
 L -47.2463,-22.1836 L -47.4422,-22.6833 L -47.6914,-23.1416 L -47.9915,-23.5606 L -48.3424,-23.9401 L -48.7442,-24.2802
 L -49.1943,-24.5802 L -49.6901,-24.8396 L -50.2318,-25.0583 L -50.8193,-25.2363 L -51.4498,-25.3744 L -52.1211,-25.473
 L -52.8331,-25.5322 L -53.5859,-25.5519 L -62.8016,-25.5519 L -62.8016,-14.973 L -53.4233,-14.973 z
M 58.2772,-0 L 58.2772,-25.4907 L 48.4306,-25.4907 L 48.4306,-28.6644 L 71.9887,-28.6644 L 71.9887,-25.4907
 L 62.1424,-25.4907 L 62.1424,-0 z
M -37.3021,-0 L -37.3021,-28.6644 L -15.5548,-28.6644 L -15.5548,-25.4907 L -33.4165,-25.4907 L -33.4165,-16.2954
 L -16.7755,-16.2954 L -16.7755,-13.1625 L -33.4165,-13.1625 L -33.4165,-3.17369 L -14.7208,-3.17369 L -14.7208,-0
 z
M 40.0349,-0 L 40.0349,-28.6644 L 43.9205,-28.6644 L 43.9205,-0 z
M 16.978,-0 L 16.978,-28.6644 L 20.8636,-28.6644 L 20.8636,-3.17369 L 35.3481,-3.17369 L 35.3481,-0
 z
M -13.4987,-0 L -1.80107,-28.6644 L 2.61371,-28.6644 L 14.1283,-0 L 10.1611,-0 L 6.88571,-8.3817
 L -6.17477,-8.3817 L -9.47057,-0 z
M 2.04401,-20.8728 L 1.88315,-21.2809 L 1.72609,-21.6915 L 1.5728,-22.1047 L 1.42331,-22.5204 L 1.2803,-22.928
 L 1.14619,-23.3164 L 1.02095,-23.6858 L 0.904617,-24.036 L 0.797287,-24.3628 L 0.698807,-24.6616 L 0.609192,-24.9325
 L 0.528412,-25.1754 L 0.460342,-25.382 L 0.408859,-25.5442 L 0.373947,-25.6618 L 0.355606,-25.7349 L 0.328857,-25.6611
 L 0.289383,-25.5416 L 0.237213,-25.3763 L 0.172318,-25.1652 L 0.0954742,-24.9172 L 0.00715637,-24.6412 L -0.0926056,-24.3373
 L -0.203873,-24.0054 L -0.324692,-23.6507 L -0.453171,-23.2783 L -0.589294,-22.888 L -0.733078,-22.4799 L -0.881165,-22.0641
 L -1.03052,-21.6509 L -1.18117,-21.2402 L -1.33307,-20.832 L -4.99487,-11.4129 L 5.72621,-11.4129 z
M -29.4171,95.1542 L -30.5313,94.8033 L -31.4616,94.2184 L -32.208,93.3996 L -32.7806,92.3434 L -33.1896,91.0465
 L -33.435,89.5088 L -33.5168,87.7304 L -33.1794,84.3721 L -32.1673,81.9733 L -30.4805,80.534 L -28.119,80.0542
 L -27.3197,80.0924 L -26.5898,80.2068 L -25.9296,80.3976 L -25.3388,80.6646 L -24.8098,81.0146 L -24.3351,81.4545
 L -23.9146,81.9842 L -23.5484,82.6038 L -23.5212,82.6038 L -23.5216,82.5263 L -23.5229,82.4292 L -23.525,82.3127
 L -23.528,82.1766 L -23.5314,82.0291 L -23.5348,81.8783 L -23.5382,81.724 L -23.5416,81.5664 L -23.5446,81.4091
 L -23.5467,81.2561 L -23.548,81.1073 L -23.5484,80.9628 L -23.5484,74.8732 L -21.1072,74.8732 L -21.1072,91.9756
 L -21.1068,92.2375 L -21.1055,92.4943 L -21.1034,92.7461 L -21.1004,92.9928 L -21.0966,93.2318 L -21.0919,93.4607
 L -21.0864,93.6794 L -21.08,93.888 L -21.0732,94.0842 L -21.0665,94.266 L -21.0597,94.4334 L -21.053,94.5864
 L -21.0462,94.7216 L -21.0394,94.8356 L -21.0326,94.9284 L -21.0258,95 L -23.3586,95 L -23.3717,94.925
 L -23.3839,94.8356 L -23.3954,94.7318 L -23.406,94.6136 L -23.4162,94.4835 L -23.4264,94.344 L -23.4366,94.1953
 L -23.4468,94.0372 L -23.4565,93.8723 L -23.4653,93.7032 L -23.4734,93.5298 L -23.4806,93.3522 L -23.4865,93.1729
 L -23.4908,92.9945 L -23.4933,92.8169 L -23.4942,92.6402 L -23.5484,92.6402 L -23.915,93.2954 L -24.3368,93.8506
 L -24.8136,94.3058 L -25.3456,94.661 L -25.9385,94.928 L -26.5983,95.1186 L -27.3252,95.233 L -28.119,95.2712
 z
M -27.0276,93.3665 L -26.5881,93.3081 L -26.1766,93.2106 L -25.793,93.0742 L -25.4387,92.8941 L -25.1149,92.6656
 L -24.8216,92.3889 L -24.5588,92.0638 L -24.3261,91.6878 L -24.1231,91.2585 L -23.9498,90.7757 L -23.8062,90.2396
 L -23.6934,89.6454 L -23.6128,88.9884 L -23.5645,88.2688 L -23.5484,87.4864 L -23.5645,86.7366 L -23.6128,86.047
 L -23.6934,85.4176 L -23.8062,84.8484 L -23.9503,84.3352 L -24.1248,83.8737 L -24.33,83.4639 L -24.5656,83.1058
 L -24.8305,82.7968 L -25.1234,82.5345 L -25.4442,82.3187 L -25.793,82.1496 L -26.1698,82.022 L -26.5745,81.9309
 L -27.0073,81.8762 L -27.468,81.858 L -27.9002,81.8775 L -28.302,81.936 L -28.6732,82.0335 L -29.014,82.17
 L -29.3259,82.3497 L -29.6107,82.5768 L -29.8684,82.8515 L -30.099,83.1736 L -30.302,83.5453 L -30.4771,83.9687
 L -30.6242,84.4438 L -30.7434,84.9706 L -30.8354,85.5525 L -30.901,86.1929 L -30.9405,86.8918 L -30.9536,87.6492
 L -30.9417,88.3816 L -30.9061,89.0597 L -30.8468,89.6836 L -30.7638,90.2532 L -30.6544,90.7715 L -30.5162,91.2416
 L -30.3492,91.6632 L -30.1534,92.0366 L -29.9287,92.3625 L -29.6752,92.6418 L -29.3929,92.8745 L -29.0818,93.0606
 L -28.7385,93.203 L -28.3596,93.3047 L -27.9451,93.3657 L -27.495,93.386 z
M 54.1736,95 L 54.1736,93.2776 L 54.5384,92.5075 L 54.9415,91.7841 L 55.3826,91.1072 L 55.862,90.477
 L 56.3668,89.8844 L 56.8843,89.3207 L 57.4145,88.7858 L 57.9574,88.2798 L 58.5054,87.797 L 59.0509,87.3321
 L 59.5938,86.8849 L 60.1342,86.4556 L 60.6601,86.0352 L 61.1598,85.6148 L 61.6332,85.1944 L 62.0804,84.774
 L 62.4936,84.3484 L 62.8653,83.9127 L 63.1955,83.4668 L 63.4842,83.0108 L 63.7186,82.5344 L 63.886,82.0275
 L 63.9865,81.4901 L 64.02,80.9222 L 64.0047,80.5276 L 63.9589,80.1576 L 63.8826,79.8122 L 63.7758,79.4914
 L 63.6401,79.1951 L 63.4773,78.9234 L 63.2874,78.6763 L 63.0704,78.4538 L 62.8284,78.2567 L 62.5636,78.086
 L 62.2758,77.9415 L 61.9651,77.8232 L 61.6342,77.7312 L 61.2854,77.6654 L 60.9188,77.626 L 60.5343,77.6128
 L 60.1737,77.6255 L 59.824,77.6637 L 59.4854,77.7273 L 59.1578,77.8164 L 58.8446,77.9308 L 58.5491,78.0707
 L 58.2716,78.2359 L 58.0117,78.4266 L 57.7723,78.6423 L 57.5557,78.8826 L 57.362,79.1475 L 57.1912,79.437
 L 57.0458,79.7511 L 56.9284,80.0898 L 56.839,80.453 L 56.7776,80.8408 L 54.282,80.6102 L 54.3634,80.1024
 L 54.4855,79.61 L 54.6482,79.1328 L 54.8516,78.6708 L 55.0965,78.2304 L 55.3839,77.818 L 55.7136,77.4336
 L 56.0858,77.0772 L 56.499,76.7529 L 56.9521,76.4652 L 57.445,76.2139 L 57.9778,75.999 L 58.5521,75.8269
 L 59.1696,75.704 L 59.8304,75.6302 L 60.5343,75.6056 L 61.2269,75.6268 L 61.8804,75.6904 L 62.4949,75.7964
 L 63.0704,75.9448 L 63.6048,76.1347 L 64.0961,76.3652 L 64.544,76.6365 L 64.9488,76.9484 L 65.3095,77.3001
 L 65.6253,77.6909 L 65.8961,78.1206 L 66.1219,78.5894 L 66.3,79.0963 L 66.4272,79.6405 L 66.5035,80.222
 L 66.529,80.8408 L 66.5073,81.3163 L 66.4425,81.7799 L 66.3343,82.2317 L 66.183,82.6716 L 65.9956,83.1005
 L 65.7795,83.5193 L 65.5345,83.9279 L 65.2608,84.3264 L 64.9611,84.7163 L 64.6385,85.0995 L 64.2931,85.4758
 L 63.9248,85.8454 L 63.5408,86.2094 L 63.1484,86.5692 L 62.7474,86.9248 L 62.338,87.2762 L 61.9235,87.6246
 L 61.5074,87.9713 L 61.0895,88.3163 L 60.67,88.6596 L 60.2559,89.0024 L 59.8546,89.3462 L 59.4659,89.6908
 L 59.09,90.0362 L 58.7301,90.3833 L 58.3898,90.7329 L 58.0689,91.0851 L 57.7675,91.4398 L 57.4921,91.7996
 L 57.2488,92.1671 L 57.0378,92.5422 L 56.8589,92.925 L 66.8274,92.925 L 66.8274,95 z
M 18.951,95.2436 L 18.1682,95.161 L 17.4557,95.0232 L 16.8136,94.8304 L 16.2334,94.5922 L 15.7066,94.3184
 L 15.2332,94.009 L 14.8132,93.664 L 14.4444,93.2885 L 14.1248,92.8876 L 13.8544,92.4612 L 13.6331,92.0094
 L 13.4535,91.5411 L 13.3077,91.0652 L 13.1958,90.5816 L 13.1178,90.0904 L 15.6405,89.8598 L 15.7062,90.2311
 L 15.7948,90.5855 L 15.9062,90.9228 L 16.0406,91.2432 L 16.1995,91.5441 L 16.3847,91.823 L 16.5962,92.0798
 L 16.834,92.3146 L 17.0993,92.5257 L 17.3934,92.7114 L 17.7164,92.8716 L 18.0681,93.0064 L 18.4513,93.1132
 L 18.8683,93.1894 L 19.3193,93.2352 L 19.8042,93.2504 L 20.6768,93.1936 L 21.4502,93.0233 L 22.1245,92.7393
 L 22.6996,92.3418 L 23.1595,91.8323 L 23.488,91.2127 L 23.6851,90.4828 L 23.7507,89.6428 L 23.7215,89.1398
 L 23.6338,88.6884 L 23.4875,88.2888 L 23.2828,87.9408 L 23.0344,87.6364 L 22.7573,87.3677 L 22.4513,87.1345
 L 22.1165,86.937 L 21.7597,86.7721 L 21.3876,86.637 L 21.0002,86.5314 L 20.5975,86.4556 L 20.1953,86.4022
 L 19.8092,86.3641 L 19.4392,86.3412 L 19.0854,86.3336 L 17.702,86.3336 L 17.702,84.2178 L 19.0312,84.2178
 L 19.3803,84.2089 L 19.7363,84.1822 L 20.099,84.1377 L 20.4686,84.0754 L 20.8335,83.9898 L 21.1823,83.8754
 L 21.515,83.7321 L 21.8316,83.56 L 22.1266,83.357 L 22.3945,83.1209 L 22.6352,82.8518 L 22.8488,82.5496
 L 23.0238,82.2089 L 23.1489,81.8241 L 23.2239,81.3952 L 23.2489,80.9222 L 23.1926,80.1962 L 23.0235,79.5507
 L 22.7416,78.9857 L 22.347,78.5012 L 21.8414,78.1125 L 21.2265,77.8349 L 20.5022,77.6683 L 19.6685,77.6128
 L 18.9001,77.6645 L 18.2088,77.8197 L 17.5947,78.0782 L 17.0578,78.4402 L 16.6115,78.8962 L 16.2695,79.437
 L 16.0317,80.0626 L 15.8981,80.773 L 13.4434,80.583 L 13.5425,79.9727 L 13.6909,79.4032 L 13.8883,78.8743
 L 14.1349,78.386 L 14.4245,77.938 L 14.7504,77.5299 L 15.1128,77.1616 L 15.5116,76.8332 L 15.9435,76.5441
 L 16.4051,76.294 L 16.8963,76.0829 L 17.4172,75.9108 L 17.9613,75.7773 L 18.5225,75.6819 L 19.1005,75.6247
 L 19.6956,75.6056 L 20.4678,75.6306 L 21.1841,75.7057 L 21.8444,75.8307 L 22.4487,76.0058 L 22.9989,76.2236
 L 23.4965,76.4771 L 23.9415,76.7661 L 24.334,77.0908 L 24.676,77.4481 L 24.9697,77.835 L 25.2151,78.2517
 L 25.4122,78.698 L 25.5635,79.1667 L 25.6716,79.6507 L 25.7365,80.1499 L 25.7581,80.6644 L 25.7437,81.0781
 L 25.7005,81.4783 L 25.6284,81.8648 L 25.5276,82.2378 L 25.3961,82.5946 L 25.2326,82.9328 L 25.0368,83.2523
 L 24.8087,83.5532 L 24.5481,83.8346 L 24.2544,84.0958 L 23.9276,84.3365 L 23.5677,84.557 L 23.1723,84.7545
 L 22.7387,84.9266 L 22.267,85.0732 L 21.7572,85.1944 L 21.7572,85.2486 L 22.3149,85.327 L 22.8354,85.4402
 L 23.3185,85.5881 L 23.7644,85.7708 L 24.1729,85.9831 L 24.5442,86.22 L 24.8781,86.4815 L 25.1748,86.7676
 L 25.4355,87.0762 L 25.6614,87.4051 L 25.8526,87.7544 L 26.009,88.124 L 26.1306,88.5088 L 26.2175,88.9038
 L 26.2696,89.3089 L 26.287,89.7242 L 26.2603,90.3642 L 26.1802,90.9686 L 26.0466,91.5374 L 25.8598,92.0706
 L 25.6216,92.566 L 25.3342,93.0216 L 24.9977,93.4374 L 24.612,93.8134 L 24.1772,94.1482 L 23.6931,94.4407
 L 23.16,94.6907 L 22.5776,94.8984 L 21.949,95.0615 L 21.2773,95.178 L 20.5623,95.2479 L 19.8042,95.2712
 z
M 42.6038,95 L 34.8052,75.8904 L 37.5314,75.8904 L 42.8208,89.3444 L 42.9225,89.6492 L 43.0242,89.9531
 L 43.1259,90.2562 L 43.2276,90.5584 L 43.3268,90.8521 L 43.4209,91.1296 L 43.5099,91.3911 L 43.5938,91.6364
 L 43.6879,91.9128 L 43.7802,92.1858 L 43.871,92.4553 L 43.96,92.7214 L 44.0431,92.4671 L 44.1295,92.2061
 L 44.2194,91.9382 L 44.3126,91.6636 L 44.3961,91.4187 L 44.4838,91.1585 L 44.5758,90.883 L 44.672,90.5922
 L 44.7724,90.2904 L 44.8771,89.9819 L 44.986,89.6665 L 45.0992,89.3444 L 50.3614,75.8904 L 53.0876,75.8904
 L 45.289,95 z
M -65.5845,95 L -65.5845,75.8904 L -51.0863,75.8904 L -51.0863,78.0062 L -62.9941,78.0062 L -62.9941,84.1364
 L -51.9001,84.1364 L -51.9001,86.225 L -62.9941,86.225 L -62.9941,92.8842 L -50.5303,92.8842 L -50.5303,95
 z
M -47.8439,95 L -47.8439,83.4584 L -47.8443,83.2248 L -47.8456,82.9854 L -47.8477,82.7399 L -47.8507,82.4886
 L -47.8545,82.2377 L -47.8591,81.9936 L -47.8646,81.7563 L -47.8709,81.5258 L -47.8777,81.3067 L -47.8845,81.1037
 L -47.8913,80.9168 L -47.8981,80.746 L -47.9049,80.5976 L -47.9117,80.4781 L -47.9184,80.3873 L -47.9251,80.3254
 L -45.6195,80.3254 L -45.6128,80.3737 L -45.6061,80.4509 L -45.5993,80.5568 L -45.5925,80.6916 L -45.5853,80.8463
 L -45.5772,81.0121 L -45.5683,81.1888 L -45.5585,81.3766 L -45.5488,81.5707 L -45.5399,81.7665 L -45.5319,81.964
 L -45.5247,82.1632 L -45.5188,82.3552 L -45.5145,82.531 L -45.512,82.6908 L -45.5111,82.8344 L -45.4703,82.8344
 L -45.2898,82.5233 L -45.1008,82.2275 L -44.9033,81.9469 L -44.6973,81.6816 L -44.4786,81.4337 L -44.243,81.2052
 L -43.9904,80.9963 L -43.7209,80.8068 L -43.4327,80.6373 L -43.1241,80.4881 L -42.7952,80.3593 L -42.4459,80.2508
 L -42.0721,80.1648 L -41.6695,80.1034 L -41.238,80.0665 L -40.7777,80.0542 L -40.1886,80.0729 L -39.6419,80.1288
 L -39.1376,80.2221 L -38.6757,80.3526 L -38.2544,80.5221 L -37.8721,80.7323 L -37.5288,80.9832 L -37.2245,81.2748
 L -36.9587,81.6092 L -36.7311,81.9885 L -36.5416,82.4128 L -36.3903,82.882 L -36.2746,83.3969 L -36.192,83.9585
 L -36.1424,84.5666 L -36.1259,85.2214 L -36.1259,95 L -38.5807,95 L -38.5807,85.6962 L -38.5905,85.1825
 L -38.6197,84.7128 L -38.6685,84.2873 L -38.7367,83.9058 L -38.8269,83.5638 L -38.9418,83.2565 L -39.0812,82.984
 L -39.2453,82.7462 L -39.4356,82.5419 L -39.6539,82.3699 L -39.9001,82.23 L -40.1743,82.1224 L -40.4799,82.0423
 L -40.8202,81.9852 L -41.1953,81.9509 L -41.6051,81.9394 L -42.0285,81.9585 L -42.4308,82.0157 L -42.8118,82.1111
 L -43.1717,82.2446 L -43.5082,82.4141 L -43.8193,82.6175 L -44.1049,82.8548 L -44.3651,83.126 L -44.5986,83.4312
 L -44.8042,83.7703 L -44.9817,84.1433 L -45.1313,84.5502 L -45.25,84.9897 L -45.3347,85.4606 L -45.3856,85.9628
 L -45.4025,86.4964 L -45.4025,95 z
M -13.2879,95.15 L -14.6243,94.7864 L -15.7665,94.1803 L -16.7147,93.3318 L -17.4593,92.2443 L -17.9912,90.9211
 L -18.3103,89.3623 L -18.4167,87.5678 L -18.3845,86.5764 L -18.2879,85.6639 L -18.1269,84.8302 L -17.9015,84.0754
 L -17.62,83.3935 L -17.2911,82.7786 L -16.9147,82.2306 L -16.4909,81.7496 L -16.0246,81.333 L -15.5211,80.9782
 L -14.9803,80.6854 L -14.4023,80.4544 L -13.7953,80.2793 L -13.168,80.1543 L -12.5204,80.0792 L -11.8525,80.0542
 L -10.968,80.0915 L -10.1589,80.2034 L -9.42528,80.3899 L -8.76707,80.651 L -8.17709,80.9777 L -7.64818,81.3613
 L -7.1803,81.8016 L -6.77347,82.2988 L -6.42419,82.8476 L -6.12917,83.4431 L -5.8884,84.0852 L -5.70187,84.774
 L -5.56239,85.5004 L -5.46277,86.2557 L -5.403,87.0397 L -5.38307,87.8526 L -5.38307,88.178 L -15.8535,88.178
 L -15.8386,88.743 L -15.7941,89.2851 L -15.7199,89.8043 L -15.6161,90.3006 L -15.4813,90.7685 L -15.3143,91.2026
 L -15.1151,91.6026 L -14.8837,91.9688 L -14.6188,92.2985 L -14.3192,92.5893 L -13.9848,92.841 L -13.6157,93.0538
 L -13.2096,93.2229 L -12.7645,93.3438 L -12.2805,93.4162 L -11.7575,93.4404 L -11.0035,93.4006 L -10.3284,93.2811
 L -9.7321,93.0819 L -9.21468,92.803 L -8.77513,92.463 L -8.41272,92.0807 L -8.12744,91.656 L -7.91927,91.189
 L -5.77647,91.7992 L -5.90321,92.1048 L -6.05283,92.4113 L -6.22531,92.7186 L -6.42067,93.0268 L -6.64487,93.3277
 L -6.90382,93.6133 L -7.19756,93.8837 L -7.52608,94.1388 L -7.89349,94.3753 L -8.30417,94.5898 L -8.7581,94.7822
 L -9.25528,94.9526 L -9.80077,95.092 L -10.3996,95.1915 L -11.0519,95.2513 L -11.7575,95.2712 z
M -8.05589,85.2252 L -8.30257,84.3009 L -8.6459,83.5333 L -9.08588,82.9226 L -9.62747,82.4568 L -10.2759,82.1242
 L -11.0311,81.9245 L -11.8931,81.858 L -12.2021,81.8703 L -12.5187,81.9072 L -12.843,81.9686 L -13.1749,82.0546
 L -13.5041,82.172 L -13.8207,82.3275 L -14.1246,82.5212 L -14.4159,82.753 L -14.6897,83.0264 L -14.9414,83.3447
 L -15.1712,83.708 L -15.3789,84.1162 L -15.5543,84.576 L -15.6873,85.0944 L -15.778,85.6711 L -15.8263,86.3064
 L -7.90587,86.3064 z
M -2.58435,95 L -2.58435,83.7432 L -2.58478,83.5114 L -2.58604,83.277 L -2.58818,83.04 L -2.59116,82.8006
 L -2.59488,82.562 L -2.5995,82.3276 L -2.60498,82.0974 L -2.61134,81.8716 L -2.61815,81.6512 L -2.62495,81.4376
 L -2.63174,81.2308 L -2.63855,81.0308 L -2.64534,80.8392 L -2.6521,80.6578 L -2.65883,80.4865 L -2.66554,80.3254
 L -0.359955,80.3254 L -0.352814,80.4869 L -0.344803,80.6594 L -0.335907,80.8429 L -0.326141,81.0374 L -0.315964,81.2387
 L -0.305801,81.4426 L -0.295654,81.649 L -0.285553,81.858 L -0.276199,82.0661 L -0.268555,82.27 L -0.262604,82.4696
 L -0.258347,82.665 L -0.255371,82.851 L -0.25325,83.0226 L -0.251968,83.1798 L -0.251541,83.3226 L -0.197342,83.3226
 L -0.06633,82.9162 L 0.0688934,82.5378 L 0.208344,82.1873 L 0.352036,81.8648 L 0.504181,81.5698 L 0.669037,81.3019
 L 0.846588,81.0612 L 1.03683,80.8476 L 1.24284,80.6602 L 1.46748,80.4983 L 1.71075,80.3618 L 1.97264,80.2508
 L 2.25833,80.1648 L 2.57283,80.1034 L 2.91614,80.0665 L 3.28824,80.0542 L 3.43573,80.0572 L 3.57983,80.0661
 L 3.72054,80.0809 L 3.85783,80.1016 L 3.9859,80.1249 L 4.09868,80.1474 L 4.1962,80.169 L 4.27844,80.1898
 L 4.27844,82.4276 L 4.15125,82.3958 L 4.01389,82.3683 L 3.86635,82.345 L 3.70863,82.326 L 3.54085,82.3111
 L 3.36288,82.3005 L 3.17474,82.2941 L 2.97644,82.292 L 2.57162,82.3158 L 2.19818,82.387 L 1.85612,82.5056
 L 1.54544,82.6718 L 1.26399,82.8799 L 1.00969,83.1244 L 0.782501,83.4053 L 0.582443,83.7228 L 0.40831,84.0746
 L 0.258743,84.4586 L 0.133713,84.8748 L 0.0332336,85.3232 L -0.0438385,85.7983 L -0.0988922,86.2946 L -0.131943,86.8121
 L -0.142944,87.3508 L -0.142944,95 z
" stroke="black" fill="lightgray" stroke-width="0.5"/>
</svg>
